<?xml version="1.0" encoding="UTF-8"?>
<!DOCTYPE svg PUBLIC "-//W3C//DTD SVG 1.1//EN" "http://www.w3.org/Graphics/SVG/1.1/DTD/svg11.dtd">
<!-- Creator: CorelDRAW 2020 (64-Bit) -->
<svg xmlns="http://www.w3.org/2000/svg" xml:space="preserve" width="5.20833in" height="4.49836in" version="1.1" style="shape-rendering:geometricPrecision; text-rendering:geometricPrecision; image-rendering:optimizeQuality; fill-rule:evenodd; clip-rule:evenodd"
viewBox="0 0 112250.89 96949.43"
 xmlns:xlink="http://www.w3.org/1999/xlink"
 xmlns:xodm="http://www.corel.com/coreldraw/odm/2003">
 <defs>
  <style type="text/css">
   <![CDATA[
    .fil0 {fill:black}
   ]]>
  </style>
 </defs>
 <g id="Layer_x0020_1">
  <metadata id="CorelCorpID_0Corel-Layer"/>
  <g id="_2162156867296">
   <path class="fil0" d="M88931.6 56860l0 -8262.8 8446.33 0c0,756.79 -19.94,615.59 -111.41,1296.36 -33.52,249.55 -28.17,213.91 -79.34,410.26l-942.7 2484.86c-6.96,11.45 -15.78,27.07 -22.66,38.61 -6.79,11.45 -15.78,26.98 -22.66,38.52l-1030.26 1417.86c-8.74,9.08 -21.47,21.98 -30.46,30.8l-95.88 87.82c-674.99,609.91 -784.11,838.16 -1723.67,1397.75l-1050.54 540.84c-256.59,128.72 -466.68,196.26 -750.51,289.94l-814.4 226.13c-532.44,85.7 -185.82,128.55 -916.22,124.22 -338.56,-1.95 -855.64,204.58 -855.64,-121.17zm-5447.27 -15729.78l-550.85 0c-234.02,0 -22.32,-18.84 -183.62,61.09 166.9,227.91 -19.35,45.14 234.36,132.88 15.19,5.26 32.33,8.57 47.69,13.58l1953.1 862.34c158.42,88.33 91.05,44.46 230.46,136.78l2002.57 1731.05c425.36,587.68 645.12,837.06 962.55,1546.84 89.77,200.5 156.55,341.61 232.41,563.24 225.28,657.43 396.17,1597.83 396.17,2296.83l-22401.2 0c-243.1,0 -384.97,33.69 -563.07,110.14l-433 301.48c-208.65,211.28 -349.42,367.91 -471.43,630.27l-101.65 204.41c-4.5,8.32 -13.66,26.73 -22.23,39.03l422.39 -3372.41 425.27 -1227.29 1102.89 -1651.37 953.22 -760.52c10.01,-7.89 23.5,-19.77 33.69,-27.49l69.32 -53.2c86.55,-59.74 96.22,-56.6 194.31,-111.66 145.6,-81.54 203.64,-129.23 336.86,-213.99 713.43,-453.61 1600.55,-701.29 2424.37,-880.67l2959.1 -346.02c131.01,-37.76 265.5,-54.14 397.78,-91.89l1254.35 -398.21c112.26,-36.4 256.67,-83.07 409.15,-141.7l1171.03 -481.45c171.4,-76.2 183.7,-98.68 362.48,-188.45 835.95,-419.84 1613.1,-931.33 2356.06,-1499.83 100.63,-76.88 210.69,-151.88 315.65,-235.29l2016.4 -2084.28c77.13,-97.92 42,-41.24 138.99,-166.99l612.96 -917.24c9.33,-15.87 35.81,-61.43 45.06,-77.3l400.67 -701.12c76.45,-144.16 119.13,-225.79 192.02,-358.75l770.87 -1922.22c53.2,-161.98 74.24,-254.64 128.89,-421.96l217.56 -884.06c44.21,-270.17 78.23,-219.59 109.88,-441.06 39.12,-274.58 -3.9,-237.67 70.85,-480.09 73.74,-239.53 48.96,-181.07 62.37,-488.4l122.19 -979.52c31.65,-657.43 143.99,-1368.48 184.13,-2019.2l353.49 -2033.63c3.9,-18.07 5.01,-34.19 8.4,-52.78 27.75,-148.49 10.61,-117.18 48.96,-257.1l1678.78 -4074.47 2342.82 -2737.3c927.25,-785.3 1997.9,-1482.35 3128.46,-1951.58l787.42 -314.29c595.57,-239.7 1204.12,-361.72 1834.14,-552.89 567.06,-172.08 1014.73,-182.35 1231.78,-237.16 841.47,-212.13 1340.65,-153.75 1979.07,-224.26 193.21,-21.38 222.06,-52.18 498.67,-52.18l0 14566.9c0,422.64 -74.24,748.64 -131.35,1153.98l-1286.09 4038.74 -449.03 897.56c-312.17,571.9 -636.64,1134.88 -1052.24,1640.77l-804.05 970.95c-256.93,294.52 -621.87,652.76 -914.36,921.74 -48.7,44.8 -43.19,38.69 -98,85.61l-133.47 111.41c-1213.8,1026.7 -2323.65,1604.79 -3779.95,2218.18l-829.25 272.46c-562.48,181.75 -1214.73,246.41 -1783.23,420.18 -301.99,92.32 -502.15,24.52 -822.63,95.46 -1039.6,230.46 -2323.05,87.4 -3401.34,87.4zm-25033.11 -12975.69l0 -12975.52c0,-322.69 643.26,-183.7 856.83,-183.7l1077.27 146.88c341.53,48.53 783.35,137.12 1071.75,213.66l1132.25 275.43c58.89,19.43 70.09,21.98 140.94,42.68 696.88,204.15 1372.72,480.43 2014.96,800.49 1575.18,785.13 2764.02,1804.53 3880.75,3157.9 868.45,1052.49 1428.13,2367.94 1859.43,3649.11 11.03,32.58 38.52,105.22 47.77,135.85l585.47 2597.29c15.27,214.5 -10.61,368.68 25.54,586.49 36.57,220.27 88.67,343.9 99.7,573.51 22.74,470.58 -32.67,824.58 54.81,1230.51 111.49,517.51 103.01,1090.85 228.33,1607.84 44.63,184.13 74.58,358.33 122.86,550.43 89.01,354.34 170.81,671.51 281.79,1003.53 204.24,610.76 415.86,1235.43 697.82,1811.66 84.51,172.76 126.51,232.41 214.84,397.02l886.61 1378.15c96.22,125.33 61.86,70.09 138.56,167.41 487.89,618.99 1031.79,1166.28 1653.07,1651.97l100.38 83.24c365.28,311.57 1154.14,721.06 1373.57,952.37 -195.92,370.21 -625.01,605.58 -988.94,785.98 -207.21,102.67 -354.51,177.51 -580.04,276.95l-808.63 292.99c-1192.07,404.65 -2471.29,375.98 -3745.41,360.19l-3042.76 -384.71c-135.76,-39.03 -203.64,-39.63 -355.02,-73.4l-882.11 -280.77c-81.46,-27.49 -112.6,-42.26 -133.64,-49.98l-2471.37 -1200.98 -920.3 -671.09c-639.44,-538.55 -1174.34,-1073.28 -1713.65,-1713.74l-1749.63 -2902.08c-32.58,-74.67 -73.48,-188.62 -104.88,-262.36 -34.36,-80.61 -97.41,-214.25 -133.81,-294.6l-463.8 -1372.38c-207.8,-762.56 -451.32,-1546.84 -451.32,-2364.21zm-13281.57 5508.53c0,1033.32 4.67,2866.19 258.37,3903.66 67.12,274.83 11.12,604.73 86.21,892.97 63.72,244.37 65.67,112.17 82.31,407.37l127.28 913.34c25.54,276.95 69.75,193.88 108.95,441.9l1327.33 4793.15c22.15,61.86 44.04,123.97 64.91,179.97l497.99 1338.1c61.01,142.21 88.08,194.56 152.39,337.28 32.33,71.95 39.12,82.64 75.01,169.7 37.76,91.21 53.71,143.82 86.89,219.17l1148.54 2340.28c6.79,11.45 16.12,26.73 22.99,38.18l734.56 1285.24c87.57,137.03 114.12,177.85 204.75,346.11l435.96 665.74c7.81,10.1 19.69,23.59 27.41,33.77l2557.75 3440.37c104.28,123.37 99.28,147.39 216.79,272.88 111.07,118.79 158.16,147.05 265.33,285.52l2014.96 2085.81c368.76,364.86 711.9,644.44 1085.92,995.05l1393.59 1115.88c10.1,7.81 24.1,19.18 33.94,27.24 9.84,7.98 23.33,20.02 33.01,28.17l228.93 199.48c197.36,154.26 400.33,277.72 608.13,432.4l102.58 81.03c9.84,8.06 23.42,19.94 33.18,28 9.84,7.98 23.42,20.02 33.18,28l1467.25 980.96c920.13,558.07 1830.58,1142.69 2793.55,1613.27 249.29,121.85 453.02,210.18 704.18,336.35 133.73,67.2 218.58,104.11 333.89,155.7l3438.17 1397.16c45.48,17.14 159.6,56.6 180.82,63.98l1595.88 485.18c232.49,54.39 236.82,50.06 441.06,109.8l3395.49 705.2c427.73,20.96 407.62,119.98 856.06,123.2 441.73,3.22 574.19,93 921.31,119.3 1583.92,119.98 3112.76,124.73 4710.42,124.73 710.37,0 1153.89,-115.14 1899.9,-119.81 417.3,-2.63 496.29,-111.15 853.6,-125.66 731.67,-29.7 563.33,-87.82 921.14,-119.3l1283.71 -185.23c728.28,-219.51 1552.52,-306.82 2287.5,-527.94 202.96,-61.09 -2.04,-15.78 183.36,-61.52l398.12 -91.47c14.76,-4.84 29.95,-11.71 44.63,-16.63 2903.1,-963.82 4688.62,-1516.37 7442.63,-3145.94 142.21,-84.09 220.78,-111.07 354.25,-196.52 1374.08,-878.97 2484.78,-1560.75 3765.69,-2599.75l1436.36 -1195.47c9.76,-8.15 23.76,-19.52 33.43,-27.75l3994.79 -4206.75c31.65,-44.38 65.67,-90.96 105.05,-139.75l798.28 -1037.98c1250.54,-1681.58 2325.68,-3529.55 3209.75,-5420.12l1697.02 -4362.45c42.68,-131.35 26.98,-77.72 58.72,-186.08l348.48 -1242.81c29.19,-97.66 22.57,-94.78 46.75,-198.13l295.79 -1234.24c80.01,-461.25 210.69,-812.53 247.17,-1283.12l121.17 -858.01c13.92,-295.96 41.75,-208.82 96.39,-454.55l270.34 -3830.35c0,-916.9 -7.21,-3116.07 -136.7,-3964.07l-106.83 -933.7c-12.3,-285.1 -24.35,-169.7 -85.02,-404.65 -54.64,-211.28 -26.73,-227.99 -38.61,-451.07 -17.9,-339.49 -30.29,-147.9 -93,-396.59 -48.96,-194.14 -9.67,-313.02 -46.75,-504.02l-186.93 -853.69c-193.8,-754.67 -313.1,-1533.09 -554.16,-2261.28l-779.95 -2402.73c-4.92,-14.76 -10.95,-30.46 -15.95,-45.23l-298.76 -802.86c-45.73,-111.24 -80.18,-185.74 -144.59,-345.09l-2408.58 -4752.51c-98.68,-184.13 -100.63,-165.12 -220.27,-330.58l-3156.8 -4249.09c-667.01,-756.87 -1685.06,-1938.85 -2402.73,-2493.69l-547.29 -493.15c-139.24,-139.33 -125.41,-107.25 -265.24,-224.52 -117.01,-98.26 -165.71,-173.44 -280.77,-270.08l-1057.24 -840.03c-13.58,-11.62 -51.76,-45.48 -65.25,-57.19l-974.51 -739.22c-640.46,-501.98 -1356.6,-942.44 -2046.18,-1381.38l-2969.45 -1620.91c-1075.83,-501.55 -2161.07,-971.71 -3273.47,-1378.15 -192.78,-70.51 -136.44,-62.96 -356.04,-133.56 -122.61,-39.46 -222.65,-75.52 -363.67,-126l-1740.72 -523.96c-17.06,-4.24 -33.52,-6.36 -50.74,-10.44 -110.39,-25.71 -99.78,-17.9 -198.72,-46.16 -843.17,-239.87 -1815.13,-393.62 -2477.23,-583.01 -213.74,-61.09 -268.21,-24.18 -490.02,-60.84 -133.3,-21.98 -229.27,-79.51 -390.91,-98.77 -193.38,-22.91 -321.59,9.67 -517.76,-33.01 -207.04,-45.06 -165.8,-77.04 -394.9,-94.78 -1108.75,-86.04 -2168.79,-246.75 -3364.43,-246.75 -1613.36,0 -3277.46,-16.38 -4859,221.04l-929.54 110.9c-201.44,43.87 -246.41,21.47 -451.07,38.52 -235.38,19.69 -184.72,47.86 -396.93,92.74l-1298.9 231.22c-169.53,42.17 -301.05,38.1 -471.6,79.34 -293.84,70.85 -540.84,157.99 -812.7,227.74 -148.32,38.01 -263.12,43.36 -405.67,83.92l-1000.48 285.01c-14.85,4.92 -30.72,10.52 -45.73,15.36 -57.02,18.16 -85.28,23.76 -142.97,40.64 -124.9,36.57 -208.99,59.82 -378.78,110.82l-408.73 142.13c-151.54,47.01 -224.77,63.89 -372.16,117.52l-395.49 155.28c-15.44,5.01 -32.16,8.82 -47.52,13.75l-93.25 29.19c-14.68,5.01 -30.55,11.12 -44.97,16.21l-3734.89 1651.2c-139.83,72.97 -228.42,113.62 -367.66,183.28 -250.57,125.16 -439.19,216.2 -682.29,358.07l-2207.49 1342.51c-11.45,6.96 -26.9,16.04 -38.1,23.16l-217.05 150.1c-46.92,32.41 -65.42,43.61 -109.97,73.65l-1758.79 1301.45c-199.57,157.14 -384.55,280.35 -588.1,452.43l-2191.45 1970.5c-99.45,93.51 -35.21,32.58 -130.33,114.63l-305.97 305.97c-8.32,9.59 -19.94,23.5 -28.17,33.09l-4467.07 5631.82c-55.83,91.13 -70.26,96.73 -123.71,182.35 -65,104.11 -116.76,217.98 -177.25,312.34l-771.72 1309.25c-557.39,1021.61 -1038.58,2076.99 -1515.27,3136.35 -322.77,717.33 -588.53,1534.45 -851.4,2270.19 -96.05,268.64 -175.73,504.86 -258.46,781.99l-338.39 1191.73c-240.98,809.31 -379.2,1661.72 -581.31,2478.84 -116.67,471.26 -347.04,2716.08 -422.64,3249.8 -143.57,1014.82 -158.08,1923.83 -158.08,2963.42z"/>
   <path class="fil0" d="M14322.02 52147.2c0,-1371.36 -90.88,-1861.46 1009.3,-2907.85l633.16 -468.55c41.83,-25.37 95.03,-58.12 154.51,-90.37 78.57,-42.76 -0.85,-1.87 80.44,-42 633.84,-313.02 1031.62,-445.47 1731.73,-655.31l1899.39 -304.02 3459.55 151.63c445.21,112.43 680.42,119.56 1131.23,276.53 625.35,217.64 1083.72,400.58 1605.55,781.39 287.56,209.92 511.4,360.45 733.03,674.82 414.5,587.93 759.42,1311.63 644.27,2137.82 -99.36,712.92 -94.02,982.58 -510.89,1694.05 -461.51,787.67 -1065.05,1178.84 -1890.82,1597.83 -87.74,44.55 -209.67,90.62 -304.36,124.14l-359.09 130.67c-1466.06,465.07 -2024.21,361.47 -3232.32,501.55 -402.45,46.67 -594.13,-36.49 -908.76,-52.69 -955.59,-49.21 -2104.22,-169.45 -2992.61,-496.12 -743.89,-273.39 -1481.5,-691.88 -2018.1,-1286.94 -344.75,-382.25 -865.23,-1348.03 -865.23,-1766.6zm7161.09 -30541.56c-980.37,0 -874.14,-33.26 -1530.2,-183.62l-238.35 -67.71c-14.09,-5.18 -29.61,-12.3 -43.53,-17.73 -1527.57,-597.95 -2674,-1730.62 -2980.56,-3384.71 -163.76,-883.64 -103.77,-565.11 -103.77,-1609.96 0,-251.84 47.43,-240.21 93.93,-456.92l142.55 -591.84c277.89,-847.15 862.43,-1640.43 1566.01,-2167.61l109.71 -73.82c397.44,-250.31 924.79,-561.12 1403.01,-678.05 829.08,-202.79 1755.57,-279.67 2605.01,-115.99l665.83 191.25c451.92,176.91 1005.23,465.75 1371.87,770.28l259.47 230.03c750.08,726.16 989.45,1282.61 1271.49,2217.33 223.75,741.26 138.82,1858.66 -42.76,2593.3l-105.89 383.7c-303.85,781.14 -756.02,1403.1 -1382.31,1922.81 -440.72,365.71 -936.76,608.13 -1476.92,787.59 -14.76,4.92 -30.12,11.54 -44.89,16.29 -15.1,4.84 -30.46,10.95 -45.82,15.53 -15.61,4.58 -31.31,9.5 -47.43,13.75 -504.52,135.85 -873.71,206.1 -1446.46,206.1zm-16831.57 -5508.53c0,864.55 91.89,1707.37 219.26,2473.75 186.59,1122.16 426.46,2193.15 871.34,3229.52 7.55,17.56 29.78,67.46 37.16,85.11 21.98,52.69 28.93,75.77 51.76,131.86l1152.02 2030.83c120.49,146.54 220.1,205.25 239.11,434.1 -144.16,38.52 -175.56,70.85 -337.11,152.48 -136.19,68.81 -230.37,114.63 -367.41,183.53 -691.03,347.55 -1395.72,760.86 -1983.56,1260.38 -9.59,8.15 -22.91,20.36 -32.58,28.51 -9.59,8.23 -23.16,20.19 -32.92,28.34l-994.79 841.3c-100.8,101.48 -141.02,139.5 -253.11,236.56l-1664.44 2007.92c-370.54,504.86 -645.55,1111.63 -881.35,1689.3l-223.33 633.41c-450.98,1336.66 -451.58,2514.14 -451.58,3955.25l213.23 1500.51c162.49,634.94 281.37,1263.35 528.96,1858.07l307.42 733.03c40.81,81.63 111.15,230.46 164.87,324.73l1741.31 2359.54c94.86,106.57 170.21,182.85 273.73,277.04 56.68,51.67 81.97,70.09 131.35,113.53l1003.11 833.07c539.23,438.93 1209.72,812.45 1840.08,1097.8 295.2,133.56 550.34,299.61 895.69,328.37 -26.47,318.62 -609.91,536.09 -1225.25,978.08 -52.52,37.76 -77.64,51.76 -142.97,101.91 -366.39,281.45 -748.98,564.43 -1053.43,905.02l-1678.69 1993.75c-298.08,451.92 -586.41,953.81 -797.35,1467.25l-457.35 1378.83c-478.65,1834.91 -355.61,4281.08 426.04,6060.91l1983.73 3218.74c8.91,8.82 22.23,21.21 31.06,30.21 8.91,8.82 21.81,21.55 30.55,30.72l564.09 598.71c458.11,439.7 934.8,876.94 1450.19,1242.9l1189.27 769.26c106.83,62.96 170.81,89.26 279.33,149.08 1195.04,657.94 2433.19,1160.08 3729.8,1595.03 593.53,199.15 1660.2,486.2 2291.4,585.39 248.7,39.03 207.29,8.4 417.98,71.61 220.27,66.01 144.42,39.54 424.34,65.34 240.21,22.06 183.02,46.07 397.53,92.06l856.91 122.44c1477.6,285.18 4603.34,331.94 6094.6,331.94 1004.13,0 2904.2,-148.23 3943.62,-340.85 168.43,-31.23 283.06,-65.93 411.1,-78.4 238.35,-23.33 279.75,10.01 497.23,-53.63l918.94 -182.68c93.42,-15.87 140.85,-9.59 223.16,-21.72 292.57,-42.93 95.03,-20.36 240.3,-65.76l1338.87 -313.78c247.43,-59.99 521.92,-158.33 796.58,-243.78l605.67 -190.07c14.93,-4.92 31.06,-10.27 45.9,-15.36l181.41 -63.38c77.04,-25.2 115.65,-33.35 186.93,-57.95l2045.17 -892.63c228.59,-114.89 503.25,-219.42 732.94,-368.76l1753.87 -1122.75c9.84,-8.06 23.42,-19.94 33.18,-28 9.84,-8.06 23.42,-20.02 33.26,-28l2632.17 -2509.05c8.23,-9.67 19.77,-23.59 28,-33.18 8.23,-9.67 19.86,-23.5 28.09,-33.18 575.46,-678.72 962.04,-1430.08 1417.27,-2193.83 60.84,-101.99 -14.51,25.79 46.41,-75.94l704.35 -1621.59c237.16,-743.97 494.51,-1522.14 653.27,-2284.53l149.93 -951.77c11.03,-479.41 121.76,-585.98 121.76,-979.95 0,-1024.58 85.7,-2150.38 -98.43,-3145.52 -41.83,-226.3 0.76,-406.78 -53.12,-620.09l-268.98 -1138.79c-102.33,-351.37 -203.98,-668.63 -339.91,-1006.59l-245.05 -611.86c-16.29,-41.07 -32.41,-84.94 -51.67,-131.94 -404.23,-990.55 -1032.13,-1929.43 -1710.94,-2757.07l-644.53 -763.15c-108.27,-122.86 -216.37,-220.87 -334.99,-338.3 -577.58,-571.05 -1236.03,-1057.67 -1900.66,-1526.81 -148.74,-104.88 -271.86,-168.85 -411.61,-261.68l-3892.71 -1799.44 -1478.7 -418.66c-159.35,-37.5 -374.02,-68.05 -556.71,-116.5 -191.85,-50.74 -435.96,-54.22 -627.64,-106.83l-1162.46 -184.13c-428.33,-48.87 -948.04,-14.17 -1348.54,-59.14 -735.57,-82.56 -9993.93,-8.91 -11008.07,-8.91 -907.65,0 -1628.97,13.32 -2414.1,-340.17 -351.2,-158.08 -575.21,-332.96 -815.67,-592.01 -105.64,-113.79 -200.67,-243.78 -285.27,-388.02 -107.76,-183.45 -33.35,-44.89 -114.89,-252.43 -73.99,-188.2 -103.6,-75.18 -103.6,-263.55l0 -1162.88c0,-164.7 269.23,-669.73 390.48,-833.66 646.06,-872.61 1787.73,-1004.89 2792.11,-1002.6l8141.46 -60.07c255.83,-12.13 379.37,-81.8 564.43,-108.78 204.83,-29.87 366.81,-0.59 573.42,-38.69l3038.69 -756.02 1399.87 -558.66c296.55,-129.65 510.97,-262.78 823.73,-400.41 168.68,-74.33 263.46,-117.18 404.91,-207.21 844.18,-537.79 1716.37,-1022.29 2463.31,-1698.63l845.37 -745.93c340.17,-329.65 922.25,-932.77 1220.5,-1350.24 525.65,-735.74 1084.57,-1481.08 1508.91,-2285.8 153.41,-290.87 276.02,-554.42 412.04,-873.29l270.76 -647.33c7.21,-17.82 28.43,-68.81 35.55,-86.89l356.63 -1112.23c46.33,-180.14 93.51,-316.75 130.5,-481.53l272.37 -1686.16c0,-888.22 61.01,-1857.65 -98.34,-2717.1 -41.66,-224.69 -2.8,-404.99 -49.64,-623.57l-254.98 -1152.79c-59.82,-255.15 -88.58,-270.59 -153.75,-519.54 -39.37,-150.7 -29.44,-122.36 -85.53,-281.71l-116.92 -311.49c-5.09,-14.76 -10.27,-31.06 -15.27,-45.99 -19.18,-58.38 -23.16,-82.81 -42.43,-141.19 -48.03,-145.52 2.8,3.99 -48.53,-135.17 -318.02,-863.95 -774.18,-1634.4 -1256.14,-2416.05l-1114.6 -1342.51c-143.23,-163.68 -99.19,-196.52 62.11,-280.86l180.22 -64.49c15.02,-5.01 30.97,-10.35 45.99,-15.27l4186.64 -1505.51c519.63,-183.53 941.85,-353.4 1271.83,-809.06 167.16,-230.8 365.96,-572.24 365.96,-858.18l0 -4100.77c0,-903.32 -790.56,-1713.74 -1713.65,-1713.74l-18239.25 0c-361.21,0 -558.32,39.2 -890.26,89.09 -601.42,90.28 -1125.8,104.54 -1704.57,253.87l-1514.25 383.1c-1297.12,442.33 -2456.86,924.71 -3641.47,1622.27l-493.41 302.32c-155.7,94.52 -153.92,107.17 -291.29,198.38l-2503.45 2086.91c-9.59,8.23 -23.67,19.69 -33.35,27.83l-68.05 54.39c-377.93,311.23 -965.27,1048.84 -1248.5,1444.59l-1720.36 2747.65 -465.24 1064.8c-95.37,214.5 -176.07,453.1 -269.23,710.12l-507.32 1757.27c-15.53,84 -9.25,137.46 -22.66,222.14l-230.88 1238.06c-74.67,534.99 -125.58,1308.83 -125.58,1894.3z"/>
   <path class="fil0" d="M102458.05 78037.14c-239.45,-175.39 -358.67,-616.78 -500.96,-906.8l-2364.46 -4918.99c-591.58,-1208.87 -489.68,-1477.68 -1480.06,-1335.47 -321.76,46.33 -389.38,252.01 -520.9,519.97l-2433.44 5217.24c-129.99,308.18 -315.9,647.84 -483.06,985.89 -159.86,322.94 -273.64,692.22 -479.92,989.02l-636.21 -2179.23c-36.74,-123.88 -47.18,-226.81 -81.97,-346.45l-460.32 -1498.3c-31.56,-112.17 -47.69,-228.08 -82.64,-345.77l-108.52 -381.15c-4.5,-15.78 -9.16,-31.73 -13.83,-47.35 -4.67,-15.27 -10.69,-30.72 -15.53,-45.65l-414.33 -1421.85c-202.45,-713.26 -317.09,-549.84 -999.38,-526.93 -723.7,24.27 -1157.37,124.56 -1469.88,123.03 -878.89,-4.67 -1225.84,-0.25 -1225.84,732.69l3252.26 9968.14c5.01,14.68 11.37,30.21 16.21,44.97l899.25 2895.54c5.09,14.42 11.54,30.12 16.8,44.38 202.71,549.41 497.57,389.81 1017.87,389.81 353.49,0 544.57,-690.77 663.03,-928.36l2414.1 -4930.61c270.51,-673.63 1196.06,-2258.74 1329.7,-2832.25 8.49,12.13 19.77,17.39 23.16,38.01l3439.69 7087.7c697.39,1652.81 635.62,1565.5 1617.26,1565.5 332.79,0 378.01,-526.67 446.4,-777.58l431.64 -1465.89c4.67,-15.1 10.52,-30.72 15.36,-45.82l123.46 -427.31c4.67,-15.27 10.86,-30.63 15.53,-45.73 6.02,-19.09 25.88,-71.44 31.65,-90.79l48.87 -196.01c4.33,-16.29 7.81,-32.67 12.39,-48.79l1780.52 -6298.58c30.97,-107.34 47.86,-195.07 77.38,-289.85l1254.86 -4498.55c27.83,-98.6 29.44,-138.48 57.27,-248.61l134.83 -538.47c91.64,-367.41 189.3,-676.52 99.02,-1063.86l-1103.32 -1.61c-307.59,15.1 -143.31,17.73 -348.74,79.68 -279.67,84.26 -500.54,6.45 -786.99,69.83 -804.73,178.19 -1149.56,-9.67 -1383.33,942.61 -57.02,232.49 -15.61,45.06 -59.06,185.74l-1399.03 5455.93c-20.87,87.91 -12.98,66.44 -37.16,146.45l-225.19 876.51c-38.27,138.73 -66.78,162.07 -104.45,323.96z"/>
   <path class="fil0" d="M83790.3 78710.43l0 979.27c0,277.04 -3.56,-27.75 -71.19,173.61 -194.56,578.68 -38.78,401.18 -551.62,1162.12 -252.01,373.68 -621.11,695.35 -994.2,964.42 -205,147.81 -394.39,280.35 -594.55,384.71 -571.56,297.91 -1794.86,620.26 -2360.05,544.4 -1159.74,-155.53 -1872.41,-231.81 -2913.62,-1007.69 -816.27,-608.3 -1346.16,-1465.12 -1377.56,-2533.31 -94.69,-3213.14 5779.89,-4993.23 8054.41,-2307.44 246.07,290.95 466.77,582.16 600.49,929.71l207.89 710.2zm-12608.28 795.65c0,852.41 76.28,946.94 179.38,1473.1 114.8,585.98 447.42,1176.88 790.22,1658.08 7.55,10.52 17.9,25.2 25.29,35.89 436.05,624.59 831.88,1035.44 1448.24,1489.65l1035.61 678.13c1061.66,570.2 1329.45,645.97 2425.98,940.4 1205.65,323.71 1743.61,212.55 3153.75,212.55l1423.63 -290.02c506.73,-143.4 853.35,-268.72 1303.65,-471.35l589.38 -267.62c907.82,-453.87 1771.27,-1147.61 2450.33,-1895.15l1168.06 -1892.26c5.43,-13.83 12.05,-29.78 17.48,-43.7 516.06,-1324.61 552.04,-2836.32 16.8,-4190.29l-105.13 -262.11c-174.2,-396.34 -407.62,-818.56 -682.03,-1154.14l-423.49 -494.6c-76.37,-86.63 -113.87,-137.2 -202.37,-226.04 -3377.67,-3394.64 -9834.41,-2697.76 -12900,660.91 -8.49,9.33 -20.19,23.16 -28.59,32.67 -8.4,9.33 -20.19,23.16 -28.51,32.67l-850.72 1107.9c-126.09,194.82 -221.55,396.68 -315.99,602.1 -348.31,757.64 -490.95,1385.62 -490.95,2263.23z"/>
   <path class="fil0" d="M61083.12 78710.43c-160.11,0 -244.88,4.84 -244.88,-183.62 0,-2981.24 -171.65,-2288.86 717.59,-2404 576.14,-74.58 2181.78,-44.29 2832.33,-44.29 387.52,0 1853.83,591.75 1235.01,1785.95 -49.38,95.37 -91.21,132.54 -161.39,205.85l-219.59 208.73c-115.23,90.45 -92.32,68.47 -229.44,137.97 -367.07,185.99 -444.45,237.75 -928.95,233.85 -1039,-8.4 -1924,59.57 -3000.67,59.57zm-3978.41 -4712.8l0 11445.4c0,170.47 257.95,428.41 428.41,428.41l2876.62 0c85.87,0 428.5,-155.02 428.5,-367.24l0 -4406.83 1530.12 0c21.64,259.73 358.41,624.25 589.21,1002.18l144.84 222.48c7.04,11.2 16.46,26.39 23.33,37.76l622.72 968.66c7.21,10.86 17.56,25.46 24.78,36.49 7.21,10.95 17.06,25.96 24.18,37l92.15 152.65c126.43,209.24 248.44,388.19 387.94,591.41 73.06,106.4 136.95,180.14 200.93,288.66 202.71,343.56 786.57,1436.78 1133.87,1436.78l3243.86 0c172.93,0 367.24,-255.23 367.24,-428.41 0,-249.63 -2834.54,-4163.81 -3060.24,-4590.44l1144.05 -569.69c1571.44,-876.26 2688.93,-2523.64 1863.58,-4396.56l-194.65 -356.2c-268.38,-381.15 -644.78,-804.81 -1024.92,-1055.97 -608.13,-401.85 -997.42,-660.57 -1732.15,-838.5 -372.24,-90.2 -991.49,-244.03 -1338.87,-252.52 -1052.32,-25.71 -2835.13,124.73 -4041.97,124.73 -334.14,0 -3123.37,-42.34 -3337.53,28.85 -152.73,50.66 -396,298.34 -396,460.91z"/>
   <path class="fil0" d="M48903.17 78710.43l-1836.18 0c-556.62,0 -861.49,-61.26 -1407.68,-61.26l0 -2570.65 1704.83 8.99c897.81,100.8 2447.87,-166.56 3035.38,759.33 657.26,1036.03 -478.73,1863.58 -1496.35,1863.58zm-6977.39 -4712.8c0,902.14 -47.18,11077.4 84.6,11544.33 40.9,144.67 187.01,329.48 343.82,329.48l2815.44 0c223.67,0 489.68,-168.85 489.68,-367.24l0 -4406.83 1346.5 0c138.56,0 172.84,55.58 344.67,328.63l2740.44 4237.04c63.47,74.33 236.9,208.39 342.37,208.39l3243.94 0c207.04,0 340.93,-236.56 428.41,-367.24 -83.41,-312.42 -920.13,-1424.31 -1137.94,-1738.68l-1983.56 -2912.94c281.71,-6.19 146.79,-9.33 300.8,-66.44 13.92,-5.18 29.27,-12.73 43.02,-18.24 17.99,-7.13 68.47,-28.68 86.21,-36.15 788.35,-328.88 531.68,-252.09 1152.7,-622.21 20.96,-12.56 91.72,-52.18 116.16,-67.46 72.72,-45.9 32.75,-16.55 109.54,-74.16 533.8,-400.41 1014.56,-928.78 1262.08,-1553.37 260.15,-656.92 259.81,-1567.2 -18.58,-2205.2l-296.3 -560.7c-421.96,-623.57 -1240.35,-1229.07 -1887.68,-1539.71l-1970.41 -600.24 -2572.26 1.61c-347.38,-4.24 -423.41,-65.17 -791.15,-65.67 -267.45,-0.34 -595.65,20.36 -855.81,-1.19 -985.97,-81.63 -2325.85,-57.95 -3369.44,-57.95 -251.5,0 -367.24,336.52 -367.24,612.12z"/>
   <path class="fil0" d="M1162.8 73630.4c0,425.27 -36.49,947.62 67.63,1340.05 141.62,534.14 319.97,1102.3 621.28,1582.13l72.72 110.9c7.3,10.86 17.56,25.54 24.86,36.4l629.09 778.51c136.86,164.61 26.22,63.98 210.43,218.15 702.57,587.93 1466.48,1227.29 2325.68,1591.47 619.84,262.78 1197.84,520.82 1741.48,890.26l278.4 211.36c656.92,552.3 1118,1466.74 317.17,2161.33 -1354.56,1174.85 -4195.63,-1086.35 -4574.92,-1086.35 -474.49,0 -600.49,358.67 -811.6,718.6l-362.14 617.21c-211.79,402.02 -743.04,919.7 -420.1,1359.74 326.68,444.96 1177.22,924.79 1666.65,1148.88 2859.91,1113.16 5989.05,1116.47 8167.68,-1296.02 340.51,-389.55 589.38,-868.2 705.28,-1375.61 180.65,-790.98 112.6,-650.64 112.6,-1540.05 0,-298.25 -260.07,-944.14 -418.91,-1233.48 -710.03,-1293.13 -1853.4,-2064.26 -3089,-2786.85 -990.21,-499.09 -2943.4,-1279.39 -3398.97,-2293.1 -85.36,-189.81 -70.51,90.71 -70.51,-174.37 0,-435.63 -27.92,-679.74 354.08,-992.33 206.61,-169.19 339.32,-189.22 694.59,-190.24 301.05,-0.76 725.65,47.09 1059.28,176.41 18.07,7.04 69.32,27.83 87.31,34.96l87.31 35.13c652.67,261.94 1275.74,615.93 1836.01,1040.7 874.22,662.86 1106.29,275.43 1745.22,-606.18 1019.83,-1407.09 1200.81,-1213.29 -623.57,-2412.83 -1979.24,-1301.79 -5353,-2114.4 -7378.14,-692.39 -14.76,10.35 -55.49,41.75 -70.43,52.01 -10.61,7.47 -25.46,17.56 -36.32,24.86 -355.36,240.55 -644.95,587.34 -911.05,925.13 -11.12,14.09 -43.95,53.2 -54.73,67.63 -198.89,268.04 -584.37,1195.21 -584.37,1557.95z"/>
   <path class="fil0" d="M20687.38 77853.52l-2448.12 -122.44 0 -2815.36c5672.98,0 3762.64,2937.8 2448.12,2937.8zm-5630.89 8017.92l2754.27 0c122.86,0 339.32,-163.08 389.98,-283.23 90.28,-214.42 45.65,-3621.87 36.32,-4186.89 -11.71,-710.88 -247.43,-548.73 2083.09,-548.73 258.46,0 340.42,44.55 495.45,49.04l1097.8 -108.44c124.31,-37.42 72.72,-23.67 242.93,-63.04 200.25,-46.24 91.89,-15.7 237.75,-68.31l1209.64 -565.28 1025.6 -871.85c425.02,-418.83 667.18,-912.15 869.21,-1456.55 381.32,-1027.72 38.69,-2401.03 -587.93,-3280.94 -1959.72,-2751.38 -7047.56,-2937.88 -10221.33,-2937.88 -99.19,371.65 -193.46,39.46 -185.57,732.6l1.19 1838.81c-2.38,412.04 59.99,555.61 64.4,914.86l-2.38 9428.15c-0.08,403.3 -91.89,1026.87 159.6,1248.07 36.15,31.73 273.9,159.6 329.99,159.6z"/>
   <path class="fil0" d="M32622.45 78587.99l1232.12 2195.44c7.04,10.95 17.9,25.29 25.12,36.06 7.38,10.78 18.16,25.03 25.46,35.72 152.22,222.56 181.24,263.12 186.25,487.05l-3060.24 -61.26 1144.3 -2038.38c146.96,-250.48 222.23,-504.1 447,-654.63zm-7283.45 7283.45l2754.27 0c267.71,0 -9.16,6.7 131.18,-52.44 216.79,-91.38 304.87,-101.48 431.89,-241.32l470.41 -814.99c6.45,-11.88 15.78,-26.98 22.32,-38.86l191.51 -359.34c117.35,-208.14 171.06,-234.61 221.63,-451.58 574.02,0 954.57,64.91 1468.18,62.03l4652.39 60.33 107.17 198.89c1127.33,2026.24 547.97,1637.29 4116.04,1637.29 105.47,0 428.33,-176.41 428.33,-428.41l-283.32 -512.25c-9.76,-16.63 -35.55,-60.58 -45.23,-77.21l-5761.81 -9906.79c-90.03,-165.21 -135.68,-220.19 -224.6,-387.43l-647.58 -1127.42c-319.97,-554.67 -255.91,-719.62 -932.94,-719.62 -418.49,0 -526.33,374.62 -781.73,809.56l-1113.16 1885.82c-88.08,153.33 -157.14,285.18 -244.12,429.18l-2626.23 4595.96c-30.46,53.46 -82.48,129.57 -117.26,188.88l-1544.04 2740.35c-88.75,144.84 -156.13,283.49 -244.8,428.41 -171.65,280.26 -926.23,1468.86 -810.67,1787.3 49.55,136.61 248.36,293.67 382.17,293.67z"/>
   <path class="fil0" d="M36388.4 96924.23c199.57,0 203.73,-35.21 369.36,-73.91 104.2,-447.25 221.63,-3394.21 221.63,-4062.25l73.74 0c0,394.56 10.61,255.74 110.48,554.42l449.37 1323.25c6.36,16.97 14.42,35.98 20.7,53.03l238.52 721.66c389.13,1355.67 453.78,1486.93 1101.37,1336.15l654.37 -1782.89c6.36,-17.22 14.34,-36.15 20.53,-53.46l662.43 -1922.56c63.81,-146.79 42.26,-117.26 139.75,-229.61 0,1304.5 159.52,2612.57 146.88,3324.55 -7.64,435.37 -60.92,811.6 370.21,811.6 648.86,0 451.75,-590.56 389.64,-1054.36l-237.67 -3676.85c11.29,-664.64 83.83,-586.58 -816.69,-586.58 -184.55,0 -270.59,174.37 -330.58,334.23l-1089.83 3046.24c-107.51,380.05 53.37,371.56 -278.31,460.15 0,-359.94 -1.19,-239.28 -90.11,-500.88l-1165.6 -3339.74 -960.18 0 -295.71 3470.92c-12.73,238.86 13.66,500.62 0.68,739.31 -22.06,407.71 -281.71,1107.56 295.03,1107.56z"/>
   <path class="fil0" d="M62829.7 91975.72c0,979.44 -96.31,4144.04 73.91,4874.61 921.65,220.7 738.63,-73.91 738.63,-1698.72 0,-763.15 0,-1526.39 0,-2289.62l53.03 94.69c22.99,45.23 56.77,116.42 72.63,148.91 66.86,137.03 83.66,170.81 154.51,288.66l989.62 1595.37c169.7,253.79 986.9,1647.3 1162.88,1791.55 282.3,231.56 817.03,214.25 817.03,-152.39l0 -4800.79c0,-327.61 -396.25,-221.55 -738.63,-221.55 -214.33,920.04 0,2927.19 0,3766.8 -226.72,-91.64 -361.81,-474.23 -489.68,-692.05 -541.94,-923.01 -1578.65,-2377.61 -1947.59,-3074.75l-812.45 0c-38.52,165.63 -73.91,169.79 -73.91,369.27z"/>
   <path class="fil0" d="M96287.59 96185.6l-1329.45 0 0 -3692.89c0,-472.28 1118.08,-262.87 1337.17,-229.35 310.72,47.86 126.26,-2.38 353.74,89.43 16.29,6.62 34.7,16.21 50.66,23.25 490.02,213.66 678.72,425.95 866.16,906.46l40.98 106.66c94.27,241.4 84,-115.65 84,211.45 0,724.46 75.52,933.45 -165.88,1532.75 -63.47,157.57 -170.55,318.79 -274.66,464.05 -190.58,266.01 -760.61,588.19 -962.72,588.19zm-2066.89 -4563.29c-20.36,215.1 -75.01,246.49 -75.01,501.05l0 4357.7c0,614.83 396.76,443.18 1698.8,443.18l1090.42 -239.03c2566.07,-946.17 2164.64,-5377.78 -1238.23,-5152.67l-1475.99 89.77z"/>
   <path class="fil0" d="M83140.85 96185.6l-1034 0c0,-1998.24 -141.62,-1846.36 443.09,-1846.36 306.65,0 1255.63,224.52 1255.63,664.72 0,419.76 71.19,720.13 -216.2,965.61 -47.01,40.22 -375.38,216.03 -448.52,216.03zm-960.26 -2437.26c-68.98,-296.3 -278.91,-1551.08 221.63,-1551.08 1313.33,0 1255.63,303.94 1255.63,960.18 0,247.43 -346.36,449.37 -531.93,502.15 -308.69,87.82 -566.64,88.75 -945.33,88.75zm-886.27 -1846.53l0 4726.97c0,435.54 988.6,295.45 1624.9,295.45l1122.67 -354.59c257.78,-184.98 385.31,-328.88 518.19,-589.63 184.72,-362.74 131.77,47.35 131.77,-976.04 0,-287.31 15.27,-5.85 -107.08,-262.36 -121.85,-255.66 -4.92,-72.97 -168.43,-274.66 -149.25,-184.3 -247.17,-325.23 -536.94,-349.33l0 -221.63c450.64,-120.32 1206.07,-1250.79 61.35,-2055.52 -555.35,-390.4 -1431.1,-318.62 -2071.81,-250.31 -312.68,33.26 -574.61,-8.32 -574.61,311.66z"/>
   <path class="fil0" d="M32547.87 96185.6l-886.35 0c-267.11,0 -25.96,15.78 -261.09,-108.27l-296.55 -220.36c-11.03,-10.44 -26.56,-25.79 -37.25,-36.57l-231.3 -285.78c-427.14,-726.58 -461.59,-2569.8 495.53,-3151.03 402.62,-244.29 1153.38,-228.16 1483.03,-9.25 806.09,535.58 923.94,1579.93 767.14,2481.13l-152.65 438.17c-28.26,62.37 -34.87,85.61 -67.37,154.09 -105.13,221.12 -132.03,258.03 -311.32,427.31 -95.8,90.45 -358.41,310.56 -501.81,310.56zm-886.35 738.63c724.2,0 727.17,66.69 1275.99,-127.28 340,-120.15 434.52,-204.49 717.84,-463.88 43.19,-39.46 106.23,-99.95 150.61,-144.93 1219.4,-1236.28 983.68,-4569.06 -1643.23,-4706.86 -374.45,-19.69 -1043.07,179.88 -1342.17,392.01 -395.41,280.35 -652.76,598.71 -871.42,1049.01 -337.62,695.02 -373.43,1776.44 -41.32,2579.73 196.85,476.61 420.35,745.59 853.94,1066.41 210.26,155.53 634.26,355.78 899.76,355.78z"/>
   <path class="fil0" d="M43848.17 94856.16c0,-885.93 -127.19,-1505.85 462.1,-2196.8 734.64,-861.58 2170.66,-435.29 2469,595.23 173.01,598.03 170.97,554.84 170.97,1232.29 0,308.18 -35.38,95.12 -146.03,592.6 -73.31,329.22 -308.09,693.66 -580.98,896.2 -12.47,9.33 -30.8,21.13 -43.78,30.04 -360.45,248.53 -1021.78,281.71 -1439.67,100.72l-98.26 -49.47c-375.21,-198.89 -501.98,-463.46 -668.03,-882.96l-62.37 -159.27c-69.75,-176.66 -62.96,168.17 -62.96,-158.59zm-886.27 -1107.82c0,1093.05 -35.04,1841.95 909.6,2709.47 675.33,620.26 2010.55,629.93 2742.73,130.42 247.09,-168.51 423.32,-353.32 615.59,-566.13 139.16,-153.92 336.43,-544.4 407.62,-774.1 738.88,-2383.64 -1064.71,-4435.59 -3179.54,-3548.81 -919.87,385.73 -1496.01,1452.74 -1496.01,2049.15z"/>
   <path class="fil0" d="M57216.54 94191.43c0,-426.04 224.26,-1130.05 440.04,-1406.41l170.21 -199.06c106.23,-111.41 98.94,-116.42 240.47,-202.71 1586.38,-966.88 3051.42,1431.1 1958.45,3140.17 -80.01,125.16 -200.5,325.4 -317.94,420.61 -432.83,351.37 -1373.74,351.37 -1806.56,0 -113.7,-92.15 -258.03,-320.4 -347.21,-465.07 -177,-287.14 -337.45,-864.12 -337.45,-1287.53zm-812.53 -295.45c0,756.62 -58.8,948.21 251.5,1668.85l149.68 293.58c359.09,587.76 641.47,748.64 1233.99,981.73 240.81,94.69 -115.4,84.09 211.36,84.09 1011.68,0 1821.33,38.78 2543.24,-1075.83 484.08,-747.37 523.11,-1818.02 286.8,-2640.57 -528.28,-1839.32 -2737.98,-2257.46 -3983,-981.81 -234.1,239.96 -321.42,435.37 -441.73,739.99 -110.82,280.35 -251.84,587 -251.84,929.97z"/>
   <path class="fil0" d="M90822.08 93969.89l-886.35 0 0 -1698.72c396.76,-95.03 865.4,-106.57 1217.02,38.61 318.87,131.69 481.78,500.28 481.78,847.66 0,290.36 14.76,2.38 -106.49,262.78 -175.56,376.99 -540.59,549.67 -705.96,549.67zm-1772.62 -1920.27c0,971.46 -95.8,4072.34 73.91,4800.71 732.77,61.01 816.86,356.29 812.45,-960.01 -3.65,-1142.94 -139.75,-1255.71 369.27,-1255.71 808.38,0 951.61,295.62 1129.2,938.88 49.98,181.07 35.72,254.55 79.93,437.07l90.79 278.48c181.84,676.01 242.08,718.35 915.88,561.29 0,-481.7 -47.86,-377.25 -123.8,-688.65 -99.53,-408.3 -196.09,-933.36 -389.81,-1308.91 -146.45,-284 -221.12,-287.14 -372.75,-513.52 217.98,-297.66 1070.14,-660.99 706.89,-1813.78 -343.31,-1089.49 -1876.57,-1067.77 -2860.33,-930.56 -342.54,47.77 -431.64,91.98 -431.64,454.72z"/>
   <path class="fil0" d="M26639.09 93969.89l-886.27 0 0 -1698.72c1869.86,-447.67 2003.84,1131.57 1248.33,1543.7 -0.34,0.17 -146.03,69.24 -150.36,71.19 -230.96,101.74 108.35,83.83 -211.7,83.83zm-1698.63 -2141.9l0 4800.79c0,460.23 595.23,254.98 738.54,221.55 93.25,-400.41 75.01,-688.57 73.82,-1181.72 -1.53,-714.45 -162.57,-1034 369.36,-1034 372.5,0 696.54,56.85 873.63,308.09l227.06 585.39c80.1,274.58 121.76,540.42 206.61,827.38 243.61,823.31 908.42,638.59 908.42,347.21l-397.7 -1596.47c-225.7,-589.63 -234.1,-387.01 -488.57,-766.97 123.71,-168.94 1110.36,-682.71 700.53,-1881.83 -39.88,-116.76 -195.07,-312.25 -273.9,-391.33l-279.5 -237.58c-519.03,-359.68 -1465.12,-319.63 -2091.92,-246.58 -295.28,34.45 -566.38,-60.84 -566.38,246.07z"/>
   <path class="fil0" d="M13713.98 92640.44c255.32,170.97 246.41,429.86 496.04,1128.86 37.84,105.98 63.98,208.31 86.97,282.3 60.75,196.35 108.78,308.52 155.53,509.19l-1329.45 0c160.88,-335.25 590.9,-1567.96 590.9,-1920.35zm-1772.62 4283.79c598.62,0 555.94,-356.8 831.54,-1162.63 59.4,-173.78 122.61,-263.97 128.63,-536.09 685.85,0 1275.23,-59.23 1846.44,73.82 0,393.37 115.23,500.03 250.99,930.82 203.22,644.95 173.78,694.08 709.19,694.08 271.61,0 221.63,-157.65 221.63,-517l-857.25 -2466.37c-15.61,-46.58 -42.6,-116.92 -58.21,-163.42l-709.52 -2171 -960.18 0 -1485.83 4422.78c-6.11,18.33 -11.71,38.01 -17.9,56.17 -84.51,248.95 -381.32,838.84 100.46,838.84z"/>
   <path class="fil0" d="M70732.65 92640.44c0,393.03 -1.78,272.54 100.63,564.01l292.14 815.76c83.49,217.22 118.11,266.86 124.14,540.59l-1255.54 0c22.15,-265.84 71.95,-275.26 146.28,-518.44l245.39 -714.79c212.64,-578.51 62.96,-496.97 346.96,-687.12zm-2215.8 3988.34c0,326.59 50.74,295.45 443.18,295.45 421.2,0 738.54,-1389.86 738.54,-1624.9 560.02,-130.42 956.1,-73.82 1624.9,-73.82 73.06,0 139.83,-106.15 310.72,354 269.83,726.41 208.65,1344.72 797.18,1344.72 159.52,0 234.87,-11.45 338.98,-111.07 165.46,-158.33 -142.55,-778.25 -209.24,-978.93l-708.93 -2097.6c-6.19,-17.31 -14.17,-36.23 -20.79,-53.12l-729.46 -2077.07 -886.35 0 -764.17 2190.09c-6.02,17.99 -12.39,37.5 -18.58,55.32 -6.11,17.56 -13.58,36.57 -19.86,53.97l-896.11 2722.96z"/>
   <path class="fil0" d="M20730.48 94117.61l0 -1846.44c2066.21,-481.36 1956.84,1360.67 1237.04,1754.13 -302.41,165.29 -727.34,92.32 -1237.04,92.32zm-738.63 -2511.17c-141.11,606.09 -141.11,4637.79 0,5243.88 937.35,218.41 738.63,44.72 738.63,-2067.99 533.03,255.74 1917.3,88.84 2426.15,-1045.2 102.75,-229.27 85.11,109.46 85.11,-210.43 0,-541.35 59.9,-762.3 -181.75,-1221.6l-396.34 -416.02c-939.56,-579.19 -1646.11,-282.64 -2671.79,-282.64z"/>
   <path class="fil0" d="M48648.96 91827.99c0,952.11 911.13,151.88 1443.06,477.2 251.16,153.5 107.93,1242.39 107.93,1590.79l-7.47 2518.72c10.44,760.1 499.52,462.35 820,435.63l0 -4579.16c1817.43,0 1616.58,123.88 1550.99,-664.72l-3102.75 -0.59c-352.3,-3.39 -811.77,-107.93 -811.77,222.14z"/>
   <path class="fil0" d="M74425.54 96702.69c0,170.21 51.33,221.55 221.55,221.55l2437.35 0c364.01,0 441.9,-738.63 73.82,-738.63l-1994.17 0 0 -4579.16 -738.54 0 0 5096.24z"/>
   <path class="fil0" d="M53892.93 91975.72c0,979.44 -96.39,4144.04 73.82,4874.61 467.61,108.95 271.01,108.95 738.63,0l0 -5243.88 -738.63 0c-38.61,165.63 -73.82,169.79 -73.82,369.27z"/>
   <path class="fil0" d="M86390.56 96850.33c303.51,25.29 165.04,73.91 443.18,73.91 172.67,0 369.27,-96.05 369.27,-295.45l0 -5022.34 -812.45 0 0 5243.88z"/>
  </g>
 </g>
</svg>
