<svg id="Layer_1" viewBox="0 0 512 512" xmlns="http://www.w3.org/2000/svg" data-name="Layer 1"><path d="m477.837 471.317c0 11.197-9.078 20.275-20.275 20.275s-20.275-9.078-20.275-20.275 9.078-20.275 20.275-20.275 20.275 9.078 20.275 20.275z" fill="#4eb1fc" fill-rule="evenodd"/><path d="m452.261 490.89c-8.626-2.331-14.974-10.21-14.974-19.574s6.348-17.243 14.974-19.573c8.626 2.331 14.974 10.21 14.974 19.573s-6.348 17.243-14.974 19.574z" fill="#85caff" fill-rule="evenodd"/><circle cx="382.924" cy="482.795" fill="#4eb1fc" r="20.5" transform="matrix(.997 -.071 .071 .997 -33.262 28.36)"/><g fill-rule="evenodd"><path d="m184.302 377.861c-2.765-20.843-12.241-39.045-28.195-54.059-28.243-26.583-45.881-64.308-45.881-106.156 0-80.503 65.26-145.764 145.765-145.764s145.765 65.261 145.765 145.764c0 41.848-17.638 79.573-45.881 106.156-15.953 15.014-25.43 33.215-28.195 54.059-1.006 7.583-7.38 13.167-15.029 13.167h-113.32c-7.649 0-14.023-5.584-15.029-13.167z" fill="#fcdb35"/><path d="m184.302 377.861c-2.765-20.843-12.241-39.045-28.195-54.059-28.243-26.583-45.881-64.308-45.881-106.156 0-75.439 57.308-137.491 130.764-145 73.456 7.509 130.765 69.562 130.765 145 0 41.848-17.638 79.573-45.881 106.156-15.953 15.014-25.43 33.215-28.195 54.059-1.006 7.583-7.38 13.167-15.029 13.167h-83.32c-7.649 0-14.023-5.584-15.029-13.167z" fill="#ffeb87"/><path d="m229.765 458.906h52.45v15.868c0 14.424-11.801 26.225-26.225 26.225s-26.225-11.801-26.225-26.225z" fill="#5d689e"/><path d="m229.765 458.906h36.7v15.868c0 11.683-7.743 21.644-18.35 25.008-10.607-3.364-18.35-13.325-18.35-25.008z" fill="#7986bf"/></g><circle cx="255.991" cy="320.864" fill="#f2671f" r="18.254" transform="matrix(.987 -.16 .16 .987 -48.091 45.148)"/><path d="m251.209 338.484c-7.762-2.101-13.473-9.193-13.473-17.62s5.711-15.519 13.473-17.62c7.762 2.101 13.473 9.193 13.473 17.62s-5.711 15.519-13.473 17.62z" fill="#ff8748" fill-rule="evenodd"/><path d="m255.99 151.652c25.93 0 47.218 19.855 49.5 45.19v10.588h-99v-10.588c2.283-25.335 23.571-45.19 49.5-45.19z" fill="#4eb1fc" fill-rule="evenodd"/><path d="m292.236 207.43h-85.745v-10.588c2.085-23.139 20.024-41.703 42.872-44.748 22.849 3.045 40.788 21.61 42.873 44.748z" fill="#85caff" fill-rule="evenodd"/><circle cx="255.991" cy="126.571" fill="#fdb0a0" r="24.921" transform="matrix(.316 -.949 .949 .316 54.964 329.399)"/><path d="m250.136 150.798c-10.939-2.634-19.067-12.481-19.067-24.227s8.128-21.594 19.067-24.228c10.939 2.634 19.067 12.481 19.067 24.228s-8.128 21.594-19.067 24.227z" fill="#ffcec0" fill-rule="evenodd"/><path d="m322.183 218.627c25.93 0 47.218 19.855 49.5 45.19v10.588h-99v-10.588c2.282-25.335 23.571-45.19 49.5-45.19z" fill="#4eb1fc" fill-rule="evenodd"/><path d="m358.428 274.405h-85.745v-10.588c2.085-23.139 20.024-41.703 42.872-44.748 22.849 3.045 40.788 21.61 42.873 44.748z" fill="#85caff" fill-rule="evenodd"/><circle cx="322.183" cy="193.546" fill="#fdb0a0" r="24.921" transform="matrix(.383 -.924 .924 .383 20.076 417.137)"/><path d="m316.328 217.773c-10.939-2.634-19.067-12.481-19.067-24.227s8.128-21.594 19.067-24.228c10.939 2.634 19.067 12.481 19.067 24.228s-8.128 21.594-19.067 24.227z" fill="#ffcec0" fill-rule="evenodd"/><path d="m189.797 218.627c25.93 0 47.218 19.855 49.5 45.19v10.588h-99v-10.588c2.282-25.335 23.571-45.19 49.5-45.19z" fill="#4eb1fc" fill-rule="evenodd"/><path d="m226.043 274.405h-85.745v-10.588c2.085-23.139 20.024-41.703 42.872-44.748 22.849 3.045 40.788 21.61 42.873 44.748z" fill="#85caff" fill-rule="evenodd"/><circle cx="189.798" cy="193.546" fill="#fdb0a0" r="24.921" transform="matrix(.383 -.924 .924 .383 -61.648 294.829)"/><path d="m183.943 217.773c-10.939-2.634-19.067-12.481-19.067-24.227s8.128-21.594 19.067-24.228c10.939 2.634 19.067 12.481 19.067 24.228s-8.128 21.594-19.067 24.227z" fill="#ffcec0" fill-rule="evenodd"/><path d="m377.399 502.368c-8.626-2.331-14.974-10.21-14.974-19.574s6.348-17.243 14.974-19.573c8.626 2.331 14.974 10.21 14.974 19.573s-6.348 17.243-14.974 19.574z" fill="#85caff" fill-rule="evenodd"/><circle cx="129.056" cy="482.795" fill="#4eb1fc" r="20.5"/><path d="m123.531 502.368c-8.626-2.331-14.974-10.21-14.974-19.574s6.348-17.243 14.974-19.573c8.626 2.331 14.974 10.21 14.974 19.573s-6.348 17.243-14.974 19.574z" fill="#85caff" fill-rule="evenodd"/><circle cx="54.419" cy="471.317" fill="#4eb1fc" r="20.5" transform="matrix(.055 -.998 .998 .055 -419.186 499.588)"/><path d="m48.893 490.89c-8.626-2.331-14.974-10.21-14.974-19.574s6.348-17.243 14.974-19.573c8.626 2.331 14.974 10.21 14.974 19.573s-6.348 17.243-14.974 19.574z" fill="#85caff" fill-rule="evenodd"/><path d="m364.617 267.322h-84.852v-3.239c2.131-21.941 20.312-38.449 42.421-38.449s40.3 16.509 42.431 38.449zm-143.656-66.97c.472-2.183.728-4.439.728-6.763 0-4.699-1.032-9.158-2.863-13.178 7.5-13.323 21.743-21.762 37.172-21.762s29.667 8.44 37.167 21.762c-1.827 4.02-2.858 8.478-2.858 13.178 0 2.323.26 4.579.733 6.763zm11.264 63.73v3.239h-84.842v-3.239c2.126-21.941 20.312-38.449 42.421-38.449s40.296 16.509 42.421 38.449zm-42.421-88.37c9.862 0 17.882 8.021 17.882 17.877s-8.021 17.882-17.882 17.882-17.882-8.021-17.882-17.882 8.021-17.877 17.882-17.877zm66.193-66.984c9.857 0 17.882 8.025 17.882 17.882s-8.025 17.892-17.882 17.892-17.882-8.03-17.882-17.892 8.021-17.882 17.882-17.882zm66.189 66.984c9.862 0 17.892 8.021 17.892 17.877s-8.03 17.882-17.892 17.882-17.878-8.021-17.878-17.882 8.015-17.877 17.878-17.877zm56.399 87.406c-1.268-14.016-7.688-27.007-18.099-36.569-4.733-4.348-10.113-7.809-15.901-10.296 5.852-5.784 9.491-13.814 9.491-22.664 0-17.578-14.311-31.879-31.889-31.879-7.51 0-14.432 2.622-19.883 6.979-6.068-8.589-14.398-15.27-23.936-19.386 5.871-5.794 9.51-13.824 9.51-22.693 0-17.579-14.301-31.88-31.88-31.88s-31.884 14.301-31.884 31.88c0 8.869 3.644 16.899 9.51 22.693-9.534 4.117-17.868 10.797-23.937 19.386-5.451-4.357-12.363-6.979-19.882-6.979-17.579 0-31.885 14.301-31.885 31.879 0 8.85 3.634 16.88 9.486 22.664-5.784 2.487-11.168 5.948-15.901 10.296-10.407 9.563-16.832 22.553-18.094 36.569-.019.212-.029.419-.029.632v10.57c0 3.87 3.133 7.003 6.999 7.003h98.849c3.866 0 6.999-3.133 6.999-7.003v-10.57c0-.212-.01-.419-.029-.632-1.263-14.016-7.688-27.007-18.094-36.569-4.733-4.348-10.117-7.809-15.901-10.296.617-.612 1.205-1.253 1.769-1.904h84.047c.569.651 1.157 1.292 1.769 1.904-5.779 2.487-11.159 5.948-15.901 10.296-10.402 9.563-16.827 22.553-18.09 36.569-.019.212-.029.419-.029.632v10.57c0 3.87 3.133 7.003 6.999 7.003h98.85c3.861 0 6.999-3.133 6.999-7.003v-10.57c0-.212-.01-.419-.029-.632zm-51.28 150.53c0 3.875-3.138 7.003-6.999 7.003h-128.613c-3.866 0-7.003-3.128-7.003-7.003s3.138-6.999 7.003-6.999h128.613c3.861 0 6.999 3.143 6.999 6.999zm-5.288 22.63c0 3.861-3.133 7.004-6.998 7.004h-118.048c-3.866 0-6.999-3.143-6.999-7.004s3.133-6.999 6.999-6.999h118.048c3.866 0 6.998 3.133 6.998 6.999zm-46.803 38.493c0 10.599-8.618 19.227-19.217 19.227s-19.227-8.628-19.227-19.227v-8.869h38.445v8.869zm32.969-22.871h-104.378c-3.866 0-6.999 3.143-6.999 6.999s3.133 7.004 6.999 7.004h18.967v8.869c0 18.321 14.904 33.229 33.225 33.229s33.22-14.908 33.22-33.229v-8.869h18.967c3.87 0 7.003-3.133 7.003-7.004s-3.133-6.999-7.003-6.999zm106.335-315.057c-1.933-3.35-.781-7.635 2.569-9.573l23.319-13.463c3.35-1.928 7.63-.785 9.568 2.565 1.933 3.35.781 7.625-2.569 9.558l-23.329 13.472c-1.099.627-2.299.94-3.49.94-2.42 0-4.772-1.263-6.068-3.499zm-69.563-76.571 13.621-23.58c1.928-3.355 6.208-4.492 9.558-2.559 3.35 1.928 4.487 6.208 2.559 9.558l-13.607 23.579c-1.301 2.251-3.654 3.509-6.073 3.509-1.191 0-2.386-.308-3.499-.94-3.35-1.938-4.492-6.218-2.559-9.568zm-282.935 56.101c1.933-3.35 6.213-4.502 9.563-2.565l23.329 13.463c3.35 1.938 4.497 6.223 2.559 9.573-1.292 2.237-3.649 3.499-6.068 3.499-1.186 0-2.386-.314-3.49-.94l-23.329-13.472c-3.35-1.933-4.497-6.208-2.564-9.558zm186.979-78.06v-27.311c0-3.87 3.133-7.003 6.999-7.003s6.999 3.133 6.999 7.003v27.31c0 3.866-3.133 6.999-6.999 6.999s-6.999-3.133-6.999-6.999zm-107.704 5.379c-1.933-3.35-.785-7.63 2.564-9.558 3.345-1.933 7.63-.795 9.558 2.559l13.617 23.58c1.933 3.35.785 7.63-2.559 9.568-1.104.631-2.309.94-3.494.94-2.42 0-4.772-1.258-6.068-3.509l-13.617-23.579zm316.272 438.83c-6.179 0-11.202-5.032-11.202-11.202s5.023-11.211 11.202-11.211 11.211 5.032 11.211 11.211-5.032 11.202-11.211 11.202zm-106.48-163.819c28.159-26.51 43.669-62.405 43.669-101.052 0-76.523-62.241-138.769-138.759-138.769s-138.764 62.247-138.764 138.769c0 38.647 15.511 74.542 43.679 101.052 17.14 16.137 27.349 35.726 30.332 58.236.55 4.112 3.947 7.09 8.093 7.09h49.661v-38.907c-10.532-3.042-18.253-12.759-18.253-24.259 0-13.92 11.327-25.252 25.252-25.252s25.247 11.332 25.247 25.252c0 11.501-7.722 21.218-18.249 24.259v38.907h49.661c4.14 0 7.538-2.979 8.088-7.09 2.984-22.509 13.193-42.098 30.342-58.236zm-95.09 13.419c-6.203 0-11.255-5.051-11.255-11.26s5.051-11.25 11.255-11.25 11.255 5.047 11.255 11.25-5.052 11.26-11.255 11.26zm138.138 150.67c0 6.179-5.027 11.207-11.207 11.207s-11.202-5.027-11.202-11.207 5.032-11.202 11.202-11.202 11.207 5.027 11.207 11.202zm-253.872 0c0 6.179-5.022 11.207-11.202 11.207s-11.202-5.027-11.202-11.207 5.027-11.202 11.202-11.202 11.202 5.027 11.202 11.202zm-85.84-.27c-6.175 0-11.202-5.032-11.202-11.202s5.028-11.211 11.202-11.211 11.206 5.032 11.206 11.211-5.027 11.202-11.206 11.202zm403.143-36.411c-4.41 0-8.551 1.142-12.161 3.138l-22.09-22.081v-76.981c0-1.856-.728-3.639-2.049-4.95l-40.021-40.016c17.902-25.431 27.513-55.642 27.513-87.57 0-84.239-68.531-152.771-152.762-152.771s-152.765 68.532-152.765 152.771c0 31.928 9.616 62.14 27.513 87.57l-40.021 40.016c-1.311 1.311-2.049 3.094-2.049 4.95v76.981l-22.085 22.081c-3.61-1.996-7.756-3.138-12.166-3.138-13.896 0-25.199 11.308-25.199 25.209s11.303 25.199 25.199 25.199 25.204-11.308 25.204-25.199c0-4.41-1.142-8.56-3.138-12.171l24.134-24.129c1.316-1.321 2.049-3.099 2.049-4.95v-76.981l36.724-36.729c3.711 4.357 7.683 8.551 11.92 12.542 3.601 3.379 6.835 6.946 9.717 10.667l-36.922 36.922c-1.311 1.311-2.049 3.09-2.049 4.95v77.15c-10.503 3.041-18.205 12.739-18.205 24.201 0 13.901 11.308 25.209 25.204 25.209s25.204-11.308 25.204-25.209c0-11.462-7.702-21.16-18.2-24.201v-74.248l32.728-32.733c4.415 8.392 7.288 17.473 8.575 27.171 1.48 11.149 10.72 19.251 21.97 19.251h113.319c11.25 0 20.49-8.103 21.97-19.251 1.282-9.698 4.159-18.769 8.58-27.171l32.718 32.733v74.248c-10.498 3.041-18.2 12.739-18.2 24.201 0 13.901 11.313 25.209 25.204 25.209s25.209-11.308 25.209-25.209c0-11.462-7.702-21.16-18.21-24.201v-77.15c0-1.86-.733-3.639-2.049-4.95l-36.912-36.922c2.877-3.721 6.112-7.288 9.712-10.667 4.237-3.991 8.209-8.184 11.915-12.542l36.724 36.729v76.981c0 1.851.738 3.629 2.049 4.95l24.139 24.129c-2 3.61-3.138 7.76-3.138 12.171 0 13.891 11.298 25.199 25.199 25.199s25.209-11.308 25.209-25.199-11.308-25.209-25.209-25.209z" fill-rule="evenodd"/></svg>