<svg clip-rule="evenodd" fill-rule="evenodd" height="512" image-rendering="optimizeQuality" shape-rendering="geometricPrecision" text-rendering="geometricPrecision" viewBox="0 0 4335 4335" width="512" xmlns="http://www.w3.org/2000/svg"><g id="Layer_x0020_1"><path d="m1261 2171c-275 0-499-224-499-499s224-499 499-499 498 224 498 499-223 499-498 499zm2867 1754h-1265c-74 0-74-115 0-115h1265c75 0 75 115 0 115zm0-328h-1265c-74 0-74-115 0-115h1265c75 0 75 115 0 115zm0-328h-1265c-74 0-74-115 0-115h1265c75 0 75 115 0 115zm0-328h-1265c-74 0-74-116 0-116h1265c75 0 75 116 0 116zm-582-646h-336c-29 0-54-22-57-51l-32-273c-72-27-138-66-198-115l-253 110c-27 11-58 1-73-25l-168-290c-15-26-8-58 16-76l221-164c-13-75-13-153 0-229l-221-164c-24-18-31-50-16-75l168-291c15-25 46-36 73-24l253 109c60-49 126-87 198-115l32-273c3-29 28-51 57-51h336c29 0 54 22 57 51l32 273c72 28 138 66 198 115l253-109c27-12 58-1 73 24l168 291c15 25 8 57-16 75l-221 164c13 76 13 154 0 229l221 165c24 17 31 49 16 75l-168 291c-15 25-46 35-73 24l-253-109c-60 48-126 87-198 114l-32 273c-3 29-28 51-57 51zm-285-115h234l30-258c8-71 112-43 259-176 17-15 41-19 62-10l239 103 116-202c-312-232-217-122-217-340 0-219-95-108 217-341l-116-202-239 103c-65 28-95-77-282-137-21-7-37-26-39-48l-30-259h-234l-30 259c-8 70-113 42-259 175-17 15-41 19-62 10l-239-103-116 202c312 233 217 122 217 341 0 218 95 108-217 340l116 202 239-103c65-28 95 77 282 138 21 6 37 25 39 48zm117-416c-258 0-468-209-468-467s210-468 468-468 468 210 468 468-210 467-468 467zm0-820c-194 0-352 158-352 353 0 194 158 352 352 352s352-158 352-352c0-195-158-353-352-353zm-1646 2267h-35v256c0 32-25 58-57 58h-758c-32 0-58-26-58-58v-256c-32 0-66 3-85-29-26-45-50-90-72-134l-555 494c-35 30-91 9-96-37-86-791 199-1141 398-1287-64-589 124-1098 338-1468 177-306 445-617 509-617 63 0 332 311 508 617 213 369 401 876 339 1464 200 145 485 495 399 1287-5 46-61 67-96 37l-555-494c-23 46-48 92-74 138-10 18-30 29-50 29zm-1117-271c-92-203-151-400-183-589-161 142-350 437-311 1028zm1475-593c-32 189-90 386-182 589l494 439c39-592-151-887-312-1028zm-1267 748h875c167-296 256-581 290-848-1-8 0-18 3-26 120-1034-575-1798-730-1953-156 155-853 921-731 1957 4 9 5 18 4 27 34 266 123 549 289 843zm116 315h643v-199h-643zm95 660c-32 0-58-26-58-58v-386c0-75 116-75 116 0v386c0 32-26 58-58 58zm227 132c-32 0-58-26-58-58v-387c0-74 115-74 115 0v387c0 32-26 58-57 58zm226-132c-31 0-57-26-57-58v-386c0-75 115-75 115 0v386c0 32-26 58-58 58zm-226-2781c-212 0-384 172-384 383s172 383 384 383c211 0 383-172 383-383s-172-383-383-383z" fill="#333"/><path d="m877 1672c0 211 172 383 384 383 211 0 383-172 383-383s-172-383-383-383c-212 0-384 172-384 383z" fill="#ccc"/><path d="m762 1672c0-275 224-499 499-499s498 224 498 499-223 499-498 499-499-224-499-499zm1229 549c120-1034-575-1798-730-1953-156 155-853 921-731 1957 4 9 5 18 4 27 34 266 123 549 289 843h875c167-296 256-581 290-848-1-8 0-18 3-26z" fill="#ffa721"/><path d="m3378 1764c-258 0-468-209-468-467s210-468 468-468 468 210 468 468-210 467-468 467zm-823-127 116 202 239-103c65-28 95 77 282 138 21 6 37 25 39 48l30 258h234l30-258c8-71 112-43 259-176 17-15 41-19 62-10l239 103 116-202c-312-232-217-122-217-340 0-219-95-108 217-341l-116-202-239 103c-65 28-95-77-282-137-21-7-37-26-39-48l-30-259h-234l-30 259c-8 70-113 42-259 175-17 15-41 19-62 10l-239-103-116 202c312 233 217 122 217 341 0 218 95 108-217 340z" fill="#db5656"/><g fill="#ff3131"><path d="m1582 3211h-643v199h643z"/><path d="m1908 2936 494 439c39-592-151-887-312-1028-32 189-90 386-182 589z"/><path d="m121 3379 494-439c-92-203-151-400-183-589-161 142-350 437-311 1028z"/></g></g></svg>