<svg height="512" viewBox="0 0 64 64" width="512" xmlns="http://www.w3.org/2000/svg"><g id="Monitoring"><rect fill="#57a4ff" height="38" rx="4" width="54" x="5" y="15"/><path d="m9 19h46v30h-46z" fill="#ffdaaa"/><path d="m26 49h29v-30c0 16.582-12.971 30-29 30z" fill="#ffc477"/><path d="m3 53h58a0 0 0 0 1 0 0v4a4 4 0 0 1 -4 4h-50a4 4 0 0 1 -4-4v-4a0 0 0 0 1 0 0z" fill="#006df0"/><path d="m55 15h-2a4 4 0 0 1 4 4v30a4 4 0 0 1 -4 4h2a4 4 0 0 0 4-4v-30a4 4 0 0 0 -4-4z" fill="#2488ff"/><path d="m59 53v4a4 4 0 0 1 -4 4h2a4 4 0 0 0 4-4v-4z" fill="#005ece"/><path d="m29 57h6a2 2 0 0 0 2-2v-2h-10v2a2 2 0 0 0 2 2z" fill="#ffcd00"/><path d="m40 32.86a16 16 0 1 1 5.86-21.86 16.016 16.016 0 0 1 -5.86 21.86z" fill="#ff9811"/><path d="m38 29.39a12 12 0 1 1 4.39-16.39 12.01 12.01 0 0 1 -4.39 16.39z" fill="#ffcd00"/><path d="m45.232 37.919-3.464 2-1.732 1 6.914 11.975a4 4 0 0 0 5.464 1.464 4 4 0 0 0 1.464-5.464l-6.914-11.975z" fill="#004fac"/><path d="m36 14h3v10h-3z" fill="#5eac24"/><path d="m30 17h3v7h-3z" fill="#006df0"/><path d="m24 20h3v4h-3z" fill="#ed1c24"/><g fill="#ff5023"><path d="m41.569 31.812a14.847 14.847 0 0 1 -3.258 1.881l-.1.059 3.56 6.167 3.464-2-3.56-6.167z"/><path d="m15 42h2a1 1 0 0 0 0-2h-2a1 1 0 0 0 0 2z"/><path d="m21 42h15a1 1 0 0 0 0-2h-15a1 1 0 0 0 0 2z"/><path d="m15 38h2a1 1 0 0 0 0-2h-2a1 1 0 0 0 0 2z"/><path d="m21 38h4a1 1 0 0 0 0-2h-4a1 1 0 0 0 0 2z"/><path d="m15 46h2a1 1 0 0 0 0-2h-2a1 1 0 0 0 0 2z"/><path d="m21 46h15a1 1 0 0 0 0-2h-15a1 1 0 0 0 0 2z"/></g></g></svg>