<?xml version="1.0" encoding="iso-8859-1"?>
<!-- Generator: Adobe Illustrator 28.0.0, SVG Export Plug-In . SVG Version: 6.00 Build 0)  -->
<svg xmlns="http://www.w3.org/2000/svg" xmlns:xlink="http://www.w3.org/1999/xlink" version="1.1" id="Layer_1" x="0px" y="0px" viewBox="0 0 512 512" style="enable-background:new 0 0 512 512;" xml:space="preserve">
<g>
	<g>
		<path style="fill:#FCFCFF;" d="M450.655,118.218c0,0-1.936-14.701,12.214-9.944c14.15,4.757,9.539,18.216,4.145,13.61    c-5.395-4.606,4.727-20.227,15.555-13.271c10.828,6.956,8.406,20.453,0.726,21.449c-7.681,0.996,4.65-15.715,14.325-5.395    c9.675,10.321-11.449,29.137-20.088,22.219c-8.639-6.918-1.878-18.084,0.194-11.279s-3.516,13.478-18.838,13.215    c-15.322-0.264-8.348-23.837-2.992-16.975c5.356,6.862-3.536,14.606-14.344,6.523    C430.742,130.286,443.072,113.574,450.655,118.218z"/>
		<path style="fill:#241726;" d="M459.734,149.917c-0.286,0-0.574-0.002-0.866-0.006c-5.057-0.087-8.618-2.666-9.889-7.117    c-2.45-0.319-5.21-1.406-8.08-3.553c-6.285-4.7-5.549-12.038-2.031-17.227c2.534-3.738,6.762-6.497,10.607-5.481    c-0.002-2.332,0.44-6.327,3.222-8.617c2.411-1.987,5.951-2.213,10.519-0.674c2.1,0.704,3.765,1.572,5.086,2.508    c3.619-3.757,9.246-5.657,14.856-2.055c5.472,3.515,7.559,8.387,7.79,12.521c2.686,0.119,5.276,1.37,7.467,3.706    c4.43,4.725,3.465,11.916-2.46,18.32c-5.356,5.789-13.874,9.676-19.103,5.493c-0.669-0.536-1.259-1.102-1.772-1.689    C471.68,148.568,466.383,149.917,459.734,149.917z M451.292,142.871c0.889,2.408,2.952,4.781,7.613,4.861    c6.581,0.083,11.762-1.093,14.888-3.434c-1.857-3.068-2.003-6.423-1.09-8.91c0.689-1.881,1.925-3.04,3.259-2.989    c0.725,0.021,2.053,0.423,2.805,2.891c0.931,3.06,0.434,6.083-1.4,8.515c-0.206,0.274-0.429,0.538-0.666,0.796    c0.43,0.489,0.93,0.97,1.511,1.434c3.999,3.206,11.492-0.245,16.143-5.272c4.048-4.374,6.822-10.706,2.469-15.35    c-2.039-2.174-4.093-2.957-5.925-3.038c-0.051,0.5-0.13,0.979-0.232,1.434c-0.914,4.064-3.685,6.874-7.233,7.334    c-2.539,0.328-3.281-1.004-3.487-1.591c-0.747-2.132,1.452-5.566,4.901-7.657c1.289-0.783,2.609-1.289,3.927-1.528    c-0.189-3.54-2.005-7.759-6.795-10.836c-4.745-3.049-9.17-1.247-11.997,1.615c2.782,2.706,3.274,5.595,3.356,6.725    c0.185,2.57-0.816,4.798-2.551,5.674c-1.399,0.704-3.034,0.404-4.482-0.832c-3.072-2.623-2.035-7.612,0.594-11.28    c-1.133-0.783-2.567-1.515-4.379-2.126c-3.806-1.276-6.644-1.183-8.436,0.289c-3.08,2.528-2.358,8.421-2.351,8.48    c0.054,0.415-0.135,0.826-0.487,1.053c-0.354,0.228-0.805,0.234-1.162,0.017c-3.081-1.891-7.069,0.63-9.415,4.089    c-2.936,4.332-3.601,10.423,1.532,14.261c2.272,1.7,4.432,2.649,6.349,3.034c-0.451-4.538,1.286-9.48,3.955-10.723    c0.702-0.332,2.518-0.847,4.247,1.368c2.468,3.162,2.463,6.838-0.014,9.366C455.483,141.824,453.591,142.707,451.292,142.871z     M475.9,134.577c-0.152,0-0.718,0.379-1.152,1.559c-0.525,1.434-0.738,4.015,0.669,6.625c0.072-0.089,0.143-0.179,0.212-0.268    c1.423-1.889,1.788-4.159,1.054-6.57C476.341,134.801,475.899,134.616,475.9,134.577z M453.811,131.684    c-0.177,0-0.305,0.06-0.385,0.098c-1.55,0.721-3.219,4.883-2.658,8.951c1.898-0.051,3.429-0.708,4.416-1.715    c1.69-1.728,1.634-4.219-0.148-6.502C454.51,131.844,454.099,131.684,453.811,131.684z M488.675,122.608    c-1.068,0.268-1.991,0.719-2.697,1.147c-2.897,1.757-4.238,4.319-3.974,5.074c0.05,0.14,0.46,0.238,1.15,0.151    c2.617-0.338,4.681-2.504,5.387-5.649C488.594,123.097,488.639,122.857,488.675,122.608z M468.583,112.825    c-2.26,3.217-2.641,6.71-0.862,8.231c0.536,0.457,1.336,0.923,2.084,0.543c0.752-0.379,1.499-1.66,1.361-3.572    C471.103,117.153,470.72,114.968,468.583,112.825z"/>
	</g>
	<g>
		<path style="fill:#FCFCFF;" d="M66.143,461.571c0,0-1.937-14.701,12.214-9.944c14.15,4.757,9.539,18.216,4.145,13.61    c-5.395-4.606,4.727-20.227,15.555-13.271c10.828,6.956,8.406,20.453,0.726,21.449c-7.681,0.996,4.649-15.715,14.325-5.395    c9.675,10.321-11.449,29.137-20.088,22.219c-8.639-6.918-1.878-18.084,0.194-11.279c2.072,6.805-3.516,13.478-18.838,13.215    c-15.322-0.264-8.348-23.837-2.992-16.975c5.356,6.862-3.536,14.606-14.344,6.523C46.23,473.639,58.56,456.927,66.143,461.571z"/>
		<path style="fill:#241726;" d="M75.221,493.27c-0.286,0-0.574-0.002-0.866-0.006c-5.057-0.087-8.618-2.666-9.89-7.115    c-2.449-0.319-5.21-1.406-8.079-3.553c-6.286-4.702-5.549-12.042-2.03-17.231c2.534-3.736,6.763-6.493,10.606-5.476    c-0.002-2.332,0.44-6.33,3.222-8.619c2.412-1.983,5.952-2.211,10.519-0.674c2.099,0.704,3.764,1.572,5.085,2.508    c3.622-3.757,9.25-5.653,14.857-2.055c5.471,3.515,7.558,8.387,7.79,12.521c2.686,0.119,5.276,1.37,7.467,3.706    c4.43,4.725,3.465,11.914-2.458,18.318c-5.356,5.791-13.872,9.687-19.106,5.498c-0.669-0.536-1.258-1.102-1.772-1.689    C87.166,491.921,81.871,493.27,75.221,493.27z M66.78,486.223c0.889,2.408,2.952,4.781,7.614,4.861    c6.598,0.089,11.76-1.094,14.888-3.434c-1.858-3.068-2.003-6.423-1.09-8.91c0.679-1.851,1.9-2.989,3.198-2.989    c0.02,0,0.042,0.002,0.062,0.002c0.726,0.019,2.053,0.423,2.805,2.889c0.931,3.059,0.434,6.085-1.401,8.517    c-0.206,0.272-0.428,0.538-0.666,0.796c0.43,0.489,0.931,0.97,1.511,1.434c4.001,3.204,11.492-0.247,16.145-5.274    c4.047-4.376,6.821-10.706,2.468-15.35c-2.038-2.174-4.093-2.957-5.925-3.038c-0.051,0.5-0.13,0.981-0.233,1.436    c-0.913,4.064-3.684,6.874-7.232,7.334c-2.538,0.319-3.282-1.006-3.487-1.594c-0.747-2.132,1.453-5.566,4.902-7.659    c1.288-0.781,2.609-1.287,3.926-1.525c-0.19-3.54-2.006-7.759-6.797-10.836c-4.744-3.051-9.17-1.249-11.997,1.615    c2.783,2.706,3.276,5.598,3.357,6.727c0.185,2.57-0.816,4.796-2.551,5.672c-1.402,0.706-3.035,0.404-4.482-0.832    c-3.072-2.621-2.036-7.612,0.594-11.28c-1.134-0.783-2.567-1.515-4.378-2.126c-3.812-1.276-6.648-1.183-8.44,0.294    c-3.088,2.543-2.354,8.417-2.347,8.476c0.055,0.417-0.134,0.828-0.486,1.055c-0.353,0.23-0.805,0.234-1.163,0.017    c-3.077-1.889-7.069,0.628-9.415,4.087c-2.937,4.332-3.603,10.423,1.531,14.263c2.272,1.7,4.432,2.647,6.349,3.032    c-0.452-4.536,1.286-9.478,3.955-10.723c0.699-0.323,2.518-0.845,4.247,1.37c2.468,3.161,2.463,6.836-0.013,9.363    C70.97,485.176,69.079,486.061,66.78,486.223z M91.388,477.93c-0.151,0-0.718,0.379-1.152,1.562    c-0.525,1.432-0.739,4.015,0.668,6.623c0.073-0.087,0.144-0.176,0.212-0.268c1.424-1.887,1.789-4.159,1.055-6.57    C91.829,478.155,91.376,477.906,91.388,477.93z M69.299,475.039c-0.177,0-0.306,0.06-0.385,0.098    c-1.55,0.721-3.22,4.883-2.66,8.948c1.899-0.049,3.43-0.708,4.417-1.715c1.69-1.727,1.634-4.217-0.148-6.5    C69.998,475.196,69.586,475.039,69.299,475.039z M104.164,465.96c-1.069,0.268-1.991,0.719-2.697,1.147    c-2.897,1.757-4.239,4.321-3.975,5.074c0.051,0.145,0.463,0.24,1.15,0.153c2.616-0.338,4.681-2.504,5.387-5.649    C104.082,466.452,104.126,466.209,104.164,465.96z M84.07,456.178c-2.259,3.217-2.64,6.71-0.861,8.232    c0.537,0.455,1.334,0.934,2.084,0.543c0.752-0.379,1.499-1.66,1.361-3.572C86.591,460.507,86.208,458.32,84.07,456.178z"/>
	</g>
	<g>
		<path style="fill:#241726;" d="M114.427,60.95c-0.236,0.213-0.563,0.318-0.902,0.257c-0.127-0.023-12.929-3.997-13.214-5.838    c-0.178-1.123-0.268-1.683,14.143-5.298c0.582-0.147,1.175,0.207,1.321,0.791c0.147,0.584-0.207,1.177-0.793,1.321    c-4.209,1.057-8.787,2.314-11.207,3.112c3.035,1.318,9.24,3.563,10.153,3.771c0.576,0.131,0.959,0.702,0.841,1.281    C114.718,60.59,114.596,60.797,114.427,60.95z"/>
		<path style="fill:#D65F7B;" d="M129.402,53.963c0,0-8.425-14.778-15.018-8.106c-9.133,9.243-0.268,40.126,23.553,36.089    c23.82-4.037,22.926-24.819,22.926-24.819l-12.428,2.918c0,0,4.451-11.151,0.791-16.697c-3.66-5.547-7.349,2.734-7.349,2.734    s0.602-17.229-5.661-14.654C129.953,34.002,129.402,53.963,129.402,53.963z"/>
		<path style="fill:#241726;" d="M119.764,56.359c-0.231,0.208-0.487,0.375-0.767,0.49c-0.539,0.22-1.104,0.17-1.59-0.137    c-1.549-0.981-1.989-4.932-2.112-7.2c-0.035-0.601,0.427-1.114,1.026-1.148c0.602-0.033,1.115,0.427,1.148,1.028    c0.12,2.16,0.547,4.438,0.954,5.245c0.599-0.672,1.17-2.752,1.332-4.491c0.054-0.598,0.582-1.04,1.185-0.984    c0.6,0.055,1.039,0.584,0.985,1.183C121.821,51.476,121.379,54.904,119.764,56.359z"/>
		<path style="fill:#241726;" d="M145.126,61.557c-0.311,0.28-0.769,0.367-1.175,0.185c-0.55-0.246-0.795-0.89-0.549-1.439    c1.149-2.57,2.535-7.344,1.358-9.222c-0.107-0.173-0.176-0.214-0.177-0.216c-0.558,0.113-2.138,2.479-3.16,4.892    c-0.188,0.436-0.635,0.701-1.105,0.661c-0.474-0.046-0.862-0.391-0.963-0.856c-0.648-3.004-1.697-5.946-2.393-6.816    c-0.82,1.443-1.871,6.86-2.411,11.544c-0.066,0.595-0.606,1.024-1.206,0.958c-0.598-0.069-1.027-0.61-0.958-1.208    c1.526-13.253,3.569-13.553,4.24-13.645c1.579-0.228,2.964,1.717,4.135,5.791c0.978-1.686,2.299-3.365,3.724-3.475    c0.483-0.04,1.404,0.067,2.123,1.215c2.171,3.468-0.867,10.48-1.22,11.267C145.326,61.337,145.235,61.459,145.126,61.557z"/>
		<path style="fill:#241726;" d="M145.705,72.971c-0.002,0.002-0.005,0.004-0.008,0.007c-0.298,0.262-7.394,6.432-16.063,5.39    c-5.281-0.635-9.939-3.803-13.845-9.417c-0.345-0.494-0.227-1.179,0.272-1.516c0.493-0.344,1.172-0.223,1.516,0.272    c3.532,5.076,7.671,7.935,12.301,8.496c7.69,0.933,14.311-4.8,14.376-4.859c0.451-0.398,1.139-0.353,1.538,0.098    C146.187,71.89,146.149,72.571,145.705,72.971z"/>
	</g>
	<g>
		<path style="fill:#241726;" d="M408.925,464.391c0.287,0.138,0.629,0.147,0.938-0.007c0.115-0.058,11.286-7.467,11.043-9.314    c-0.145-1.127-0.216-1.691-15.061-1.113c-0.6,0.023-1.069,0.529-1.046,1.13c0.023,0.602,0.529,1.072,1.132,1.045    c4.337-0.167,9.083-0.246,11.63-0.161c-2.543,2.117-7.868,6.014-8.685,6.471c-0.516,0.288-0.723,0.943-0.447,1.466    C408.544,464.127,408.72,464.292,408.925,464.391z"/>
		<path style="fill:#D65F7B;" d="M392.591,461.891c0,0,3.935-16.549,12.137-11.997c11.361,6.306,11.526,38.436-12.47,41.251    c-23.996,2.815-28.973-17.382-28.973-17.382l12.747-0.69c0,0-7.403-9.452-5.448-15.803c1.955-6.351,7.821,0.56,7.821,0.56    s-5.416-16.366,1.318-15.654C386.456,442.888,392.591,461.891,392.591,461.891z"/>
		<path style="fill:#241726;" d="M402.514,461.484c0.28,0.135,0.572,0.224,0.874,0.255c0.579,0.059,1.107-0.147,1.487-0.578    c1.212-1.377,0.524-5.292,0.005-7.504c-0.135-0.587-0.722-0.95-1.307-0.814c-0.587,0.138-0.95,0.723-0.813,1.309    c0.491,2.107,0.721,4.413,0.557,5.302c-0.764-0.476-1.896-2.313-2.54-3.936c-0.22-0.559-0.851-0.835-1.414-0.612    c-0.56,0.221-0.833,0.853-0.613,1.412C399.168,457.375,400.555,460.541,402.514,461.484z"/>
		<path style="fill:#241726;" d="M379.632,473.596c0.377,0.181,0.841,0.136,1.18-0.152c0.458-0.391,0.513-1.078,0.122-1.535    c-1.824-2.144-4.495-6.336-3.894-8.469c0.054-0.196,0.108-0.255,0.109-0.257c0.567-0.048,2.748,1.779,4.407,3.807    c0.303,0.366,0.807,0.495,1.247,0.324c0.442-0.177,0.718-0.618,0.684-1.092c-0.221-3.065-0.042-6.183,0.383-7.214    c1.193,1.155,3.722,6.059,5.556,10.402c0.231,0.553,0.87,0.813,1.427,0.581c0.554-0.234,0.815-0.874,0.58-1.428    c-5.187-12.291-7.232-12.005-7.902-11.905c-1.579,0.224-2.363,2.48-2.342,6.719c-1.412-1.343-3.151-2.584-4.551-2.29    c-0.475,0.097-1.328,0.459-1.696,1.762c-1.109,3.938,3.775,9.815,4.335,10.471C379.379,473.44,379.5,473.532,379.632,473.596z"/>
		<path style="fill:#241726;" d="M382.282,484.713c0.003,0.001,0.006,0.003,0.01,0.005c0.359,0.168,8.903,4.096,16.93,0.662    c4.89-2.092,8.471-6.441,10.643-12.926c0.192-0.571-0.113-1.195-0.687-1.379c-0.57-0.192-1.188,0.115-1.379,0.687    c-1.965,5.864-5.134,9.769-9.42,11.609c-7.119,3.055-15.083-0.587-15.162-0.626c-0.544-0.255-1.193-0.019-1.448,0.526    C381.515,483.81,381.744,484.454,382.282,484.713z"/>
	</g>
	<path style="fill:#F2C100;" d="M431.545,34.374c0,0,5.948-20.232,7.57-17.762c1.622,2.47,6.489,16.031,6.489,16.031   s17.117,5.77,16.67,6.924c-0.448,1.154-15.36,7.213-15.36,7.213s-4.824,17.6-7.528,15.869c-2.704-1.731-7.388-15.771-7.388-15.771   s-15.323-1.48-13.43-4.972C420.46,38.413,431.545,34.374,431.545,34.374z"/>
	<path style="fill:#F2C100;" d="M17.939,326.166c0,0,5.948-20.232,7.57-17.762c1.622,2.471,6.489,16.031,6.489,16.031   s17.117,5.77,16.67,6.924c-0.447,1.154-15.36,7.213-15.36,7.213s-4.824,17.6-7.528,15.868c-2.704-1.731-7.388-15.771-7.388-15.771   s-15.323-1.48-13.43-4.972C6.854,330.205,17.939,326.166,17.939,326.166z"/>
	<path style="fill:#241726;" d="M68.964,63.181c-0.804,0-1.568,0-3.691-8.453c-7.161-1.38-7.789-2.221-8-2.504   c-0.204-0.271-0.291-0.77-0.198-1.096c0.13-0.458,0.43-1.522,8.614-4.822c2.94-7.663,3.936-7.663,4.6-7.663   c0.342,0,0.817,0.247,1.023,0.522c0.526,0.707,1.002,2.541,1.724,5.478c0.228,0.92,0.5,2.03,0.657,2.519   c0.43,0.191,1.379,0.531,2.166,0.814c4.208,1.508,5.293,2.022,5.489,3.026c0.075,0.377-0.117,0.925-0.402,1.182   c-0.855,0.768-4.923,2.278-7.057,3.037c-3.466,7.886-4.206,7.924-4.862,7.959C69.008,63.181,68.983,63.181,68.964,63.181z    M60.043,51.287c1.432,0.413,4.042,1.005,6.319,1.43c0.419,0.079,0.755,0.396,0.857,0.811c0.583,2.36,1.345,5.048,1.892,6.581   c0.794-1.428,1.996-3.956,2.972-6.191c0.121-0.277,0.351-0.492,0.636-0.592c1.947-0.684,4.142-1.525,5.512-2.124   c-0.959-0.403-2.264-0.871-3.108-1.174c-2.404-0.862-2.857-1.048-3.166-1.464c-0.27-0.362-0.438-0.967-1.036-3.399   c-0.226-0.914-0.57-2.315-0.877-3.364c-0.713,1.362-1.711,3.677-2.487,5.727c-0.108,0.285-0.332,0.513-0.615,0.625   C64.415,49.16,61.547,50.446,60.043,51.287z"/>
	<path style="fill:#241726;" d="M462.045,498.613c-0.804,0-1.568,0-3.691-8.453c-7.161-1.38-7.789-2.221-8-2.504   c-0.204-0.271-0.291-0.77-0.198-1.096c0.13-0.458,0.43-1.522,8.615-4.822c2.94-7.663,3.936-7.663,4.6-7.663   c0.342,0,0.817,0.247,1.023,0.522c0.526,0.707,1.002,2.541,1.724,5.477c0.228,0.92,0.5,2.03,0.657,2.519   c0.43,0.191,1.379,0.531,2.166,0.814c4.208,1.508,5.293,2.022,5.489,3.026c0.075,0.377-0.117,0.925-0.402,1.182   c-0.855,0.768-4.923,2.277-7.057,3.037c-3.466,7.886-4.206,7.924-4.862,7.959C462.089,498.613,462.064,498.613,462.045,498.613z    M453.124,486.719c1.432,0.413,4.042,1.005,6.319,1.43c0.419,0.079,0.755,0.396,0.857,0.811c0.583,2.359,1.345,5.048,1.891,6.581   c0.794-1.428,1.996-3.956,2.972-6.191c0.121-0.278,0.351-0.493,0.636-0.592c1.947-0.684,4.142-1.526,5.512-2.124   c-0.959-0.403-2.264-0.871-3.108-1.174c-2.404-0.862-2.858-1.048-3.166-1.464c-0.27-0.362-0.438-0.967-1.036-3.399   c-0.226-0.914-0.57-2.315-0.877-3.364c-0.713,1.362-1.71,3.678-2.487,5.727c-0.108,0.285-0.332,0.513-0.615,0.625   C457.496,484.592,454.628,485.878,453.124,486.719z"/>
	<path style="fill:#241726;" d="M470.487,334.27h-0.006l-4.214-0.015l4.465-3.027c0.498-0.338,0.628-1.015,0.29-1.513   c-0.34-0.5-1.021-0.624-1.513-0.29l-6.023,4.083l0.133-7.036c0.012-0.602-0.467-1.098-1.069-1.11l-0.006,0   c-0.598-0.008-1.091,0.469-1.103,1.069l-0.118,6.21l-3.683-3.996c-0.409-0.439-1.096-0.472-1.54-0.063   c-0.442,0.407-0.47,1.098-0.063,1.54l3.79,4.111l-6.979-0.024c-0.602-0.001-1.092,0.484-1.093,1.086   c-0.002,0.598,0.477,1.085,1.075,1.093l0.011,0l6.367,0.022l-4.975,3.372c-0.498,0.338-0.628,1.015-0.29,1.513   c0.209,0.307,0.545,0.473,0.887,0.478c0.217,0.003,0.435-0.058,0.626-0.188l5.772-3.913l-0.134,7.089   c-0.012,0.602,0.466,1.098,1.068,1.11h0.007c0.598,0.008,1.091-0.469,1.103-1.069l0.127-6.695l3.926,4.259   c0.212,0.228,0.498,0.347,0.787,0.351c0.268,0.004,0.54-0.091,0.753-0.288c0.441-0.407,0.47-1.098,0.062-1.539l-4.111-4.46   l5.659,0.02c0.602,0.001,1.091-0.484,1.093-1.086C471.567,334.765,471.089,334.278,470.487,334.27z"/>
	<path style="fill:#241726;" d="M43.096,79.475H43.09l-4.214-0.015l4.465-3.027c0.498-0.338,0.628-1.015,0.29-1.513   c-0.34-0.5-1.021-0.624-1.513-0.29l-6.023,4.083l0.134-7.036c0.012-0.602-0.467-1.098-1.069-1.11l-0.006,0   c-0.598-0.008-1.091,0.469-1.103,1.069l-0.118,6.21l-3.683-3.996c-0.409-0.439-1.096-0.472-1.54-0.062   c-0.442,0.407-0.47,1.098-0.063,1.54l3.79,4.111l-6.979-0.024c-0.602-0.002-1.092,0.484-1.093,1.086   c-0.002,0.598,0.477,1.085,1.075,1.093l0.011,0l6.367,0.022l-4.975,3.373c-0.498,0.338-0.628,1.015-0.29,1.513   c0.209,0.307,0.545,0.473,0.887,0.478c0.217,0.003,0.435-0.058,0.626-0.188l5.772-3.913l-0.134,7.089   c-0.012,0.602,0.466,1.098,1.068,1.11h0.007c0.598,0.008,1.091-0.469,1.103-1.069l0.127-6.695l3.926,4.259   c0.212,0.228,0.498,0.347,0.787,0.351c0.268,0.004,0.54-0.091,0.753-0.288c0.441-0.407,0.47-1.098,0.063-1.539l-4.111-4.46   l5.658,0.02c0.602,0.001,1.092-0.484,1.093-1.086C44.177,79.97,43.698,79.483,43.096,79.475z"/>
	<path style="fill:#241726;" d="M41.14,435.408c-0.286,0-0.569-0.085-0.82-0.255c-0.787-0.532-2.936-4.051-5.261-8.463   c-5.737,0.638-10.536,0.857-11.205-0.077c-0.294-0.409-0.367-1.068,0.131-1.619c1.089-1.208,3.651-4.019,6.743-7.238   c-2.238-5.081-3.808-9.657-3.221-11.104c0.282-0.694,0.949-1.062,1.687-0.923c1.392,0.251,5.433,2.211,9.371,4.259   c4.066-3.779,7.825-6.764,9.592-6.802c0.646,0.017,1.087,0.268,1.321,0.506c0.244,0.249,0.355,0.598,0.298,0.94   c-0.506,3.072-1.144,6.742-1.858,10.459c9.534,5.444,9.647,6.419,9.711,6.966c0.056,0.479-0.29,1.07-0.731,1.262   c-0.107,0.047-5.092,0.972-11.162,1.915c-1.325,5.37-2.732,9.502-4.003,10.051C41.539,435.368,41.339,435.408,41.14,435.408z    M37.288,426.426c1.564,2.996,2.981,5.442,3.812,6.472c0.616-1.085,1.421-3.744,2.297-7.31   C41.382,425.888,39.304,426.175,37.288,426.426z M31.698,419.901c-1.664,1.736-3.337,3.523-4.96,5.302   c1.586-0.006,4.214-0.223,7.264-0.557C33.219,423.103,32.436,421.496,31.698,419.901z M33.305,418.239   c0.93,2.051,1.946,4.17,2.941,6.151c2.488-0.296,5.142-0.645,7.674-1.002c0.504-2.189,1.023-4.623,1.535-7.185   c-2.126-1.202-4.372-2.432-6.509-3.566C37.171,414.333,35.257,416.235,33.305,418.239z M47.473,417.356   c-0.389,1.942-0.799,3.868-1.218,5.695c3.43-0.509,6.438-1.002,8.218-1.357C53.053,420.671,50.473,419.09,47.473,417.356z    M29.532,408.084c0.175,1.466,1.305,4.513,2.817,8c1.47-1.502,3.017-3.047,4.551-4.521   C33.716,409.912,30.973,408.595,29.532,408.084z M40.612,411.067c1.402,0.747,2.728,1.466,3.836,2.079   c0.502,0.277,0.984,0.547,1.449,0.806c0.525-2.723,1.035-5.547,1.506-8.336C46.039,406.295,43.592,408.303,40.612,411.067z    M48.205,405.365h0.021H48.205z"/>
	<path style="fill:#241726;" d="M472.617,90.141l-0.024-0.019c-3.169-2.456-3.746-7.033-1.289-10.203   c2.446-3.156,7.011-3.742,10.177-1.309c1.56,1.209,2.54,2.927,2.784,4.855c0.243,1.925-0.278,3.833-1.467,5.367   C480.349,91.986,475.781,92.573,472.617,90.141z M480.217,80.292c-2.268-1.744-5.512-1.326-7.251,0.916   c-1.747,2.253-1.336,5.506,0.915,7.252l0.018,0.014c2.249,1.729,5.494,1.312,7.235-0.93c0.846-1.091,1.217-2.445,1.042-3.816   C482.005,82.357,481.308,81.138,480.217,80.292z"/>
	<path style="fill:#241726;" d="M25.969,473.635l-0.024-0.019c-3.169-2.456-3.746-7.033-1.289-10.203   c2.446-3.156,7.011-3.743,10.177-1.309c1.56,1.209,2.54,2.927,2.784,4.855c0.243,1.925-0.278,3.833-1.467,5.367   C33.701,475.48,29.133,476.067,25.969,473.635z M33.569,463.785c-2.268-1.744-5.512-1.326-7.25,0.916   c-1.747,2.253-1.336,5.506,0.915,7.252l0.018,0.014c2.249,1.729,5.494,1.312,7.236-0.93c0.846-1.091,1.216-2.445,1.042-3.816   C35.357,465.851,34.66,464.631,33.569,463.785z"/>
	<path style="fill:#241726;" d="M365.905,74.904c-0.45,0-0.87-0.281-1.028-0.728c-0.2-0.568,0.099-1.189,0.666-1.389   c1.352-0.474,2.618-1.057,3.763-1.728c0.519-0.3,1.186-0.128,1.491,0.389c0.303,0.519,0.13,1.187-0.389,1.491   c-1.265,0.74-2.658,1.381-4.141,1.902C366.146,74.884,366.025,74.904,365.905,74.904z M373.336,70.487   c-0.288,0-0.577-0.113-0.79-0.34c-0.414-0.436-0.396-1.126,0.04-1.538c0.993-0.943,1.861-2.002,2.577-3.149   c0.318-0.513,0.988-0.668,1.501-0.347c0.51,0.319,0.665,0.989,0.346,1.5c-0.814,1.304-1.798,2.506-2.924,3.574   C373.876,70.387,373.606,70.487,373.336,70.487z M314.211,65.921c-0.54,0-1.009-0.402-1.08-0.951   c-0.076-0.598,0.346-1.143,0.943-1.219c1.085-0.138,1.702-1.27,2.027-2.196c0.2-0.568,0.824-0.868,1.389-0.666   c0.568,0.2,0.866,0.821,0.666,1.389c-0.749,2.125-2.101,3.415-3.806,3.634C314.304,65.919,314.257,65.921,314.211,65.921z    M310.245,64.404c-0.234,0-0.47-0.075-0.669-0.23c-0.612-0.477-1.238-1.051-1.865-1.706c-0.501-0.523-0.957-1.062-1.371-1.613   c-0.361-0.481-0.263-1.164,0.219-1.525c0.482-0.362,1.164-0.262,1.525,0.219c0.361,0.483,0.762,0.953,1.201,1.413   c0.554,0.581,1.102,1.083,1.631,1.494c0.474,0.37,0.559,1.055,0.188,1.53C310.889,64.259,310.569,64.404,310.245,64.404z    M377.907,63.181c-0.11,0-0.22-0.017-0.33-0.051c-0.573-0.183-0.89-0.796-0.708-1.368c0.405-1.277,0.668-2.63,0.781-4.025   c0.05-0.6,0.562-1.036,1.174-0.998c0.599,0.047,1.046,0.572,0.998,1.172c-0.127,1.562-0.421,3.079-0.877,4.51   C378.798,62.885,378.369,63.181,377.907,63.181z M243.105,62.802c-0.843,0-1.792-0.121-2.826-0.36   c-0.586-0.136-0.951-0.721-0.816-1.306c0.136-0.587,0.72-0.951,1.307-0.817c1.565,0.362,2.854,0.398,3.715,0.111   c0.57-0.189,1.188,0.121,1.378,0.692c0.189,0.57-0.12,1.187-0.69,1.376C244.571,62.698,243.876,62.8,243.105,62.802z    M236.427,61.023c-0.169,0-0.341-0.04-0.502-0.123c-1.447-0.753-2.701-1.736-3.729-2.923c-0.394-0.453-0.345-1.143,0.11-1.536   c0.454-0.394,1.141-0.345,1.537,0.111c0.847,0.976,1.886,1.789,3.088,2.417c0.534,0.279,0.74,0.936,0.463,1.47   C237.199,60.811,236.82,61.023,236.427,61.023z M246.994,59.149c-0.6,0-1.087-0.485-1.089-1.085   c-0.003-1.03-0.32-2.345-0.916-3.808c-0.228-0.557,0.04-1.191,0.598-1.419c0.552-0.228,1.194,0.038,1.419,0.598   c0.711,1.743,1.073,3.298,1.078,4.621c0.002,0.602-0.484,1.091-1.085,1.093C246.996,59.149,246.995,59.149,246.994,59.149z    M317.784,58.719c-0.003,0-0.008,0-0.012,0c-0.601-0.006-1.084-0.5-1.078-1.1l0.002-0.294c0.001-1.202-0.104-2.504-0.312-3.874   c-0.09-0.596,0.318-1.151,0.913-1.24c0.59-0.091,1.15,0.319,1.24,0.913c0.225,1.479,0.338,2.894,0.337,4.202l-0.002,0.315   C318.867,58.238,318.38,58.719,317.784,58.719z M305.142,57.477c-0.446,0-0.865-0.277-1.024-0.719   c-0.522-1.449-0.827-2.987-0.903-4.574c-0.029-0.602,0.435-1.113,1.036-1.14c0.559-0.091,1.11,0.432,1.14,1.034   c0.066,1.37,0.327,2.696,0.775,3.94c0.204,0.566-0.089,1.191-0.655,1.396C305.389,57.455,305.264,57.477,305.142,57.477z    M230.844,54.607c-0.445,0-0.863-0.274-1.023-0.717c-0.507-1.394-0.82-2.925-0.931-4.553c-0.04-0.602,0.414-1.121,1.014-1.162   c0.599-0.047,1.12,0.415,1.161,1.013c0.096,1.426,0.366,2.757,0.803,3.957c0.206,0.566-0.085,1.189-0.651,1.396   C231.094,54.585,230.967,54.607,230.844,54.607z M378.645,54.568c-0.546,0-1.016-0.408-1.081-0.962   c-0.157-1.342-0.441-2.717-0.844-4.083c-0.17-0.579,0.16-1.183,0.737-1.353c0.583-0.162,1.183,0.162,1.352,0.736   c0.438,1.485,0.747,2.981,0.918,4.444c0.07,0.598-0.357,1.14-0.955,1.211C378.73,54.566,378.686,54.568,378.645,54.568z    M183.583,54.136c-0.049,0-0.099-0.004-0.149-0.011c-0.596-0.081-1.013-0.63-0.932-1.226c0.011-0.075,0.254-1.828,0.985-4.421   c0.165-0.579,0.767-0.911,1.345-0.753c0.579,0.164,0.916,0.766,0.753,1.345c-0.687,2.436-0.921,4.108-0.923,4.125   C184.586,53.741,184.119,54.136,183.583,54.136z M244.005,51.06c-0.367,0-0.727-0.185-0.931-0.523   c-0.695-1.138-1.504-2.313-2.407-3.493c-0.366-0.477-0.276-1.162,0.202-1.528c0.48-0.364,1.163-0.274,1.528,0.204   c0.95,1.24,1.804,2.481,2.537,3.685c0.314,0.513,0.151,1.183-0.363,1.496C244.393,51.009,244.199,51.06,244.005,51.06z    M316.54,50.115c-0.478,0-0.915-0.317-1.049-0.8c-0.37-1.338-0.821-2.696-1.34-4.032c-0.217-0.56,0.061-1.191,0.621-1.408   c0.559-0.223,1.191,0.06,1.411,0.621c0.545,1.404,1.019,2.83,1.408,4.24c0.161,0.579-0.18,1.179-0.76,1.338   C316.735,50.103,316.637,50.115,316.54,50.115z M304.662,48.892c-0.073,0-0.148-0.006-0.222-0.023   c-0.589-0.121-0.967-0.698-0.846-1.287c0.298-1.434,0.764-2.898,1.387-4.351c0.236-0.553,0.877-0.806,1.431-0.572   c0.552,0.238,0.809,0.879,0.571,1.432c-0.566,1.319-0.988,2.642-1.255,3.934C305.62,48.539,305.167,48.892,304.662,48.892z    M376.221,46.235c-0.411,0-0.804-0.234-0.988-0.63c-0.581-1.247-1.264-2.489-2.03-3.691c-0.322-0.506-0.173-1.181,0.334-1.504   c0.504-0.323,1.179-0.172,1.504,0.334c0.817,1.283,1.546,2.608,2.166,3.942c0.254,0.545,0.018,1.194-0.528,1.447   C376.531,46.203,376.375,46.235,376.221,46.235z M230.159,46.009c-0.05,0-0.102-0.004-0.153-0.011   c-0.596-0.085-1.01-0.636-0.926-1.232c0.203-1.438,0.54-2.923,1.003-4.415c0.179-0.572,0.78-0.902,1.364-0.717   c0.575,0.179,0.896,0.789,0.717,1.364c-0.428,1.379-0.739,2.749-0.927,4.074C231.16,45.616,230.693,46.009,230.159,46.009z    M185.929,45.726c-0.133,0-0.269-0.023-0.4-0.077c-0.56-0.221-0.834-0.853-0.613-1.413c0.562-1.423,1.193-2.793,1.874-4.074   c0.285-0.53,0.941-0.732,1.474-0.449c0.531,0.283,0.732,0.943,0.449,1.474c-0.644,1.206-1.24,2.502-1.772,3.849   C186.773,45.464,186.363,45.726,185.929,45.726z M238.734,44.126c-0.297,0-0.592-0.121-0.807-0.357   c-0.936-1.034-1.945-2.057-2.996-3.047c-0.438-0.413-0.46-1.102-0.048-1.54c0.413-0.44,1.103-0.46,1.539-0.047   c1.093,1.028,2.142,2.094,3.119,3.17c0.403,0.447,0.37,1.134-0.076,1.538C239.257,44.033,238.996,44.126,238.734,44.126z    M313.406,41.997c-0.4,0-0.785-0.221-0.975-0.602c-0.565-1.132-1.181-2.253-1.834-3.338c-0.597,0.77-1.151,1.553-1.653,2.345   c-0.323,0.506-0.995,0.655-1.504,0.334c-0.507-0.323-0.657-0.996-0.334-1.504c0.784-1.232,1.683-2.451,2.672-3.621   c0.386-0.462,1.071-0.519,1.535-0.13c0.19,0.162,0.312,0.372,0.362,0.6c0.218,0.083,0.412,0.234,0.543,0.449   c0.774,1.26,1.502,2.568,2.163,3.891c0.269,0.538,0.05,1.194-0.488,1.462C313.736,41.96,313.569,41.997,313.406,41.997z    M371.564,38.897c-0.315,0-0.627-0.136-0.842-0.398c-0.882-1.072-1.848-2.119-2.869-3.113c-0.431-0.419-0.44-1.109-0.021-1.54   c0.419-0.43,1.108-0.442,1.54-0.021c1.079,1.049,2.099,2.157,3.033,3.291c0.382,0.464,0.315,1.151-0.149,1.532   C372.052,38.816,371.808,38.897,371.564,38.897z M232.389,38.158c-0.239,0-0.481-0.079-0.682-0.24   c-1.128-0.906-2.283-1.764-3.432-2.542c-0.498-0.338-0.628-1.017-0.289-1.515c0.338-0.494,1.017-0.621,1.513-0.289   c0.855,0.581,1.713,1.202,2.561,1.853c0.535-1.089,1.133-2.168,1.783-3.217c0.317-0.513,0.987-0.67,1.5-0.353   c0.512,0.315,0.669,0.987,0.353,1.498c-0.75,1.213-1.426,2.464-2.008,3.719c-0.066,0.14-0.159,0.262-0.268,0.36   c-0.04,0.113-0.1,0.221-0.18,0.321C233.024,38.02,232.708,38.158,232.389,38.158z M190.047,38.061   c-0.221,0-0.445-0.068-0.637-0.206c-0.487-0.353-0.597-1.034-0.245-1.521c0.912-1.262,1.901-2.421,2.94-3.451   c0.426-0.423,1.116-0.419,1.54,0.009c0.423,0.428,0.419,1.117-0.008,1.54c-0.954,0.945-1.865,2.015-2.706,3.179   C190.718,37.903,190.385,38.061,190.047,38.061z M308.847,34.58c-0.333,0-0.661-0.151-0.874-0.438   c-0.845-1.134-1.75-2.245-2.692-3.3c-0.401-0.449-0.362-1.138,0.087-1.538c0.449-0.398,1.138-0.362,1.538,0.087   c0.985,1.104,1.932,2.264,2.814,3.449c0.36,0.483,0.26,1.166-0.222,1.526C309.301,34.51,309.072,34.58,308.847,34.58z    M313.617,34.248c-0.292,0-0.582-0.117-0.797-0.347c-0.411-0.438-0.386-1.128,0.053-1.538c1.073-1.002,2.23-1.966,3.439-2.868   c0.483-0.358,1.165-0.26,1.524,0.223c0.36,0.483,0.26,1.166-0.222,1.525c-1.146,0.853-2.24,1.766-3.254,2.711   C314.15,34.15,313.883,34.248,313.617,34.248z M225.175,33.271c-0.179,0-0.361-0.045-0.529-0.138   c-1.257-0.7-2.539-1.332-3.809-1.881c-0.552-0.238-0.806-0.879-0.568-1.432c0.238-0.553,0.881-0.813,1.432-0.568   c1.336,0.577,2.684,1.243,4.005,1.979c0.526,0.291,0.715,0.955,0.422,1.481C225.929,33.069,225.558,33.271,225.175,33.271z    M365.332,32.827c-0.235,0-0.473-0.077-0.672-0.234c-1.107-0.87-2.272-1.7-3.463-2.462c-0.506-0.323-0.654-0.998-0.33-1.504   c0.323-0.508,0.996-0.655,1.504-0.33c1.25,0.8,2.473,1.67,3.635,2.585c0.473,0.372,0.554,1.057,0.183,1.53   C365.974,32.684,365.655,32.827,365.332,32.827z M196.239,31.997c-0.353,0-0.7-0.172-0.91-0.487   c-0.332-0.502-0.195-1.179,0.306-1.511c1.274-0.845,2.639-1.555,4.054-2.11c0.559-0.226,1.193,0.055,1.413,0.613   c0.22,0.562-0.055,1.194-0.615,1.413c-1.273,0.502-2.501,1.142-3.648,1.902C196.655,31.937,196.446,31.997,196.239,31.997z    M237.26,30.299c-0.234,0-0.471-0.077-0.67-0.232c-0.473-0.37-0.557-1.055-0.186-1.53c0.914-1.168,1.903-2.302,2.94-3.368   c0.417-0.43,1.109-0.442,1.54-0.021c0.431,0.419,0.44,1.108,0.021,1.54c-0.982,1.011-1.92,2.085-2.787,3.194   C237.903,30.157,237.583,30.299,237.26,30.299z M217.181,29.848c-0.103,0-0.209-0.015-0.314-0.047   c-1.364-0.409-2.742-0.726-4.097-0.938c-0.594-0.094-1-0.653-0.905-1.247c0.094-0.594,0.657-0.989,1.246-0.906   c1.45,0.23,2.925,0.568,4.384,1.006c0.576,0.172,0.902,0.779,0.73,1.355C218.083,29.544,217.65,29.848,217.181,29.848z    M320.593,29.048c-0.372,0-0.736-0.192-0.939-0.536c-0.305-0.517-0.134-1.185,0.384-1.491c1.281-0.755,2.614-1.451,3.964-2.068   c0.546-0.251,1.192-0.009,1.443,0.538c0.249,0.549,0.009,1.194-0.539,1.445c-1.28,0.583-2.546,1.245-3.759,1.962   C320.972,28.999,320.781,29.048,320.593,29.048z M204.273,28.835c-0.521,0-0.983-0.374-1.073-0.906   c-0.1-0.594,0.299-1.155,0.893-1.257c1.36-0.23,2.789-0.349,4.246-0.351l0.292,0.002c0.601,0.015,1.077,0.515,1.063,1.115   c-0.015,0.602-0.447,1.011-1.116,1.064l-0.237-0.002c-1.335,0.002-2.642,0.111-3.884,0.321   C204.394,28.831,204.333,28.835,204.273,28.835z M358.013,28.125c-0.169,0-0.34-0.038-0.501-0.123   c-1.241-0.645-2.542-1.247-3.865-1.794c-0.555-0.23-0.82-0.866-0.591-1.421c0.23-0.557,0.872-0.823,1.423-0.591   c1.381,0.57,2.738,1.2,4.037,1.874c0.534,0.277,0.742,0.934,0.465,1.468C358.787,27.91,358.406,28.125,358.013,28.125z    M303.052,28.087c-0.267,0-0.534-0.098-0.744-0.294c-1.039-0.97-2.128-1.902-3.237-2.766c-0.474-0.37-0.558-1.055-0.188-1.53   c0.367-0.472,1.053-0.562,1.529-0.189c1.16,0.904,2.299,1.879,3.384,2.893c0.439,0.411,0.463,1.1,0.052,1.54   C303.633,27.97,303.343,28.087,303.052,28.087z M328.508,25.442c-0.457,0-0.883-0.289-1.034-0.747   c-0.189-0.572,0.121-1.187,0.691-1.377c1.429-0.472,2.883-0.866,4.321-1.17c0.595-0.117,1.167,0.251,1.291,0.84   c0.124,0.589-0.252,1.168-0.84,1.291c-1.361,0.287-2.736,0.66-4.087,1.106C328.736,25.425,328.62,25.442,328.508,25.442z    M349.957,24.846c-0.1,0-0.201-0.013-0.301-0.042c-1.347-0.385-2.733-0.689-4.12-0.904c-0.595-0.091-1.002-0.649-0.91-1.243   c0.093-0.594,0.648-1.004,1.244-0.911c1.477,0.23,2.952,0.553,4.386,0.964c0.578,0.166,0.913,0.768,0.748,1.347   C350.866,24.536,350.43,24.846,349.957,24.846z M243.321,24.053c-0.313,0-0.622-0.134-0.837-0.392   c-0.386-0.462-0.323-1.149,0.138-1.534c1.147-0.957,2.353-1.857,3.585-2.677c0.499-0.334,1.176-0.2,1.51,0.302   c0.334,0.502,0.198,1.179-0.303,1.51c-1.167,0.777-2.309,1.63-3.396,2.536C243.814,23.97,243.567,24.053,243.321,24.053z    M337.015,23.651c-0.557,0-1.032-0.426-1.084-0.989c-0.054-0.6,0.386-1.13,0.985-1.185c1.484-0.136,2.985-0.185,4.485-0.14   c0.601,0.019,1.074,0.521,1.056,1.123c-0.018,0.602-0.527,1.064-1.122,1.055c-1.413-0.043-2.823,0.002-4.219,0.132   C337.082,23.648,337.048,23.651,337.015,23.651z M296.189,22.74c-0.202,0-0.407-0.055-0.59-0.174   c-1.173-0.76-2.41-1.481-3.676-2.145c-0.532-0.279-0.738-0.936-0.458-1.47c0.279-0.532,0.935-0.736,1.471-0.458   c1.323,0.694,2.618,1.449,3.847,2.243c0.505,0.328,0.65,1.002,0.323,1.506C296.896,22.566,296.546,22.74,296.189,22.74z    M250.558,19.234c-0.394,0-0.773-0.213-0.967-0.587c-0.278-0.532-0.07-1.191,0.463-1.468c1.321-0.687,2.691-1.308,4.074-1.847   c0.558-0.219,1.191,0.06,1.41,0.619c0.218,0.562-0.06,1.194-0.62,1.411c-1.308,0.511-2.606,1.098-3.857,1.749   C250.899,19.193,250.727,19.234,250.558,19.234z M288.488,18.691c-0.14,0-0.282-0.028-0.419-0.083   c-1.307-0.547-2.653-1.045-3.999-1.481c-0.572-0.185-0.886-0.8-0.7-1.372c0.185-0.57,0.798-0.883,1.372-0.7   c1.402,0.455,2.803,0.972,4.165,1.54c0.555,0.232,0.818,0.87,0.586,1.425C289.319,18.44,288.914,18.691,288.488,18.691z    M258.659,16.081c-0.481,0-0.92-0.321-1.051-0.806c-0.156-0.581,0.188-1.179,0.769-1.334c1.435-0.387,2.907-0.696,4.376-0.923   c0.603-0.089,1.151,0.317,1.242,0.911c0.092,0.594-0.316,1.151-0.911,1.243c-1.39,0.215-2.785,0.508-4.142,0.872   C258.848,16.068,258.752,16.081,258.659,16.081z M280.215,16.008c-0.083,0-0.167-0.008-0.251-0.03   c-1.398-0.33-2.805-0.6-4.185-0.802c-0.596-0.089-1.006-0.643-0.919-1.238c0.087-0.594,0.641-0.987,1.236-0.919   c1.441,0.213,2.91,0.496,4.368,0.84c0.586,0.138,0.949,0.726,0.811,1.311C281.155,15.67,280.709,16.008,280.215,16.008z    M271.605,14.753c-0.018,0-0.037,0-0.055-0.002c-1.45-0.07-2.865-0.072-4.247-0.006c-0.647,0.062-1.114-0.434-1.142-1.034   c-0.03-0.6,0.433-1.111,1.034-1.14c1.454-0.077,2.941-0.07,4.464,0.006c0.601,0.03,1.064,0.54,1.034,1.142   C272.662,14.3,272.181,14.753,271.605,14.753z"/>
	<path style="fill:#241726;" d="M194.838,499.484c-0.602,0-1.134-0.487-1.134-1.089s0.443-1.089,1.045-1.089   c1.48,0,2.873-0.072,4.231-0.217c0.615-0.064,1.134,0.37,1.198,0.968c0.064,0.598-0.369,1.134-0.968,1.198   C197.776,499.408,196.305,499.484,194.838,499.484z M190.401,499.252c-0.037,0-0.075-0.002-0.113-0.006   c-1.44-0.147-2.922-0.37-4.404-0.662c-0.59-0.115-0.976-0.687-0.86-1.279c0.116-0.591,0.676-0.985,1.279-0.857   c1.417,0.277,2.833,0.489,4.208,0.632c0.598,0.062,1.034,0.596,0.972,1.194C191.426,498.835,190.953,499.252,190.401,499.252z    M203.388,498.557c-0.498,0-0.948-0.345-1.062-0.851c-0.132-0.587,0.237-1.17,0.824-1.302c1.384-0.311,2.751-0.7,4.062-1.16   c0.569-0.2,1.191,0.1,1.388,0.668c0.199,0.568-0.1,1.189-0.667,1.387c-1.39,0.487-2.839,0.902-4.306,1.232   C203.547,498.548,203.466,498.557,203.388,498.557z M181.858,497.586c-0.097,0-0.196-0.013-0.294-0.04   c-1.463-0.406-2.868-0.842-4.218-1.3c-0.57-0.194-0.876-0.811-0.683-1.381c0.195-0.57,0.815-0.87,1.381-0.683   c1.314,0.445,2.681,0.868,4.105,1.266c0.58,0.162,0.918,0.762,0.756,1.34C182.772,497.272,182.334,497.586,181.858,497.586z    M259.512,497.152c-0.485,0-0.97-0.009-1.456-0.023c-0.601-0.019-1.073-0.521-1.054-1.123c0.018-0.602,0.54-1.043,1.122-1.055   c1.423,0.049,2.841,0.021,4.248-0.075c0.591-0.059,1.12,0.413,1.161,1.013c0.04,0.602-0.414,1.121-1.014,1.162   C261.52,497.118,260.518,497.152,259.512,497.152z M253.755,496.746c-0.053,0-0.107-0.004-0.163-0.013   c-1.46-0.217-2.936-0.536-4.387-0.943c-0.579-0.162-0.917-0.764-0.754-1.342c0.164-0.579,0.764-0.917,1.343-0.755   c1.364,0.383,2.75,0.681,4.121,0.887c0.595,0.089,1.004,0.642,0.916,1.238C254.75,496.359,254.285,496.746,253.755,496.746z    M266.768,496.548c-0.524,0-0.986-0.379-1.073-0.913c-0.098-0.594,0.304-1.153,0.898-1.251c1.374-0.225,2.774-0.523,4.164-0.885   c0.579-0.151,1.176,0.2,1.328,0.781c0.151,0.583-0.198,1.177-0.781,1.33c-1.452,0.377-2.918,0.687-4.357,0.923   C266.886,496.544,266.826,496.548,266.768,496.548z M211.591,495.684c-0.403,0-0.79-0.223-0.98-0.611   c-0.264-0.54-0.04-1.194,0.5-1.457c1.254-0.613,2.493-1.31,3.685-2.072c0.507-0.328,1.181-0.179,1.504,0.33   c0.324,0.506,0.177,1.181-0.33,1.504c-1.261,0.808-2.574,1.547-3.902,2.196C211.914,495.648,211.751,495.684,211.591,495.684z    M173.62,494.763c-0.139,0-0.281-0.026-0.418-0.083c-1.403-0.583-2.761-1.206-4.032-1.855c-0.536-0.272-0.75-0.928-0.478-1.464   c0.272-0.536,0.928-0.753,1.465-0.477c1.223,0.621,2.529,1.221,3.881,1.783c0.555,0.232,0.819,0.868,0.588,1.423   C174.452,494.51,174.047,494.763,173.62,494.763z M245.388,494.408c-0.139,0-0.281-0.026-0.417-0.083   c-1.349-0.559-2.705-1.211-4.031-1.936c-0.528-0.289-0.721-0.951-0.432-1.479c0.288-0.528,0.951-0.723,1.479-0.432   c1.256,0.687,2.541,1.304,3.818,1.834c0.556,0.23,0.82,0.868,0.589,1.423C246.221,494.155,245.815,494.408,245.388,494.408z    M275.194,494.363c-0.449,0-0.869-0.279-1.027-0.725c-0.201-0.568,0.096-1.189,0.663-1.391c1.319-0.466,2.651-1.002,3.958-1.591   c0.55-0.251,1.194-0.002,1.441,0.547c0.247,0.547,0.002,1.194-0.546,1.44c-1.363,0.613-2.751,1.172-4.126,1.66   C275.438,494.344,275.314,494.363,275.194,494.363z M326.956,492.116c-0.731-0.013-1.452-0.011-2.209-0.034   c-0.602-0.021-1.072-0.526-1.052-1.125c0.02-0.602,0.598-1.081,1.124-1.053c0.732,0.026,1.439,0.034,2.134,0.034   c0.734,0,1.445-0.017,2.134-0.047c0.6-0.075,1.112,0.436,1.138,1.038c0.028,0.6-0.437,1.111-1.038,1.136   C328.465,492.099,327.721,492.116,326.956,492.116z M320.437,491.791c-0.035,0-0.07-0.002-0.106-0.004   c-1.46-0.143-2.941-0.351-4.403-0.617c-0.591-0.109-0.983-0.677-0.874-1.268c0.108-0.591,0.666-0.966,1.268-0.877   c1.401,0.258,2.821,0.458,4.22,0.592c0.599,0.06,1.037,0.591,0.979,1.189C321.465,491.37,320.991,491.791,320.437,491.791z    M333.468,491.655c-0.531,0-0.995-0.387-1.077-0.928c-0.089-0.596,0.321-1.149,0.916-1.238c1.451-0.219,2.829-0.523,4.093-0.904   c0.579-0.176,1.185,0.153,1.357,0.728c0.174,0.576-0.152,1.183-0.728,1.357c-1.365,0.413-2.846,0.74-4.4,0.972   C333.575,491.651,333.521,491.655,333.468,491.655z M218.91,490.997c-0.317,0-0.632-0.138-0.847-0.402   c-0.379-0.468-0.308-1.153,0.16-1.532c1.083-0.881,2.139-1.838,3.139-2.847c0.422-0.426,1.112-0.434,1.54-0.008   c0.427,0.423,0.43,1.113,0.006,1.54c-1.054,1.066-2.169,2.077-3.314,3.004C219.394,490.919,219.151,490.997,218.91,490.997z    M165.866,490.817c-0.197,0-0.395-0.053-0.574-0.164c-1.282-0.798-2.517-1.651-3.67-2.538c-0.478-0.366-0.566-1.051-0.2-1.528   c0.366-0.479,1.05-0.566,1.528-0.2c1.097,0.842,2.271,1.655,3.493,2.415c0.511,0.319,0.667,0.989,0.35,1.5   C166.586,490.634,166.23,490.817,165.866,490.817z M283.131,490.787c-0.383,0-0.755-0.202-0.954-0.562   c-0.292-0.526-0.101-1.189,0.426-1.481c1.24-0.687,2.468-1.434,3.648-2.217c0.498-0.334,1.177-0.2,1.511,0.304   c0.333,0.5,0.197,1.177-0.304,1.508c-1.229,0.817-2.506,1.596-3.799,2.311C283.49,490.742,283.31,490.787,283.131,490.787z    M237.756,490.234c-0.213,0-0.428-0.062-0.616-0.192c-1.195-0.821-2.389-1.725-3.552-2.689c-0.463-0.383-0.527-1.07-0.143-1.534   c0.383-0.462,1.071-0.526,1.534-0.143c1.112,0.921,2.253,1.787,3.395,2.57c0.496,0.34,0.621,1.019,0.281,1.515   C238.445,490.068,238.103,490.234,237.756,490.234z M311.88,490.217c-0.096,0-0.193-0.013-0.289-0.038   c-1.431-0.394-2.856-0.849-4.235-1.36c-0.565-0.208-0.853-0.834-0.646-1.398c0.21-0.564,0.84-0.853,1.399-0.645   c1.321,0.487,2.687,0.926,4.058,1.3c0.58,0.16,0.921,0.759,0.763,1.338C312.797,489.9,312.357,490.217,311.88,490.217z    M341.742,489.083c-0.39,0-0.767-0.209-0.963-0.577c-0.283-0.532-0.081-1.191,0.45-1.474c1.245-0.662,2.363-1.447,3.324-2.334   c0.444-0.404,1.133-0.374,1.539,0.064c0.407,0.443,0.38,1.132-0.063,1.54c-1.099,1.011-2.369,1.904-3.777,2.653   C342.09,489.042,341.914,489.083,341.742,489.083z M303.713,487.208c-0.154,0-0.312-0.032-0.462-0.102   c-1.333-0.626-2.659-1.319-3.944-2.062c-0.521-0.3-0.7-0.966-0.399-1.487c0.3-0.521,0.967-0.702,1.488-0.398   c1.231,0.711,2.503,1.374,3.781,1.974c0.545,0.255,0.779,0.904,0.523,1.449C304.515,486.976,304.123,487.208,303.713,487.208z    M290.38,485.957c-0.321,0-0.639-0.14-0.854-0.413c-0.375-0.47-0.295-1.155,0.177-1.53c1.122-0.889,2.203-1.83,3.215-2.794   c0.106-0.102,0.23-0.176,0.36-0.228c-0.428-0.332-0.85-0.668-1.267-1.013c-0.465-0.383-0.531-1.068-0.148-1.534   c0.381-0.46,1.07-0.532,1.533-0.147c1.101,0.906,2.245,1.774,3.401,2.574c0.493,0.342,0.617,1.021,0.273,1.517   c-0.341,0.492-1.021,0.613-1.516,0.275c-0.267-0.185-0.534-0.374-0.799-0.566c-0.021,0.258-0.133,0.506-0.335,0.7   c-1.059,1.009-2.189,1.991-3.364,2.921C290.855,485.881,290.617,485.957,290.38,485.957z M158.992,485.493   c-0.273,0-0.548-0.102-0.76-0.309c-1.091-1.062-2.105-2.185-3.013-3.336c-0.372-0.472-0.292-1.157,0.181-1.53   c0.475-0.372,1.157-0.289,1.53,0.181c0.849,1.077,1.798,2.128,2.821,3.123c0.431,0.419,0.44,1.108,0.021,1.54   C159.559,485.383,159.276,485.493,158.992,485.493z M225.033,484.823c-0.238,0-0.479-0.079-0.68-0.238   c-0.469-0.377-0.546-1.062-0.17-1.532c0.887-1.108,1.723-2.268,2.485-3.447c0.327-0.504,1-0.651,1.506-0.323   c0.029,0.019,0.056,0.038,0.082,0.06c0.238,0.04,0.464,0.162,0.635,0.357c0.938,1.081,1.922,2.128,2.925,3.113   c0.429,0.421,0.435,1.111,0.013,1.54c-0.421,0.428-1.111,0.434-1.54,0.013c-0.837-0.821-1.662-1.685-2.458-2.574   c-0.614,0.894-1.266,1.772-1.946,2.623C225.669,484.683,225.353,484.823,225.033,484.823z M348.031,483.225   c-0.19,0-0.384-0.049-0.559-0.155c-0.517-0.309-0.684-0.979-0.374-1.493c0.673-1.125,1.212-2.381,1.597-3.732   c0.166-0.581,0.776-0.915,1.347-0.747c0.579,0.164,0.914,0.768,0.749,1.347c-0.438,1.532-1.052,2.964-1.824,4.251   C348.762,483.036,348.401,483.225,348.031,483.225z M296.673,479.947c-0.252,0-0.505-0.087-0.711-0.264   c-0.456-0.394-0.507-1.081-0.115-1.536c0.946-1.098,1.812-2.225,2.575-3.355c0.336-0.496,1.014-0.632,1.513-0.292   c0.498,0.336,0.629,1.015,0.292,1.513c-0.811,1.198-1.729,2.396-2.729,3.555C297.282,479.819,296.978,479.947,296.673,479.947z    M153.639,478.662c-0.378,0-0.745-0.196-0.946-0.547c-0.757-1.321-1.407-2.7-1.931-4.093c-0.211-0.564,0.074-1.191,0.637-1.402   c0.565-0.215,1.19,0.074,1.403,0.636c0.482,1.285,1.081,2.555,1.78,3.774c0.3,0.523,0.119,1.189-0.403,1.487   C154.009,478.615,153.823,478.662,153.639,478.662z M225.337,478.106c-0.332,0-0.661-0.151-0.874-0.438   c-0.888-1.191-1.736-2.421-2.52-3.659c-0.322-0.508-0.171-1.181,0.337-1.502c0.511-0.321,1.183-0.172,1.503,0.336   c0.754,1.191,1.571,2.376,2.426,3.523c0.36,0.483,0.261,1.164-0.222,1.523C225.791,478.036,225.563,478.106,225.337,478.106z    M229.756,477.513c-0.166,0-0.335-0.038-0.493-0.119c-0.536-0.272-0.75-0.928-0.478-1.464c0.646-1.268,1.224-2.572,1.722-3.876   c0.215-0.564,0.848-0.84,1.406-0.628c0.563,0.215,0.844,0.842,0.63,1.406c-0.525,1.374-1.136,2.749-1.816,4.085   C230.535,477.296,230.153,477.513,229.756,477.513z M289.459,477.317c-0.274,0-0.549-0.102-0.761-0.311   c-1.065-1.038-2.09-2.13-3.05-3.242c-0.393-0.455-0.341-1.142,0.115-1.536c0.453-0.391,1.14-0.342,1.536,0.115   c0.918,1.066,1.901,2.111,2.92,3.106c0.431,0.419,0.439,1.108,0.019,1.54C290.025,477.206,289.742,477.317,289.459,477.317z    M350.479,474.945c-0.027,0-0.053,0-0.08-0.002c-0.6-0.045-1.051-0.566-1.007-1.166c0.043-0.591,0.062-1.179,0.062-1.757   c-0.001-0.83-0.04-1.642-0.108-2.425c-0.052-0.6,0.392-1.128,0.992-1.179c0.602-0.051,1.128,0.391,1.179,0.991   c0.073,0.842,0.115,1.715,0.116,2.611c0,0.632-0.021,1.27-0.068,1.917C351.522,474.507,351.045,474.945,350.479,474.945z    M301.514,472.73c-0.16,0-0.322-0.036-0.475-0.111c-0.542-0.262-0.766-0.915-0.503-1.455c0.636-1.306,1.135-2.611,1.485-3.876   c0.161-0.579,0.769-0.913,1.339-0.762c0.581,0.162,0.921,0.762,0.761,1.34c-0.385,1.396-0.932,2.825-1.625,4.251   C302.307,472.505,301.918,472.73,301.514,472.73z M220.665,470.756c-0.389,0-0.766-0.208-0.963-0.577   c-0.706-1.326-1.356-2.674-1.931-4.008c-0.238-0.553,0.016-1.194,0.569-1.432c0.548-0.24,1.194,0.015,1.431,0.568   c0.552,1.281,1.175,2.574,1.854,3.847c0.283,0.532,0.082,1.191-0.449,1.474C221.012,470.715,220.837,470.756,220.665,470.756z    M283.782,470.72c-0.34,0-0.674-0.157-0.887-0.455c-0.883-1.236-1.695-2.5-2.414-3.759c-0.299-0.523-0.117-1.187,0.405-1.487   c0.522-0.296,1.187-0.115,1.486,0.406c0.683,1.196,1.455,2.398,2.295,3.572c0.35,0.489,0.237,1.17-0.253,1.521   C284.222,470.654,284.001,470.72,283.782,470.72z M150.6,470.541c-0.512,0-0.968-0.362-1.069-0.883   c-0.284-1.483-0.443-3.002-0.468-4.513c-0.011-0.602,0.469-1.098,1.07-1.108c0.582,0.03,1.098,0.468,1.109,1.07   c0.023,1.387,0.168,2.779,0.43,4.138c0.113,0.591-0.273,1.162-0.865,1.276C150.737,470.534,150.668,470.541,150.6,470.541z    M232.847,469.379c-0.089,0-0.18-0.011-0.27-0.034c-0.583-0.149-0.935-0.74-0.786-1.323c0.355-1.398,0.616-2.791,0.774-4.14   c0.069-0.598,0.623-1.021,1.208-0.955c0.598,0.07,1.025,0.613,0.955,1.211c-0.169,1.443-0.448,2.932-0.828,4.421   C233.776,469.052,233.333,469.379,232.847,469.379z M349.776,466.286c-0.502,0-0.953-0.349-1.064-0.86   c-0.521-2.413-1.135-4.017-1.141-4.034c-0.217-0.56,0.063-1.191,0.623-1.406c0.564-0.223,1.191,0.06,1.408,0.621   c0.028,0.072,0.679,1.768,1.239,4.359c0.127,0.587-0.247,1.168-0.835,1.293C349.93,466.277,349.852,466.286,349.776,466.286z    M303.734,464.375c-0.009,0-0.017,0-0.026,0c-0.602-0.015-1.078-0.513-1.064-1.115l0.005-0.372   c0.001-1.251-0.167-2.461-0.499-3.602c-0.168-0.577,0.164-1.181,0.741-1.351c0.576-0.16,1.182,0.164,1.35,0.743   c0.39,1.338,0.587,2.755,0.586,4.21l-0.005,0.423C304.809,463.905,304.325,464.375,303.734,464.375z M279.49,463.15   c-0.426,0-0.83-0.251-1.004-0.668c-0.619-1.474-1.099-2.921-1.428-4.3c-0.139-0.585,0.222-1.174,0.807-1.313   c0.582-0.138,1.172,0.223,1.312,0.806c0.301,1.266,0.745,2.598,1.317,3.964c0.233,0.555-0.028,1.194-0.583,1.425   C279.774,463.122,279.63,463.15,279.49,463.15z M217.24,462.748c-0.463,0-0.892-0.296-1.038-0.759   c-0.479-1.511-0.847-2.979-1.091-4.368c-0.105-0.592,0.29-1.157,0.883-1.262c0.589-0.119,1.157,0.291,1.262,0.883   c0.229,1.294,0.573,2.67,1.023,4.087c0.182,0.574-0.135,1.185-0.708,1.368C217.461,462.731,217.349,462.748,217.24,462.748z    M150.463,461.871c-0.056,0-0.115-0.004-0.172-0.013c-0.595-0.096-0.999-0.653-0.904-1.249c0.238-1.493,0.61-2.976,1.103-4.404   c0.197-0.57,0.815-0.87,1.386-0.675c0.568,0.198,0.87,0.817,0.673,1.385c-0.453,1.311-0.794,2.668-1.012,4.038   C151.452,461.49,150.989,461.871,150.463,461.871z M233.814,460.746c-0.578,0-1.06-0.455-1.087-1.038   c-0.068-1.447-0.275-2.815-0.612-4.064c-0.157-0.581,0.186-1.179,0.766-1.336c0.583-0.153,1.18,0.185,1.336,0.766   c0.38,1.402,0.611,2.928,0.686,4.532c0.028,0.6-0.436,1.111-1.037,1.138C233.849,460.746,233.831,460.746,233.814,460.746z    M301.316,456.167c-0.344,0-0.682-0.162-0.894-0.464c-0.739-1.057-1.671-2.047-2.771-2.945c-0.467-0.381-0.536-1.068-0.155-1.534   c0.379-0.466,1.065-0.536,1.532-0.155c1.256,1.026,2.326,2.164,3.18,3.383c0.345,0.494,0.224,1.172-0.268,1.517   C301.749,456.103,301.532,456.167,301.316,456.167z M277.619,454.703c-0.012,0-0.022,0-0.034,0   c-0.601-0.019-1.074-0.521-1.056-1.121c0.056-1.847,0.485-3.427,1.277-4.704c0.316-0.508,0.989-0.668,1.5-0.351   c0.511,0.317,0.668,0.987,0.351,1.5c-0.586,0.945-0.905,2.164-0.949,3.619C278.69,454.237,278.206,454.703,277.619,454.703z    M215.848,454.182c-0.015,0-0.03,0-0.045,0c-0.601-0.026-1.069-0.532-1.045-1.132c0.073-1.851,0.459-3.425,1.143-4.676   c0.289-0.53,0.95-0.726,1.479-0.434c0.528,0.287,0.722,0.949,0.434,1.477c-0.522,0.957-0.818,2.208-0.879,3.719   C216.912,453.722,216.429,454.182,215.848,454.182z M153.294,453.678c-0.18,0-0.362-0.045-0.53-0.138   c-0.526-0.291-0.714-0.955-0.42-1.481c0.742-1.332,1.603-2.596,2.563-3.76c0.381-0.466,1.067-0.534,1.533-0.149   c0.465,0.383,0.531,1.068,0.148,1.532c-0.876,1.064-1.663,2.221-2.341,3.436C154.047,453.476,153.676,453.678,153.294,453.678z    M231.444,452.465c-0.36,0-0.711-0.177-0.919-0.502c-0.729-1.14-1.633-2.094-2.686-2.834c-0.492-0.345-0.612-1.025-0.266-1.517   c0.346-0.493,1.024-0.611,1.517-0.266c1.288,0.904,2.388,2.062,3.271,3.442c0.323,0.506,0.176,1.181-0.331,1.504   C231.848,452.41,231.645,452.465,231.444,452.465z M294.694,450.631c-0.169,0-0.341-0.04-0.502-0.123   c-0.691-0.36-1.428-0.702-2.21-1.026c-0.564-0.232-1.114-0.44-1.646-0.625c-0.568-0.198-0.868-0.819-0.67-1.387   c0.198-0.57,0.819-0.866,1.387-0.672c0.568,0.198,1.154,0.423,1.758,0.67c0.846,0.351,1.639,0.719,2.386,1.108   c0.534,0.277,0.74,0.936,0.463,1.468C295.468,450.418,295.088,450.631,294.694,450.631z M282.157,448.027   c-0.475,0-0.911-0.313-1.047-0.791c-0.164-0.579,0.172-1.181,0.751-1.347c1.361-0.385,2.929-0.466,4.767-0.208   c0.596,0.083,1.012,0.632,0.929,1.228c-0.083,0.598-0.635,1-1.229,0.93c-1.502-0.202-2.799-0.155-3.873,0.149   C282.355,448.014,282.255,448.027,282.157,448.027z M224.508,447.572c-0.087,0-0.176-0.011-0.264-0.032   c-1.449-0.362-2.739-0.428-3.793-0.168c-0.576,0.134-1.172-0.217-1.314-0.804c-0.142-0.585,0.218-1.172,0.803-1.315   c1.398-0.336,3.035-0.274,4.829,0.172c0.584,0.145,0.939,0.736,0.795,1.319C225.441,447.24,224.996,447.572,224.508,447.572z    M158.821,447.001c-0.314,0-0.624-0.134-0.84-0.396c-0.383-0.462-0.318-1.149,0.145-1.532c1.185-0.981,2.462-1.836,3.797-2.545   c0.529-0.287,1.19-0.081,1.473,0.451c0.282,0.532,0.08,1.191-0.452,1.472c-1.204,0.64-2.358,1.413-3.429,2.298   C159.311,446.919,159.064,447.001,158.821,447.001z M166.376,442.978c-0.455,0-0.856-0.309-1.001-0.779   c-0.177-0.574,0.196-1.196,0.771-1.372c0.046-0.015,0.134-0.036,0.182-0.045c0.594-0.104,1.155,0.3,1.253,0.896   c0.099,0.594-0.302,1.155-0.896,1.253C166.581,442.963,166.477,442.978,166.376,442.978z"/>
	<path style="fill:#EC7F31;" d="M368.907,115.994c0,0,10.857,11.5,14.494,12.889c3.637,1.389,11.789-23.703,26.691-26.164   c0,0,3.565,10.123,6.203,10.102c2.638-0.021,10.662-18.712,11.447-20.108c3.373-6-25.847-19.632-28.158-16.547   c-2.319,3.096,5.426,13.71,5.426,13.71S373.814,90.836,368.907,115.994z"/>
	<path style="fill:#B07398;" d="M110.874,266.894c0,0,6.021,14.625,5.792,18.511c-0.228,3.886-26.454,1.004-34.823,13.578   c0,0,7.763,7.411,6.66,9.807c-1.103,2.396-21.44,2.029-23.036,2.17c-6.856,0.609-7.272-31.632-3.511-32.47   c3.776-0.842,10.269,10.582,10.269,10.582S85.923,261.026,110.874,266.894z"/>
	<g>
		<g>
			<circle style="fill:#51AEA3;" cx="256.294" cy="213.236" r="125.724"/>
			<path style="fill:#241726;" d="M256.295,340.049c-0.602,0-1.089-0.487-1.089-1.089V87.514c0-0.602,0.487-1.089,1.089-1.089     c0.602,0,1.089,0.487,1.089,1.089V338.96C257.384,339.562,256.897,340.049,256.295,340.049z"/>
			<path style="fill:#241726;" d="M382.018,212.146h-48.04c-0.992-14.595-3.777-28.208-7.31-40.262     c-0.494-1.686-1.01-3.35-1.538-5.001c13.106-4.724,26.268-10.921,39.232-18.991c0.511-0.319,0.667-0.992,0.349-1.502     c-0.318-0.506-0.99-0.666-1.5-0.349c-12.804,7.971-25.805,14.125-38.751,18.798c-7.225-21.867-17.145-40.525-25.309-53.765     c5.067-2.435,10.122-5.354,15.116-8.859c0.493-0.345,0.612-1.025,0.266-1.517c-0.345-0.494-1.024-0.613-1.517-0.266     c-4.965,3.485-9.992,6.364-15.031,8.77c-7.61-12.118-13.424-19.23-13.552-19.384c-0.381-0.464-1.068-0.532-1.534-0.147     c-0.463,0.385-0.529,1.07-0.145,1.534c0.125,0.152,5.794,7.087,13.244,18.921c-30.711,13.859-61.617,9.458-81.748,3.534     c8.353-14.174,15.444-22.276,15.577-22.426c0.399-0.451,0.357-1.138-0.093-1.538c-0.451-0.398-1.139-0.36-1.537,0.091     c-0.137,0.154-7.496,8.561-16.091,23.232c-12.462-3.872-20.284-8.115-20.506-8.24c-0.525-0.287-1.189-0.1-1.481,0.423     c-0.292,0.528-0.103,1.189,0.423,1.483c0.223,0.124,8.007,4.351,20.449,8.258c-7.145,12.503-14.952,29.184-20.099,48.959     c-0.603,2.316-1.169,4.713-1.702,7.166c-25.857-5.73-42.373-13.125-42.804-13.323c-0.546-0.253-1.193-0.011-1.445,0.534     c-0.251,0.547-0.011,1.193,0.536,1.445c0.434,0.2,17.137,7.676,43.268,13.463c-2.386,11.644-3.862,24.731-3.595,38.958h-54.578     c-0.602,0-1.089,0.487-1.089,1.089s0.487,1.089,1.089,1.089h54.622c0.469,15.023,2.916,31.277,8.303,48.405     c-11.814,5.484-23.945,12.554-36.241,21.569c-0.486,0.355-0.59,1.038-0.235,1.523c0.214,0.291,0.545,0.445,0.88,0.445     c0.223,0,0.449-0.068,0.643-0.211c12.09-8.863,24.015-15.822,35.631-21.232c4.452,13.604,10.772,27.743,19.446,42.246     c-8.568,3.848-16.379,8.328-23.145,12.758c-0.503,0.33-0.644,1.004-0.315,1.506c0.21,0.321,0.557,0.494,0.913,0.494     c0.204,0,0.412-0.057,0.596-0.179c8.039-5.264,15.736-9.442,23.088-12.728c5.849,9.579,12.694,19.306,20.744,29.142     c0.215,0.264,0.528,0.4,0.844,0.4c0.242,0,0.486-0.081,0.689-0.247c0.465-0.381,0.534-1.066,0.152-1.532     c-7.915-9.67-14.651-19.233-20.416-28.65c41.633-17.833,71.74-6.559,87.467,3.251c-5.967,8.521-13.028,16.988-21.411,25.315     c-0.427,0.423-0.429,1.113-0.004,1.54c0.213,0.215,0.492,0.321,0.772,0.321c0.278,0,0.555-0.106,0.768-0.317     c8.503-8.446,15.664-17.035,21.714-25.678c6.856,4.54,10.503,8.48,10.63,8.623c0.401,0.447,1.091,0.487,1.538,0.083     c0.448-0.4,0.486-1.089,0.085-1.536c-0.268-0.3-3.978-4.374-10.926-9.042c11.509-16.917,18.665-34.021,22.694-50.687     c20.527,7.87,32.874,16.814,33.046,16.94c0.485,0.355,1.168,0.253,1.522-0.234c0.356-0.485,0.252-1.166-0.233-1.523     c-0.174-0.128-12.834-9.311-33.847-17.328c3.396-15.017,4.288-29.651,3.527-43.439h47.907c0.602,0,1.089-0.487,1.089-1.089     S382.62,212.146,382.018,212.146z M192.977,164.54c5.153-19.84,13.01-36.52,20.149-48.942c10.547,3.14,24.073,5.903,39.023,5.903     c14.171,0,29.622-2.508,45.016-9.508c8.118,13.134,18.031,31.735,25.237,53.562c-49.283,17.201-97.581,13.137-131.084,5.977     C191.838,169.14,192.389,166.8,192.977,164.54z M190.872,173.656c16.23,3.466,35.894,6.215,57.463,6.215     c23.338,0,48.904-3.258,74.739-12.265c0.516,1.615,1.02,3.243,1.503,4.891c3.48,11.873,6.224,25.278,7.209,39.649H187.334     C187.064,198.087,188.518,185.157,190.872,173.656z M305.566,309.409c-5.365-3.398-12.361-6.963-20.978-9.535     c-24.672-7.361-48.808-2.382-68.958,6.307c-8.703-14.517-15.027-28.665-19.458-42.265     c41.509-18.753,78.912-17.737,105.362-12.355c9.801,1.996,18.689,4.688,26.485,7.57     C324.056,275.66,316.982,292.628,305.566,309.409z M328.506,256.99c-7.805-2.872-16.678-5.55-26.443-7.544     c-26.769-5.465-64.595-6.519-106.555,12.377c-5.258-16.805-7.661-32.754-8.129-47.498h144.543     C332.673,227.869,331.812,242.241,328.506,256.99z"/>
		</g>
		<path style="fill:#FCFCFF;" d="M341.887,148.056c-0.549,0-1.021-0.413-1.082-0.97c-2.603-23.793-27.285-32.971-27.534-33.06    c-0.566-0.204-0.859-0.83-0.655-1.396c0.203-0.564,0.826-0.855,1.394-0.655c0.262,0.096,26.208,9.71,28.961,34.873    c0.065,0.598-0.366,1.136-0.965,1.202C341.967,148.053,341.926,148.056,341.887,148.056z"/>
		<path style="fill:#FCFCFF;" d="M306.644,159.825c-0.019,0-0.037,0-0.056-0.002c-0.601-0.03-1.063-0.543-1.033-1.143    c0.633-12.489-16.769-35.277-16.946-35.507c-0.367-0.477-0.277-1.162,0.2-1.528c0.475-0.364,1.161-0.277,1.528,0.2    c0.738,0.96,18.068,23.663,17.395,36.945C307.701,159.372,307.22,159.825,306.644,159.825z"/>
		<path style="fill:#FCFCFF;" d="M243.383,168.312c-0.118,0-0.238-0.019-0.356-0.06c-0.568-0.198-0.87-0.817-0.673-1.385    c3.9-11.265,2.843-38.951,2.833-39.23c-0.025-0.6,0.444-1.106,1.045-1.132c0.603-0.002,1.108,0.445,1.132,1.047    c0.047,1.153,1.083,28.375-2.95,40.026C244.256,168.029,243.834,168.312,243.383,168.312z"/>
		<path style="fill:#FCFCFF;" d="M178.313,154.304c-0.569,0-1.048-0.44-1.086-1.017c-1.133-17.091,19.802-36.1,20.694-36.9    c0.445-0.402,1.133-0.366,1.538,0.083c0.402,0.447,0.365,1.136-0.083,1.538c-0.211,0.189-21.038,19.101-19.975,35.135    c0.039,0.6-0.415,1.119-1.015,1.16C178.362,154.304,178.338,154.304,178.313,154.304z"/>
		<path style="fill:#FCFCFF;" d="M322.96,206.106c-0.053,0-0.107-0.004-0.163-0.013c-0.595-0.089-1.005-0.643-0.916-1.238    c1.571-10.485-7.99-26.656-8.087-26.82c-0.309-0.515-0.139-1.185,0.377-1.494c0.52-0.311,1.187-0.138,1.493,0.379    c0.412,0.689,10.057,17.012,8.372,28.258C323.956,205.719,323.491,206.106,322.96,206.106z"/>
		<path style="fill:#FCFCFF;" d="M367.582,194.366c-0.053,0-0.107-0.004-0.163-0.013c-0.595-0.089-1.005-0.643-0.916-1.238    c1.57-10.472-7.99-26.654-8.087-26.818c-0.309-0.517-0.139-1.185,0.377-1.493c0.519-0.306,1.185-0.138,1.493,0.379    c0.412,0.689,10.057,17.012,8.372,28.256C368.578,193.979,368.113,194.366,367.582,194.366z"/>
		<path style="fill:#FCFCFF;" d="M242.291,206.106c-0.547,0-1.018-0.411-1.081-0.966c-0.233-2.034-0.017-19.154-0.008-19.884    c0.008-0.602,0.446-1.091,1.103-1.074c0.602,0.008,1.083,0.502,1.075,1.104c-0.063,4.919-0.187,18.031-0.007,19.608    c0.069,0.598-0.361,1.138-0.958,1.206C242.374,206.104,242.333,206.106,242.291,206.106z"/>
		<path style="fill:#FCFCFF;" d="M173.685,204.504c-0.602,0-1.089-0.487-1.089-1.089c0-6.468,3.366-29.231,3.509-30.197    c0.089-0.594,0.643-1.008,1.237-0.917c0.596,0.087,1.006,0.64,0.918,1.236c-0.035,0.236-3.486,23.569-3.486,29.877    C174.774,204.017,174.287,204.504,173.685,204.504z"/>
		<path style="fill:#FCFCFF;" d="M181.065,257.268c-0.222,0-0.447-0.068-0.639-0.208c-7.61-5.536-7.831-33.654-7.831-36.841    c0-0.602,0.487-1.089,1.089-1.089c0.601,0,1.089,0.487,1.089,1.089c0.001,8.355,1.248,30.943,6.933,35.079    c0.487,0.353,0.595,1.036,0.24,1.521C181.734,257.112,181.403,257.268,181.065,257.268z"/>
		<path style="fill:#FCFCFF;" d="M242.292,239.288c-0.602,0-1.089-0.487-1.089-1.089v-20.12c0-0.602,0.487-1.089,1.089-1.089    c0.602,0,1.089,0.487,1.089,1.089v20.12C243.382,238.8,242.894,239.288,242.292,239.288z"/>
		<path style="fill:#FCFCFF;" d="M320.907,247.062c-0.198,0-0.398-0.053-0.578-0.166c-0.51-0.319-0.664-0.992-0.345-1.502    c1.39-2.219,3.154-19.21,3.939-29.399c0.046-0.6,0.549-1.089,1.17-1.002c0.6,0.045,1.048,0.568,1.002,1.168    c-0.212,2.753-2.133,26.988-4.265,30.39C321.624,246.881,321.27,247.062,320.907,247.062z"/>
		<path style="fill:#FCFCFF;" d="M204.438,302.006c-0.113,0-0.228-0.019-0.34-0.055c-3.848-1.285-13.704-22.965-16.632-29.58    c-0.244-0.549,0.004-1.194,0.554-1.436c0.552-0.247,1.193,0.006,1.437,0.555c5.918,13.361,13.271,27.637,15.331,28.394    c0.559,0.204,0.865,0.826,0.667,1.387C205.297,301.721,204.885,302.006,204.438,302.006z"/>
		<path style="fill:#FCFCFF;" d="M246.275,284.988c-0.023,0-0.048,0-0.071-0.002c-0.601-0.038-1.055-0.557-1.017-1.157    c0.402-6.204-1.351-28.422-1.369-28.645c-0.048-0.6,0.4-1.125,1-1.172c0.609-0.049,1.124,0.398,1.172,0.998    c0.072,0.921,1.783,22.601,1.371,28.96C247.324,284.545,246.844,284.988,246.275,284.988z"/>
		<path style="fill:#FCFCFF;" d="M306.122,293.174c-0.285,0-0.57-0.111-0.784-0.332c-0.417-0.434-0.405-1.123,0.028-1.54    c4.672-4.513,14.43-29.303,14.528-29.552c0.22-0.562,0.853-0.838,1.412-0.617c0.56,0.221,0.836,0.853,0.616,1.413    c-0.408,1.038-10.031,25.484-15.043,30.322C306.668,293.072,306.395,293.174,306.122,293.174z"/>
		<path style="fill:#FCFCFF;" d="M334.379,302.006c-0.436,0-0.848-0.264-1.015-0.694c-0.218-0.562,0.059-1.194,0.619-1.411    c4.032-1.57,13.453-16.495,16.742-22.114c0.304-0.517,0.973-0.689,1.49-0.389c0.519,0.304,0.693,0.972,0.39,1.492    c-1.25,2.134-12.369,20.914-17.831,23.042C334.643,301.983,334.511,302.006,334.379,302.006z"/>
	</g>
	<g>
		<path style="fill:#D65F7B;" d="M466.797,174.044c0,0,68.246,30.598,37.026,91.408c-31.22,60.809-83.598,16.165-83.598,16.165    s-25.614,16.227-33.161,9.855c-7.547-6.372-0.122-25.28-0.122-25.28s-51.636-23.912-18.462-78.405    C400.035,135.956,466.797,174.044,466.797,174.044z"/>
		<g>
			<path style="fill:#EFEBD5;" d="M436.379,208.509c0,0,9.816-13.285,9.163-21.999c-0.653-8.715,31.219,1.006,7.641,28.838     c0,0,15.372-0.621,18.112,11.653s-11.924,7.578-11.924,7.578s10.16,1.191,10.306,10.151c0.146,8.96-11.116,7.811-11.116,7.811     s6.945,5.779,1.902,11.32c-5.043,5.541-34.728,4.163-38.375-8.313c0,0-23.763-4.581-24.265-7.073     c-0.501-2.492,7.032-44.849,12.098-45.148C414.987,203.028,436.379,208.509,436.379,208.509z"/>
			<path style="fill:#413655;" d="M402.522,195.943c0,0,22.809,3.392,23.357,5.204c0.548,1.812-12.058,57.32-14.024,57.596     c-1.966,0.276-24.745-2.181-25.172-5.609C386.258,249.707,396.963,195.058,402.522,195.943z"/>
		</g>
		<path style="fill:#FCFCFF;" d="M494.21,240.173c-0.173,0-0.349-0.04-0.512-0.128c-0.531-0.283-0.732-0.945-0.448-1.474    c12.996-24.358-17.96-41.649-18.274-41.822c-0.528-0.287-0.722-0.951-0.433-1.479c0.289-0.528,0.949-0.721,1.478-0.432    c0.338,0.185,8.346,4.61,14.79,12.304c8.662,10.342,10.171,21.565,4.36,32.454C494.976,239.964,494.599,240.173,494.21,240.173z"/>
	</g>
	<g>
		<g>
			<path style="fill:#EC7F31;" d="M47.303,128.368c0,0-73.062,35.01-37.584,100.001c35.478,64.992,90.972,15.208,90.972,15.208     s23.457,15.771,31.454,8.663c7.998-7.107-0.904-27.64-0.904-27.64s60.326-25.954,22.905-84.052     C118.553,85.288,47.303,128.368,47.303,128.368z"/>
		</g>
		<path style="fill:#EFEBD5;" d="M22.51,174.332c0,0,64.389-48.803,70.068-45.77c5.679,3.032,41.674,57.707,45.14,64.485    c3.465,6.778-74.686,51.964-76.729,48.349C58.945,237.781,18.155,177.603,22.51,174.332z"/>
		<path style="fill:#FCFCFF;" d="M142.538,147.66c-0.447,0-0.865-0.277-1.025-0.721c-8.226-22.886-43.367-23.552-43.72-23.556    c-0.602-0.006-1.084-0.5-1.078-1.102c0.005-0.602,0.49-1.113,1.101-1.077c0.376,0.004,9.31,0.136,19.453,3.23    c13.571,4.14,22.663,11.668,26.295,21.769c0.203,0.566-0.09,1.189-0.658,1.394C142.785,147.639,142.661,147.66,142.538,147.66z"/>
		<path style="fill:#413655;" d="M34.61,177.035c0,0,51.791-32.963,54.595-31.697c2.804,1.266,33.327,38.575,30.966,41.752    c-2.361,3.177-44.671,40.224-50.971,36.916S34.61,177.035,34.61,177.035z"/>
		<path style="fill:#DF4F3E;" d="M59.591,178.971c3.971,8.119,22.063,27.564,23.602,26.045s9.162-28.452,6.012-30.863    C86.056,171.743,59.591,178.971,59.591,178.971z"/>
	</g>
	<g>
		<path style="fill:#F2C100;" d="M69.201,324.333c0,0,347.149-26.725,351.993-11.98c4.844,14.745,0,86.403,0,86.403    s-339.076,22.101-343.92,15.027C72.43,406.71,69.201,324.333,69.201,324.333z"/>
		<path style="fill:#FCFCFF;" d="M100.79,339.921c0,0,24.911,51.368,28.155,52.107c3.243,0.739,16.985-28.652,16.985-28.652    s17.569,30.624,20.813,28.66c3.244-1.964,24.327-53.943,24.327-53.943l-18.38-8.775l-11.352,31.404    c0,0-14.866-19.393-17.299-20.802c-2.433-1.41-12.434,20.802-12.434,20.802s-7.568-31.404-10.812-31.404    S100.79,339.921,100.79,339.921z"/>
		<path style="fill:#FCFCFF;" d="M202.119,338.148c0,0,24.911,51.368,28.155,52.107c3.244,0.739,16.985-28.652,16.985-28.652    s17.569,30.624,20.813,28.66c3.244-1.964,24.327-53.943,24.327-53.943l-18.38-8.775l-11.353,31.404    c0,0-14.866-19.393-17.299-20.802c-2.433-1.41-12.434,20.802-12.434,20.802s-7.568-31.404-10.812-31.404    C218.877,327.546,202.119,338.148,202.119,338.148z"/>
		<path style="fill:#FCFCFF;" d="M303.447,334.816c0,0,24.911,51.368,28.155,52.107c3.244,0.739,16.985-28.652,16.985-28.652    s17.569,30.624,20.813,28.66c3.244-1.964,24.327-53.943,24.327-53.943l-18.38-8.775l-11.353,31.404    c0,0-14.866-19.392-17.299-20.802c-2.433-1.41-12.434,20.802-12.434,20.802s-7.568-31.404-10.812-31.404    S303.447,334.816,303.447,334.816z"/>
	</g>
	<path style="fill:#413655;" d="M436.27,448.014c0,0-37.902-93.234-30.697-91.587c7.205,1.647,89.473,37.091,83.552,42.047   l-23.213,9.784l29.133,22.801c-3.803,5.082-23.303,28.566-23.303,28.566l-22.889-35.193L436.27,448.014z"/>
</g>
<g>
</g>
<g>
</g>
<g>
</g>
<g>
</g>
<g>
</g>
<g>
</g>
<g>
</g>
<g>
</g>
<g>
</g>
<g>
</g>
<g>
</g>
<g>
</g>
<g>
</g>
<g>
</g>
<g>
</g>
</svg>
