<svg id="Capa_1" enable-background="new 0 0 512 512" height="512" viewBox="0 0 512 512" width="512" xmlns="http://www.w3.org/2000/svg"><g><path d="m344.395 18.006h-311.024c-14.349 0-25.982 11.632-25.982 25.982v375.803c0 14.349 11.632 25.982 25.982 25.982h311.024c14.349 0 25.982-11.632 25.982-25.982v-375.803c0-14.349-11.633-25.982-25.982-25.982z" fill="#fdb441"/><path d="m59.256 445.77h-25.887c-14.35 0-25.979-11.63-25.979-25.979v-375.806c0-14.349 11.63-25.979 25.979-25.979h25.887c-14.349 0-25.979 11.63-25.979 25.979v375.806c-.001 14.349 11.629 25.979 25.979 25.979z" fill="#fe9738"/><g><path d="m331.702 392.499v-315.681c0-9.046-7.333-16.378-16.378-16.378h-252.882c-9.046 0-16.378 7.333-16.378 16.378v205.265c0 7.892 3.135 15.461 8.716 21.042l97.037 97.037c5.581 5.581 13.149 8.716 21.042 8.716h142.466c9.044-.001 16.377-7.334 16.377-16.379z" fill="#f5f8f9"/><path d="m160.532 406.204v-95.415c0-9.045-7.335-16.38-16.38-16.38h-95.415c1.469 3.205 3.496 6.169 6.043 8.716l97.037 97.037c2.546 2.546 5.51 4.573 8.715 6.042z" fill="#dedbee"/></g><path d="m285.033 15.165v46.465c0 8.375-6.789 15.165-15.165 15.165h-30.922c-6.871 20.932-26.567 36.044-49.796 36.044s-42.935-15.112-49.796-36.044h-31.458c-8.375 0-15.165-6.789-15.165-15.165v-46.465c.001-8.376 6.79-15.165 15.165-15.165h161.972c8.376 0 15.165 6.789 15.165 15.165z" fill="#fef056"/><path d="m118.33 15.165v46.469c0 8.375 6.788 15.163 15.163 15.163h-25.598c-8.375 0-15.163-6.789-15.163-15.163v-46.469c0-8.375 6.788-15.163 15.163-15.163h25.598c-8.375-.001-15.163 6.788-15.163 15.163z" fill="#ffe177"/><path d="m201.944 111.264c-4.1 1.03-8.385 1.576-12.794 1.576-23.229 0-42.935-15.112-49.796-36.044h10.39c8.404 0 16.141 4.397 20.615 11.512 7.082 11.26 18.336 19.632 31.585 22.956z" fill="#ffe177"/><circle cx="188.882" cy="61.645" fill="#685e68" r="19.271"/><g><path d="m497.632 419.734-18.009-10.394c.677-4.36 1.034-8.838 1.034-13.388 0-4.562-.356-9.028-1.034-13.4l18.009-10.394c6.676-3.849 8.957-12.39 5.108-19.066l-17.51-30.339c-3.861-6.676-12.402-8.957-19.078-5.108l-18.021 10.406c-6.937-5.583-14.742-10.121-23.176-13.388v-20.8c0-7.71-6.248-13.97-13.97-13.97h-35.02c-7.71 0-13.958 6.26-13.958 13.97v20.8c-8.446 3.267-16.251 7.805-23.176 13.388l-18.033-10.406c-6.676-3.849-15.217-1.568-19.066 5.108l-17.51 30.339c-3.861 6.676-1.568 15.217 5.108 19.066l17.997 10.394c-.665 4.372-1.022 8.838-1.022 13.4 0 4.55.356 9.028 1.022 13.388l-17.997 10.394c-6.676 3.861-8.969 12.402-5.108 19.078l17.51 30.328c3.849 6.676 12.39 8.969 19.066 5.108l18.033-10.406c6.926 5.595 14.73 10.133 23.176 13.4v20.8c0 7.71 6.248 13.958 13.958 13.958h35.02c7.721 0 13.97-6.248 13.97-13.958v-20.8c8.434-3.267 16.239-7.805 23.176-13.4l18.021 10.406c6.676 3.861 15.217 1.568 19.078-5.108l17.51-30.328c3.849-6.676 1.568-15.217-5.108-19.078zm-104.156 22.372c-25.49 0-46.154-20.664-46.154-46.154s20.664-46.154 46.154-46.154 46.154 20.664 46.154 46.154-20.664 46.154-46.154 46.154z" fill="#685e68"/><path d="m337.264 327.144-16.461-9.498c-6.675-3.853-15.225-1.566-19.067 5.109l-17.512 30.337c-3.863 6.675-1.566 15.215 5.109 19.067l17.996 10.394c-.67 4.368-1.02 8.838-1.02 13.402 0 4.543.35 9.024 1.02 13.381l-17.996 10.394c-6.675 3.863-8.972 12.403-5.109 19.078l17.512 30.327c3.842 6.675 12.392 8.972 19.067 5.109l16.461-9.498c-11.98-20.139-18.861-43.667-18.861-68.801-.001-25.135 6.88-48.662 18.861-68.801z" fill="#554e56"/></g><g><path d="m294.51 141.034h-136.346c-4.267 0-7.726-3.459-7.726-7.726s3.459-7.726 7.726-7.726h136.346c4.267 0 7.726 3.459 7.726 7.726s-3.459 7.726-7.726 7.726z" fill="#685e68"/><circle cx="102.328" cy="133.307" fill="#fe76a8" r="16.579"/></g><g><path d="m294.51 202.257h-136.346c-4.267 0-7.726-3.459-7.726-7.726s3.459-7.726 7.726-7.726h136.346c4.267 0 7.726 3.459 7.726 7.726s-3.459 7.726-7.726 7.726z" fill="#685e68"/><circle cx="102.328" cy="194.53" fill="#9be69d" r="16.579"/></g><g><path d="m294.51 263.479h-136.346c-4.267 0-7.726-3.459-7.726-7.726s3.459-7.726 7.726-7.726h136.346c4.267 0 7.726 3.459 7.726 7.726s-3.459 7.726-7.726 7.726z" fill="#685e68"/><circle cx="102.328" cy="255.753" fill="#9be69d" r="16.579"/></g></g></svg>