<svg id="Layer_1" height="512" viewBox="0 0 512 512" width="512" xmlns="http://www.w3.org/2000/svg" data-name="Layer 1"><path d="m416.02 166.279a8 8 0 0 0 7.349 0c36.223-18.73 40.27-39.043 39.458-49.485a29.46 29.46 0 0 0 -19.666-25.5c-8.565-2.857-17.14-1.13-23.453 4.587-6.319-5.719-14.892-7.443-23.459-4.587a29.474 29.474 0 0 0 -19.677 25.513c-.812 10.438 3.233 30.747 39.448 49.472zm-23.5-48.233a13.3 13.3 0 0 1 8.789-11.575 9.475 9.475 0 0 1 2.981-.517 6.946 6.946 0 0 1 5.395 2.518l3.988 4.553a8 8 0 0 0 6 2.729h.013a8 8 0 0 0 6-2.709l4.032-4.57a7.382 7.382 0 0 1 8.372-2 13.283 13.283 0 0 1 8.777 11.565c.389 5-1.6 17.809-27.181 32.06-25.566-14.252-27.551-27.06-27.163-32.054zm-266.238 44.866 9.808-36.682a10.75 10.75 0 0 0 -10.365-13.494h-19.609v-15.725a10.747 10.747 0 0 0 -10.716-10.749h-1.22a10.666 10.666 0 0 0 -9.4 5.577l-10.58 19.042a10.9 10.9 0 0 0 -2.5-.3h-12.615a10.96 10.96 0 0 0 -10.948 10.947v36.708a10.961 10.961 0 0 0 10.948 10.948h12.615a10.885 10.885 0 0 0 5.973-1.785l4.149 2.39a8.008 8.008 0 0 0 3.993 1.067h30.075a10.687 10.687 0 0 0 10.392-7.944zm-59.636-9.727h-2.509v-26.6h2.509zm21.308 1.672-5.308-3.057v-23.18l7.47-13.445v5.561a8 8 0 0 0 8 8h20.742l-6.984 26.121zm195.378 313.45a8 8 0 0 1 -8 8h-38.664a8 8 0 0 1 0-16h38.664a8 8 0 0 1 8 8zm8.525-68.171a8.008 8.008 0 1 1 -7.994-7.993 8.02 8.02 0 0 1 7.994 7.993zm-27.864 0a7.993 7.993 0 1 1 -7.993-7.993 8 8 0 0 1 7.993 7.993zm-27.835 0a7.994 7.994 0 1 1 -7.993-7.993 8.02 8.02 0 0 1 7.993 7.993zm174.079-201.529h57.871a31.378 31.378 0 0 0 31.357-31.328v-77.411a31.392 31.392 0 0 0 -31.357-31.356h-64.054v-7.874a42.686 42.686 0 0 0 -42.638-42.638h-210.833a42.671 42.671 0 0 0 -42.609 42.638v7.874h-64.082a31.392 31.392 0 0 0 -31.357 31.356v77.411a31.378 31.378 0 0 0 31.357 31.328h57.873l6.209 6.546v35.93h-64.082a31.379 31.379 0 0 0 -31.357 31.329v77.411a31.378 31.378 0 0 0 31.357 31.328h57.873l6.209 6.546v73.665a42.671 42.671 0 0 0 42.609 42.638h210.833a42.686 42.686 0 0 0 42.638-42.638v-75.762h80.721a14.707 14.707 0 0 0 14.69-14.69v-92.574a14.707 14.707 0 0 0 -14.69-14.69h-80.721v-58.513zm73.228-108.739v77.411a15.36 15.36 0 0 1 -15.357 15.328h-61.308a8 8 0 0 0 -5.807 2.5l-11.793 12.439v-6.939a8 8 0 0 0 -8-8h-9.892a15.36 15.36 0 0 1 -15.357-15.328v-77.411a15.373 15.373 0 0 1 15.357-15.356h96.8a15.373 15.373 0 0 1 15.357 15.356zm-194.746-65.868c-2.817 4.1-4.711 5.826-7.832 5.826h-47.648c-3.542 0-6.479-2.3-9.429-5.826zm-244.827 158.607a15.36 15.36 0 0 1 -15.357-15.328v-77.411a15.373 15.373 0 0 1 15.357-15.356h96.827a15.36 15.36 0 0 1 15.329 15.356v77.411a15.346 15.346 0 0 1 -15.329 15.328h-9.892a8 8 0 0 0 -8 8v6.955l-11.82-12.46a8 8 0 0 0 -5.8-2.5zm0 182.544a15.36 15.36 0 0 1 -15.357-15.328v-77.411a15.361 15.361 0 0 1 15.357-15.329h96.827a15.347 15.347 0 0 1 15.329 15.329v77.411a15.346 15.346 0 0 1 -15.329 15.328h-9.892a8 8 0 0 0 -8 8v6.955l-11.82-12.46a8 8 0 0 0 -5.8-2.5zm317.524 122.849h-210.833a26.654 26.654 0 0 1 -26.609-26.638v-12.749h264.08v12.749a26.668 26.668 0 0 1 -26.638 26.638zm80.949-163.378 41.1-35.513v71zm-22.67-1.558-50.227-43.418h100.475zm-22.651 1.569-41.092 35.507v-71.028zm12.234 10.575 5.185 4.482a8 8 0 0 0 10.462 0l5.2-4.495 39.849 34.405h-100.5zm-21.224-71.562h-33.412a14.707 14.707 0 0 0 -14.69 14.69v92.576a14.707 14.707 0 0 0 14.69 14.69h33.412v47.011h-264.08v-28.049l1.049 1.106a8 8 0 0 0 13.8-5.5v-19.019h1.892a31.363 31.363 0 0 0 31.329-31.328v-77.411a31.364 31.364 0 0 0 -31.329-31.329h-16.741v-19.062l1.049 1.105a8 8 0 0 0 13.8-5.5v-19.019h1.892a31.363 31.363 0 0 0 31.329-31.328v-77.411a31.378 31.378 0 0 0 -31.329-31.356h-16.741v-7.874a26.654 26.654 0 0 1 26.609-26.638h50a6.194 6.194 0 0 1 5.383 2.8l.476.678c5.109 7.306 12.83 18.346 26.8 18.346h47.648c12.835 0 19.009-9.564 23.093-15.893.721-1.116 1.4-2.17 2.092-3.15a6.117 6.117 0 0 1 5.34-2.781h50a26.668 26.668 0 0 1 26.638 26.638v7.874h-16.744a31.392 31.392 0 0 0 -31.357 31.356v77.411a31.378 31.378 0 0 0 31.357 31.328h1.891v19.014a8 8 0 0 0 13.807 5.5l1.046-1.1zm-337.454 28.013a8 8 0 0 1 8-8h67.405a8 8 0 1 1 0 16h-67.405a8 8 0 0 1 -8-8zm75.405 46.917h-67.405a8 8 0 0 1 0-16h67.405a8 8 0 1 1 0 16zm177.941-196.5a8 8 0 1 0 -15.454 4.143l2.225 8.3c-11.675 12.562-25.953 20.99-43.535 25.695l-49.726 13.317a17.819 17.819 0 0 0 -12.623 21.852l9.124 34.029a17.868 17.868 0 0 0 17.2 13.221 17.883 17.883 0 0 0 4.613-.607l3.138-.84 16.405 35a8 8 0 0 0 9.317 4.331l20.493-5.5a8 8 0 0 0 5.655-9.8l-9.478-35.382 4.223-1.131c17.61-4.718 34.2-4.562 50.565.474l2.224 8.3a8 8 0 1 0 15.455-4.143zm-92.3 104.491a1.829 1.829 0 0 1 -1.385-.194 1.767 1.767 0 0 1 -.847-1.092l-9.131-34.058a1.791 1.791 0 0 1 .184-1.389 1.768 1.768 0 0 1 1.107-.843l30.058-8.05 10.07 37.577zm41.612 35.071-6.3 1.689-12.348-26.347 11.231-3.008zm8.124-48.391-4.224 1.132-10.067-37.579 4.231-1.133a107.042 107.042 0 0 0 44.142-23.45l15.882 59.255a107.193 107.193 0 0 0 -49.961 1.777z"/></svg>