<svg enable-background="new 0 0 512 512" height="512" viewBox="0 0 512 512" width="512" xmlns="http://www.w3.org/2000/svg"><g id="_x30_5_Dove"><g><path d="m510.884 133.278c-36.314-61.227-88.092-63.866-89.781-63.918-64.393-6.439-95.534 59.115-107.041 92.103-68.985-114.641-167.053-158.238-307.293-137.073-3.378.528-6.017 3.114-6.651 6.439-.581 3.325 1.003 6.703 3.959 8.34 23.614 13.063 38.428 35.1 45.006 66.876 39.269-2.269 127.059 3.271 212.275 81.569 3.222 2.959 3.433 7.966.474 11.185-2.958 3.222-7.965 3.432-11.185.474-79.169-72.736-161.781-78.959-199.052-77.346 1.554 13.681 1.474 33.142 10.035 62.143 34.39-1.633 114.702 2.088 191.053 60.862 3.464 2.667 4.113 7.636 1.443 11.103-2.662 3.465-7.642 4.11-11.103 1.443-68.528-52.756-141.69-58.397-176.033-57.631 24.865 64.527 79.809 110.426 166.527 117.798-7.442 6.334-17.048 12.826-28.555 19.212-10.873 6.07-23.91 7.97-36.63 5.278-31.035-6.598-60.699-3.642-90.678 8.973-41.708 17.562-44.891 79.968-23.277 116.383 12.808 21.511 39.661 30.999 64.13 21.746 77.1-28.861 74.368-80.689 126.042-73.683 144.427 18.987 241.356-75.554 206.217-209.225-9.279-35.876 16.332-65.266 52.57-61.121 3.009.264 5.806-1.161 7.442-3.642 1.584-2.535 1.637-5.754.106-8.288zm-95.021 6.256c-8.422 0-15.208-6.787-15.208-15.148 0-8.362 6.786-15.148 15.208-15.148 8.361 0 15.148 6.786 15.148 15.148 0 8.361-6.786 15.148-15.148 15.148z"/></g></g></svg>