<?xml version="1.0" encoding="UTF-8"?>
<!DOCTYPE svg PUBLIC "-//W3C//DTD SVG 1.1//EN" "http://www.w3.org/Graphics/SVG/1.1/DTD/svg11.dtd">
<!-- Creator: CorelDRAW 2020 (64-Bit) -->
<svg xmlns="http://www.w3.org/2000/svg" xml:space="preserve" width="5.20833in" height="4.47662in" version="1.1" style="shape-rendering:geometricPrecision; text-rendering:geometricPrecision; image-rendering:optimizeQuality; fill-rule:evenodd; clip-rule:evenodd"
viewBox="0 0 5208.33 4476.62"
 xmlns:xlink="http://www.w3.org/1999/xlink"
 xmlns:xodm="http://www.corel.com/coreldraw/odm/2003">
 <defs>
  <style type="text/css">
   <![CDATA[
    .fil0 {fill:#FEDA00}
   ]]>
  </style>
 </defs>
 <g id="Layer_x0020_1">
  <metadata id="CorelCorpID_0Corel-Layer"/>
  <g id="_2162153017168">
   <path class="fil0" d="M4126.34 2638.25l0 -383.39 391.9 0c0,35.11 -0.93,28.56 -5.17,60.15 -1.56,11.58 -1.31,9.93 -3.68,19.04l-43.74 115.3c-0.32,0.53 -0.73,1.26 -1.05,1.79 -0.31,0.53 -0.73,1.25 -1.05,1.79l-47.8 65.79c-0.41,0.42 -1,1.02 -1.41,1.43l-4.45 4.07c-31.32,28.3 -36.38,38.89 -79.98,64.85l-48.74 25.09c-11.91,5.97 -21.65,9.11 -34.82,13.45l-37.79 10.49c-24.7,3.98 -8.62,5.96 -42.51,5.76 -15.71,-0.09 -39.7,9.49 -39.7,-5.62zm-252.75 -729.85l-25.56 0c-10.86,0 -1.04,-0.87 -8.52,2.83 7.74,10.57 -0.9,2.09 10.87,6.17 0.7,0.24 1.5,0.4 2.21,0.63l90.62 40.01c7.35,4.1 4.22,2.06 10.69,6.35l92.92 80.32c19.74,27.27 29.93,38.84 44.66,71.77 4.17,9.3 7.26,15.85 10.78,26.13 10.45,30.5 18.38,74.14 18.38,106.57l-1039.39 0c-11.28,0 -17.86,1.56 -26.13,5.11l-20.09 13.99c-9.68,9.8 -16.21,17.07 -21.87,29.24l-4.72 9.48c-0.21,0.39 -0.63,1.24 -1.03,1.81l19.6 -156.48 19.73 -56.94 51.17 -76.62 44.23 -35.29c0.46,-0.37 1.09,-0.92 1.56,-1.28l3.22 -2.47c4.02,-2.77 4.46,-2.63 9.02,-5.18 6.76,-3.78 9.45,-6 15.63,-9.93 33.1,-21.05 74.26,-32.54 112.49,-40.86l137.3 -16.06c6.08,-1.75 12.32,-2.51 18.46,-4.26l58.2 -18.48c5.21,-1.69 11.91,-3.85 18.98,-6.57l54.33 -22.34c7.95,-3.54 8.52,-4.58 16.82,-8.74 38.79,-19.48 74.85,-43.21 109.32,-69.59 4.67,-3.57 9.78,-7.05 14.65,-10.92l93.56 -96.71c3.58,-4.54 1.95,-1.91 6.45,-7.75l28.44 -42.56c0.43,-0.74 1.66,-2.85 2.09,-3.59l18.59 -32.53c3.55,-6.69 5.53,-10.48 8.91,-16.65l35.77 -89.19c2.47,-7.52 3.44,-11.81 5.98,-19.58l10.09 -41.02c2.05,-12.54 3.63,-10.19 5.1,-20.46 1.81,-12.74 -0.18,-11.03 3.29,-22.28 3.42,-11.11 2.27,-8.4 2.89,-22.66l5.67 -45.45c1.47,-30.5 6.68,-63.5 8.54,-93.69l16.4 -94.36c0.18,-0.84 0.23,-1.59 0.39,-2.45 1.29,-6.89 0.49,-5.44 2.27,-11.93l77.89 -189.05 108.7 -127.01c43.02,-36.44 92.7,-68.78 145.16,-90.55l36.54 -14.58c27.63,-11.12 55.87,-16.78 85.1,-25.65 26.31,-7.98 47.08,-8.46 57.15,-11 39.04,-9.84 62.2,-7.13 91.83,-10.41 8.96,-0.99 10.3,-2.42 23.14,-2.42l0 675.89c0,19.61 -3.44,34.74 -6.09,53.54l-59.67 187.39 -20.83 41.65c-14.48,26.54 -29.54,52.66 -48.82,76.13l-37.31 45.05c-11.92,13.67 -28.85,30.29 -42.43,42.77 -2.26,2.08 -2,1.8 -4.55,3.97l-6.19 5.17c-56.32,47.64 -107.81,74.46 -175.39,102.92l-38.48 12.64c-26.1,8.43 -56.36,11.43 -82.74,19.5 -14.01,4.28 -23.3,1.14 -38.17,4.43 -48.24,10.69 -107.79,4.06 -157.82,4.06zm-1161.51 -602.06l0 -602.05c0,-14.97 29.85,-8.52 39.76,-8.52l49.98 6.81c15.85,2.25 36.35,6.36 49.73,9.91l52.54 12.78c2.73,0.9 3.25,1.02 6.54,1.98 32.33,9.47 63.69,22.29 93.49,37.14 73.09,36.43 128.25,83.73 180.06,146.52 40.3,48.83 66.26,109.87 86.28,169.31 0.51,1.51 1.79,4.88 2.22,6.3l27.17 120.51c0.71,9.95 -0.49,17.11 1.19,27.21 1.7,10.22 4.11,15.96 4.63,26.61 1.06,21.83 -1.52,38.26 2.54,57.09 5.17,24.01 4.78,50.61 10.59,74.6 2.07,8.54 3.46,16.63 5.7,25.54 4.13,16.44 7.93,31.16 13.07,46.56 9.48,28.34 19.3,57.32 32.38,84.06 3.92,8.02 5.87,10.78 9.97,18.42l41.14 63.94c4.46,5.81 2.87,3.25 6.43,7.77 22.64,28.72 47.87,54.11 76.7,76.65l4.66 3.86c16.95,14.46 53.55,33.46 63.73,44.19 -9.09,17.18 -29,28.1 -45.89,36.47 -9.61,4.76 -16.45,8.24 -26.91,12.85l-37.52 13.59c-55.31,18.78 -114.67,17.44 -173.78,16.71l-141.18 -17.85c-6.3,-1.81 -9.45,-1.84 -16.47,-3.41l-40.93 -13.03c-3.78,-1.28 -5.22,-1.96 -6.2,-2.32l-114.67 -55.72 -42.7 -31.14c-29.67,-24.99 -54.49,-49.8 -79.51,-79.52l-81.18 -134.65c-1.51,-3.46 -3.41,-8.75 -4.87,-12.17 -1.59,-3.74 -4.52,-9.94 -6.21,-13.67l-21.52 -63.68c-9.64,-35.38 -20.94,-71.77 -20.94,-109.7zm-616.25 255.59c0,47.94 0.22,132.99 11.99,181.13 3.11,12.75 0.52,28.06 4,41.43 2.96,11.34 3.05,5.2 3.82,18.9l5.91 42.38c1.19,12.85 3.24,9 5.06,20.5l61.59 222.4c1.03,2.87 2.04,5.75 3.01,8.35l23.11 62.09c2.83,6.6 4.09,9.03 7.07,15.65 1.5,3.34 1.81,3.83 3.48,7.87 1.75,4.23 2.49,6.67 4.03,10.17l53.29 108.59c0.31,0.53 0.75,1.24 1.07,1.77l34.08 59.63c4.06,6.36 5.3,8.25 9.5,16.06l20.23 30.89c0.36,0.47 0.91,1.09 1.27,1.57l118.68 159.63c4.84,5.72 4.61,6.84 10.06,12.66 5.15,5.51 7.34,6.82 12.31,13.25l93.49 96.78c17.11,16.93 33.03,29.9 50.39,46.17l64.66 51.78c0.47,0.36 1.12,0.89 1.57,1.26 0.46,0.37 1.08,0.93 1.53,1.31l10.62 9.26c9.16,7.16 18.57,12.89 28.22,20.06l4.76 3.76c0.46,0.37 1.09,0.93 1.54,1.3 0.46,0.37 1.09,0.93 1.54,1.3l68.08 45.52c42.69,25.89 84.94,53.02 129.62,74.85 11.57,5.65 21.02,9.75 32.67,15.61 6.2,3.12 10.14,4.83 15.49,7.22l159.53 64.83c2.11,0.8 7.41,2.63 8.39,2.97l74.05 22.51c10.79,2.52 10.99,2.32 20.46,5.09l157.55 32.72c19.85,0.97 18.91,5.57 39.72,5.72 20.5,0.15 26.64,4.31 42.75,5.54 73.49,5.57 144.43,5.79 218.56,5.79 32.96,0 53.54,-5.34 88.15,-5.56 19.36,-0.12 23.03,-5.16 39.61,-5.83 33.95,-1.38 26.14,-4.07 42.74,-5.54l59.56 -8.59c33.79,-10.19 72.04,-14.24 106.14,-24.5 9.42,-2.83 -0.09,-0.73 8.51,-2.85l18.47 -4.24c0.69,-0.22 1.39,-0.54 2.07,-0.77 134.7,-44.72 217.55,-70.36 345.33,-145.97 6.6,-3.9 10.24,-5.15 16.44,-9.12 63.76,-40.78 115.29,-72.42 174.72,-120.63l66.65 -55.47c0.45,-0.38 1.1,-0.91 1.55,-1.29l185.35 -195.19c1.47,-2.06 3.05,-4.22 4.87,-6.48l37.04 -48.16c58.02,-78.02 107.91,-163.77 148.93,-251.49l78.74 -202.41c1.98,-6.09 1.25,-3.61 2.72,-8.63l16.17 -57.67c1.35,-4.53 1.05,-4.4 2.17,-9.19l13.72 -57.27c3.71,-21.4 9.78,-37.7 11.47,-59.54l5.62 -39.81c0.65,-13.73 1.94,-9.69 4.47,-21.09l12.54 -177.72c0,-42.54 -0.33,-144.58 -6.34,-183.93l-4.96 -43.32c-0.57,-13.23 -1.13,-7.87 -3.94,-18.78 -2.54,-9.8 -1.24,-10.58 -1.79,-20.93 -0.83,-15.75 -1.41,-6.86 -4.31,-18.4 -2.27,-9.01 -0.45,-14.52 -2.17,-23.39l-8.67 -39.61c-8.99,-35.02 -14.53,-71.13 -25.71,-104.92l-36.19 -111.48c-0.23,-0.69 -0.51,-1.41 -0.74,-2.1l-13.86 -37.25c-2.12,-5.16 -3.72,-8.62 -6.71,-16.01l-111.76 -220.51c-4.58,-8.54 -4.67,-7.66 -10.22,-15.34l-146.47 -197.15c-30.95,-35.12 -78.19,-89.96 -111.48,-115.7l-25.39 -22.88c-6.46,-6.46 -5.82,-4.98 -12.31,-10.42 -5.43,-4.56 -7.69,-8.05 -13.03,-12.53l-49.06 -38.98c-0.63,-0.54 -2.4,-2.11 -3.03,-2.65l-45.22 -34.3c-29.72,-23.29 -62.94,-43.73 -94.94,-64.09l-137.78 -75.21c-49.92,-23.27 -100.27,-45.09 -151.89,-63.94 -8.94,-3.27 -6.33,-2.92 -16.52,-6.2 -5.69,-1.83 -10.33,-3.5 -16.87,-5.85l-80.77 -24.31c-0.79,-0.2 -1.56,-0.3 -2.35,-0.48 -5.12,-1.19 -4.63,-0.83 -9.22,-2.14 -39.12,-11.13 -84.22,-18.26 -114.94,-27.05 -9.92,-2.83 -12.44,-1.12 -22.74,-2.82 -6.19,-1.02 -10.64,-3.69 -18.14,-4.58 -8.97,-1.06 -14.92,0.45 -24.02,-1.53 -9.61,-2.09 -7.69,-3.57 -18.32,-4.4 -51.44,-3.99 -100.63,-11.45 -156.11,-11.45 -74.86,0 -152.07,-0.76 -225.45,10.26l-43.13 5.15c-9.35,2.04 -11.43,1 -20.93,1.79 -10.92,0.91 -8.57,2.22 -18.42,4.3l-60.27 10.73c-7.87,1.96 -13.97,1.77 -21.88,3.68 -13.63,3.29 -25.09,7.33 -37.71,10.57 -6.88,1.76 -12.21,2.01 -18.82,3.89l-46.42 13.22c-0.69,0.23 -1.43,0.49 -2.12,0.71 -2.65,0.84 -3.96,1.1 -6.63,1.89 -5.8,1.7 -9.7,2.78 -17.57,5.14l-18.96 6.59c-7.03,2.18 -10.43,2.96 -17.27,5.45l-18.35 7.2c-0.72,0.23 -1.49,0.41 -2.2,0.64l-4.33 1.35c-0.68,0.23 -1.42,0.52 -2.09,0.75l-173.3 76.61c-6.49,3.39 -10.6,5.27 -17.06,8.5 -11.63,5.81 -20.38,10.03 -31.66,16.61l-102.43 62.29c-0.53,0.32 -1.25,0.74 -1.77,1.07l-10.07 6.96c-2.18,1.5 -3.04,2.02 -5.1,3.42l-81.61 60.39c-9.26,7.29 -17.84,13.01 -27.29,20.99l-101.68 91.43c-4.61,4.34 -1.63,1.51 -6.05,5.32l-14.2 14.2c-0.39,0.44 -0.93,1.09 -1.31,1.54l-207.27 261.31c-2.59,4.23 -3.26,4.49 -5.74,8.46 -3.02,4.83 -5.42,10.11 -8.22,14.49l-35.81 60.75c-25.86,47.4 -48.19,96.37 -70.31,145.52 -14.98,33.28 -27.31,71.2 -39.5,105.33 -4.46,12.46 -8.15,23.43 -11.99,36.28l-15.7 55.3c-11.18,37.55 -17.59,77.1 -26.97,115.02 -5.41,21.87 -16.1,126.02 -19.61,150.79 -6.66,47.09 -7.33,89.26 -7.33,137.5z"/>
   <path class="fil0" d="M664.53 2419.58c0,-63.63 -4.22,-86.37 46.83,-134.92l29.38 -21.74c1.94,-1.18 4.41,-2.7 7.17,-4.19 3.65,-1.98 -0.04,-0.09 3.73,-1.95 29.41,-14.52 47.87,-20.67 80.35,-30.41l88.13 -14.11 160.52 7.04c20.66,5.22 31.57,5.55 52.49,12.83 29.02,10.1 50.28,18.59 74.5,36.26 13.34,9.74 23.73,16.72 34.01,31.31 19.23,27.28 35.24,60.86 29.89,99.19 -4.61,33.08 -4.36,45.59 -23.7,78.6 -21.41,36.55 -49.42,54.7 -87.73,74.14 -4.07,2.07 -9.73,4.2 -14.12,5.76l-16.66 6.06c-68.02,21.58 -93.92,16.77 -149.98,23.27 -18.67,2.17 -27.57,-1.69 -42.17,-2.44 -44.34,-2.28 -97.63,-7.86 -138.85,-23.02 -34.52,-12.69 -68.74,-32.1 -93.64,-59.71 -16,-17.74 -40.15,-62.55 -40.15,-81.97zm332.27 -1417.1c-45.49,0 -40.56,-1.54 -71,-8.52l-11.06 -3.14c-0.65,-0.24 -1.37,-0.57 -2.02,-0.82 -70.88,-27.74 -124.07,-80.3 -138.3,-157.05 -7.6,-41 -4.81,-26.22 -4.81,-74.7 0,-11.69 2.2,-11.15 4.36,-21.2l6.61 -27.46c12.89,-39.31 40.02,-76.11 72.66,-100.57l5.09 -3.43c18.44,-11.61 42.91,-26.04 65.1,-31.46 38.47,-9.41 81.46,-12.98 120.87,-5.38l30.89 8.87c20.97,8.21 46.64,21.61 63.65,35.74l12.04 10.67c34.8,33.69 45.91,59.51 59,102.88 10.38,34.39 6.44,86.24 -1.98,120.33l-4.91 17.8c-14.1,36.24 -35.08,65.1 -64.14,89.22 -20.45,16.97 -43.46,28.22 -68.53,36.54 -0.69,0.23 -1.4,0.54 -2.08,0.76 -0.7,0.22 -1.41,0.51 -2.13,0.72 -0.72,0.21 -1.45,0.44 -2.2,0.64 -23.41,6.3 -40.54,9.56 -67.11,9.56zm-780.97 -255.59c0,40.11 4.26,79.22 10.17,114.78 8.66,52.07 19.79,101.76 40.43,149.85 0.35,0.81 1.38,3.13 1.72,3.95 1.02,2.44 1.34,3.52 2.4,6.12l53.45 94.23c5.59,6.8 10.21,9.52 11.09,20.14 -6.69,1.79 -8.15,3.29 -15.64,7.07 -6.32,3.19 -10.69,5.32 -17.05,8.52 -32.06,16.13 -64.76,35.3 -92.04,58.48 -0.44,0.38 -1.06,0.94 -1.51,1.32 -0.44,0.38 -1.07,0.94 -1.53,1.31l-46.16 39.04c-4.68,4.71 -6.54,6.47 -11.74,10.98l-77.23 93.17c-17.19,23.43 -29.95,51.58 -40.89,78.38l-10.36 29.39c-20.93,62.02 -20.95,116.65 -20.95,183.52l9.89 69.62c7.54,29.46 13.06,58.62 24.54,86.21l14.26 34.01c1.89,3.79 5.16,10.69 7.65,15.07l80.8 109.48c4.4,4.94 7.9,8.48 12.7,12.85 2.63,2.4 3.8,3.25 6.09,5.27l46.54 38.65c25.02,20.37 56.13,37.7 85.38,50.94 13.7,6.2 25.54,13.9 41.56,15.24 -1.23,14.78 -28.3,24.87 -56.85,45.38 -2.44,1.75 -3.6,2.4 -6.63,4.73 -17,13.06 -34.75,26.19 -48.88,41.99l-77.89 92.51c-13.83,20.97 -27.21,44.26 -37,68.08l-21.22 63.98c-22.21,85.14 -16.5,198.64 19.77,281.22l92.04 149.35c0.41,0.41 1.03,0.98 1.44,1.4 0.41,0.41 1.01,1 1.42,1.43l26.17 27.78c21.26,20.4 43.37,40.69 67.29,57.67l55.18 35.69c4.96,2.92 7.93,4.14 12.96,6.92 55.45,30.53 112.9,53.83 173.06,74.01 27.54,9.24 77.03,22.56 106.32,27.16 11.54,1.81 9.62,0.39 19.39,3.32 10.22,3.06 6.7,1.83 19.69,3.03 11.15,1.02 8.49,2.14 18.44,4.27l39.76 5.68c68.56,13.23 213.59,15.4 282.78,15.4 46.59,0 134.75,-6.88 182.98,-15.81 7.81,-1.45 13.13,-3.06 19.07,-3.64 11.06,-1.08 12.98,0.46 23.07,-2.49l42.64 -8.48c4.33,-0.74 6.54,-0.44 10.35,-1.01 13.57,-1.99 4.41,-0.94 11.15,-3.05l62.12 -14.56c11.48,-2.78 24.22,-7.35 36.96,-11.31l28.1 -8.82c0.69,-0.23 1.44,-0.48 2.13,-0.71l8.42 -2.94c3.57,-1.17 5.37,-1.55 8.67,-2.69l94.89 -41.42c10.61,-5.33 23.35,-10.18 34.01,-17.11l81.38 -52.09c0.46,-0.37 1.09,-0.93 1.54,-1.3 0.46,-0.37 1.09,-0.93 1.54,-1.3l122.13 -116.42c0.38,-0.45 0.92,-1.09 1.3,-1.54 0.38,-0.45 0.92,-1.09 1.3,-1.54 26.7,-31.49 44.64,-66.35 65.76,-101.79 2.82,-4.73 -0.67,1.2 2.15,-3.52l32.68 -75.24c11,-34.52 22.94,-70.63 30.31,-106l6.96 -44.16c0.51,-22.24 5.65,-27.19 5.65,-45.47 0,-47.54 3.98,-99.78 -4.57,-145.95 -1.94,-10.5 0.04,-18.87 -2.46,-28.77l-12.48 -52.84c-4.75,-16.3 -9.46,-31.02 -15.77,-46.7l-11.37 -28.39c-0.76,-1.91 -1.5,-3.94 -2.4,-6.12 -18.76,-45.96 -47.89,-89.52 -79.39,-127.93l-29.91 -35.41c-5.02,-5.7 -10.04,-10.25 -15.54,-15.7 -26.8,-26.5 -57.35,-49.07 -88.19,-70.84 -6.9,-4.87 -12.61,-7.83 -19.1,-12.14l-180.62 -83.49 -68.61 -19.43c-7.39,-1.74 -17.35,-3.16 -25.83,-5.41 -8.9,-2.35 -20.23,-2.52 -29.12,-4.96l-53.94 -8.54c-19.87,-2.27 -43.99,-0.66 -62.57,-2.74 -34.13,-3.83 -463.71,-0.41 -510.76,-0.41 -42.11,0 -75.58,0.62 -112.01,-15.78 -16.3,-7.33 -26.69,-15.45 -37.85,-27.47 -4.9,-5.28 -9.31,-11.31 -13.24,-18 -5,-8.51 -1.55,-2.08 -5.33,-11.71 -3.43,-8.73 -4.81,-3.49 -4.81,-12.23l0 -53.96c0,-7.64 12.49,-31.07 18.12,-38.68 29.98,-40.49 82.95,-46.63 129.55,-46.52l377.76 -2.79c11.87,-0.56 17.6,-3.8 26.19,-5.05 9.5,-1.39 17.02,-0.03 26.61,-1.8l140.99 -35.08 64.95 -25.92c13.76,-6.02 23.71,-12.19 38.22,-18.58 7.83,-3.45 12.22,-5.44 18.79,-9.61 39.17,-24.95 79.64,-47.43 114.3,-78.81l39.22 -34.61c15.78,-15.3 42.79,-43.28 56.63,-62.65 24.39,-34.14 50.32,-68.72 70.01,-106.06 7.12,-13.5 12.81,-25.72 19.12,-40.52l12.56 -30.04c0.33,-0.83 1.32,-3.19 1.65,-4.03l16.55 -51.61c2.15,-8.36 4.34,-14.7 6.06,-22.34l12.64 -78.24c0,-41.21 2.83,-86.19 -4.56,-126.07 -1.93,-10.43 -0.13,-18.79 -2.3,-28.93l-11.83 -53.49c-2.78,-11.84 -4.11,-12.56 -7.13,-24.11 -1.83,-6.99 -1.37,-5.68 -3.97,-13.07l-5.43 -14.45c-0.24,-0.69 -0.48,-1.44 -0.71,-2.13 -0.89,-2.71 -1.07,-3.84 -1.97,-6.55 -2.23,-6.75 0.13,0.19 -2.25,-6.27 -14.76,-40.09 -35.92,-75.83 -58.28,-112.1l-51.72 -62.29c-6.65,-7.59 -4.6,-9.12 2.88,-13.03l8.36 -2.99c0.7,-0.23 1.44,-0.48 2.13,-0.71l194.26 -69.85c24.11,-8.52 43.7,-16.4 59.01,-37.54 7.76,-10.71 16.98,-26.55 16.98,-39.82l0 -190.27c0,-41.91 -36.68,-79.52 -79.51,-79.52l-846.28 0c-16.76,0 -25.91,1.82 -41.31,4.13 -27.91,4.19 -52.24,4.85 -79.09,11.78l-70.26 17.78c-60.19,20.52 -114,42.91 -168.96,75.27l-22.89 14.03c-7.22,4.39 -7.14,4.97 -13.52,9.2l-116.16 96.83c-0.44,0.38 -1.1,0.91 -1.55,1.29l-3.16 2.52c-17.54,14.44 -44.79,48.67 -57.93,67.03l-79.82 127.49 -21.59 49.41c-4.43,9.95 -8.17,21.02 -12.49,32.95l-23.54 81.54c-0.72,3.9 -0.43,6.38 -1.05,10.31l-10.71 57.44c-3.46,24.82 -5.83,60.73 -5.83,87.89z"/>
   <path class="fil0" d="M4753.95 3620.85c-11.11,-8.14 -16.64,-28.62 -23.24,-42.07l-109.71 -228.24c-27.45,-56.09 -22.72,-68.56 -68.67,-61.96 -14.93,2.15 -18.07,11.69 -24.17,24.13l-112.91 242.07c-6.03,14.3 -14.66,30.06 -22.41,45.74 -7.42,14.98 -12.7,32.12 -22.27,45.89l-29.52 -101.11c-1.7,-5.75 -2.19,-10.52 -3.8,-16.07l-21.36 -69.52c-1.46,-5.2 -2.21,-10.58 -3.83,-16.04l-5.04 -17.69c-0.21,-0.73 -0.43,-1.47 -0.64,-2.2 -0.22,-0.71 -0.5,-1.43 -0.72,-2.12l-19.22 -65.97c-9.39,-33.09 -14.71,-25.51 -46.37,-24.45 -33.58,1.13 -53.7,5.78 -68.2,5.71 -40.78,-0.22 -56.88,-0.01 -56.88,34l150.9 462.51c0.23,0.68 0.53,1.4 0.75,2.09l41.72 134.35c0.24,0.67 0.54,1.4 0.78,2.06 9.41,25.49 23.09,18.09 47.23,18.09 16.4,0 25.27,-32.05 30.76,-43.07l112.01 -228.78c12.55,-31.26 55.5,-104.8 61.7,-131.41 0.39,0.56 0.92,0.81 1.07,1.76l159.6 328.86c32.36,76.69 29.49,72.64 75.04,72.64 15.44,0 17.54,-24.44 20.71,-36.08l20.03 -68.02c0.22,-0.7 0.49,-1.43 0.71,-2.13l5.73 -19.83c0.22,-0.71 0.5,-1.42 0.72,-2.12 0.28,-0.89 1.2,-3.31 1.47,-4.21l2.27 -9.09c0.2,-0.76 0.36,-1.52 0.57,-2.26l82.61 -292.25c1.44,-4.98 2.22,-9.05 3.59,-13.45l58.22 -208.73c1.29,-4.57 1.37,-6.43 2.66,-11.54l6.26 -24.98c4.25,-17.05 8.78,-31.39 4.59,-49.36l-51.19 -0.07c-14.27,0.7 -6.65,0.82 -16.18,3.7 -12.98,3.91 -23.22,0.3 -36.52,3.24 -37.34,8.27 -53.34,-0.45 -64.19,43.74 -2.65,10.79 -0.72,2.09 -2.74,8.62l-64.91 253.15c-0.97,4.08 -0.6,3.08 -1.72,6.8l-10.45 40.67c-1.78,6.44 -3.1,7.52 -4.85,15.03z"/>
   <path class="fil0" d="M3887.79 3652.09l0 45.44c0,12.85 -0.17,-1.29 -3.3,8.06 -9.03,26.85 -1.8,18.61 -25.59,53.92 -11.69,17.34 -28.82,32.26 -46.13,44.75 -9.51,6.86 -18.3,13.01 -27.59,17.85 -26.52,13.82 -83.28,28.78 -109.5,25.26 -53.81,-7.22 -86.88,-10.76 -135.19,-46.76 -37.87,-28.22 -62.46,-67.98 -63.92,-117.54 -4.39,-149.09 268.18,-231.68 373.72,-107.06 11.42,13.5 21.66,27.01 27.86,43.14l9.65 32.95zm-585.01 36.92c0,39.55 3.54,43.94 8.32,68.35 5.33,27.19 20.76,54.61 36.67,76.93 0.35,0.49 0.83,1.17 1.17,1.67 20.23,28.98 38.6,48.04 67.2,69.12l48.05 31.46c49.26,26.46 61.69,29.97 112.56,43.63 55.94,15.02 80.9,9.86 146.33,9.86l66.06 -13.46c23.51,-6.65 39.59,-12.47 60.49,-21.87l27.35 -12.42c42.12,-21.06 82.19,-53.25 113.69,-87.93l54.2 -87.8c0.25,-0.64 0.56,-1.38 0.81,-2.03 23.94,-61.46 25.61,-131.6 0.78,-194.43l-4.88 -12.16c-8.08,-18.39 -18.91,-37.98 -31.65,-53.55l-19.65 -22.95c-3.54,-4.02 -5.28,-6.37 -9.39,-10.49 -156.72,-157.51 -456.31,-125.17 -598.55,30.67 -0.39,0.43 -0.94,1.07 -1.33,1.52 -0.39,0.43 -0.94,1.07 -1.32,1.52l-39.47 51.41c-5.85,9.04 -10.28,18.41 -14.66,27.94 -16.16,35.15 -22.78,64.29 -22.78,105.01z"/>
   <path class="fil0" d="M2834.2 3652.09c-7.43,0 -11.36,0.22 -11.36,-8.52 0,-138.33 -7.96,-106.2 33.3,-111.54 26.73,-3.46 101.23,-2.06 131.42,-2.06 17.98,0 86.02,27.46 57.3,82.87 -2.29,4.43 -4.23,6.15 -7.49,9.55l-10.19 9.69c-5.35,4.2 -4.28,3.18 -10.65,6.4 -17.03,8.63 -20.62,11.03 -43.1,10.85 -48.21,-0.39 -89.27,2.76 -139.23,2.76zm-184.59 -218.67l0 531.06c0,7.91 11.97,19.88 19.88,19.88l133.47 0c3.98,0 19.88,-7.19 19.88,-17.04l0 -204.47 71 0c1,12.05 16.63,28.96 27.34,46.5l6.72 10.32c0.33,0.52 0.76,1.22 1.08,1.75l28.89 44.94c0.33,0.5 0.81,1.18 1.15,1.69 0.33,0.51 0.79,1.2 1.12,1.72l4.28 7.08c5.87,9.71 11.53,18.01 18,27.44 3.39,4.94 6.35,8.36 9.32,13.39 9.41,15.94 36.5,66.67 52.61,66.67l150.51 0c8.02,0 17.04,-11.84 17.04,-19.88 0,-11.58 -131.52,-193.2 -141.99,-212.99l53.08 -26.43c72.91,-40.66 124.76,-117.09 86.47,-204l-9.03 -16.53c-12.45,-17.69 -29.92,-37.34 -47.56,-49 -28.22,-18.65 -46.28,-30.65 -80.37,-38.91 -17.27,-4.19 -46,-11.32 -62.12,-11.72 -48.83,-1.19 -131.55,5.79 -187.54,5.79 -15.5,0 -144.92,-1.96 -154.86,1.34 -7.09,2.35 -18.37,13.84 -18.37,21.39z"/>
   <path class="fil0" d="M2269.06 3652.09l-85.2 0c-25.83,0 -39.97,-2.84 -65.31,-2.84l0 -119.28 79.1 0.42c41.66,4.68 113.58,-7.73 140.84,35.23 30.5,48.07 -22.21,86.47 -69.43,86.47zm-323.74 -218.67c0,41.86 -2.19,513.98 3.93,535.65 1.9,6.71 8.68,15.29 15.95,15.29l130.63 0c10.38,0 22.72,-7.83 22.72,-17.04l0 -204.47 62.48 0c6.43,0 8.02,2.58 15.99,15.25l127.15 196.59c2.94,3.45 10.99,9.67 15.89,9.67l150.52 0c9.61,0 15.82,-10.98 19.88,-17.04 -3.87,-14.5 -42.69,-66.09 -52.8,-80.67l-92.04 -135.16c13.07,-0.29 6.81,-0.43 13.96,-3.08 0.65,-0.24 1.36,-0.59 2,-0.85 0.83,-0.33 3.18,-1.33 4,-1.68 36.58,-15.26 24.67,-11.7 53.48,-28.87 0.97,-0.58 4.26,-2.42 5.39,-3.13 3.37,-2.13 1.52,-0.77 5.08,-3.44 24.77,-18.58 47.07,-43.09 58.56,-72.07 12.07,-30.48 12.06,-72.72 -0.86,-102.32l-13.75 -26.02c-19.58,-28.93 -57.55,-57.03 -87.59,-71.44l-91.43 -27.85 -119.35 0.07c-16.12,-0.2 -19.65,-3.02 -36.71,-3.05 -12.41,-0.02 -27.64,0.94 -39.71,-0.06 -45.75,-3.79 -107.92,-2.69 -156.34,-2.69 -11.67,0 -17.04,15.61 -17.04,28.4z"/>
   <path class="fil0" d="M53.95 3416.38c0,19.73 -1.69,43.97 3.14,62.18 6.57,24.78 14.85,51.15 28.83,73.41l3.37 5.15c0.34,0.5 0.81,1.19 1.15,1.69l29.19 36.12c6.35,7.64 1.22,2.97 9.76,10.12 32.6,27.28 68.04,56.94 107.91,73.84 28.76,12.19 55.58,24.17 80.8,41.31l12.92 9.81c30.48,25.63 51.87,68.06 14.72,100.28 -62.85,54.51 -194.67,-50.41 -212.27,-50.41 -22.02,0 -27.86,16.64 -37.66,33.34l-16.8 28.64c-9.83,18.65 -34.48,42.67 -19.49,63.09 15.16,20.65 54.62,42.91 77.33,53.31 132.7,51.65 277.89,51.8 378.97,-60.13 15.8,-18.07 27.35,-40.28 32.72,-63.83 8.38,-36.7 5.22,-30.19 5.22,-71.46 0,-13.84 -12.07,-43.81 -19.44,-57.23 -32.94,-60 -86,-95.78 -143.33,-129.31 -45.94,-23.16 -136.57,-59.36 -157.71,-106.4 -3.96,-8.81 -3.27,4.21 -3.27,-8.09 0,-20.21 -1.3,-31.54 16.43,-46.04 9.59,-7.85 15.74,-8.78 32.23,-8.83 13.97,-0.04 33.67,2.19 49.15,8.19 0.84,0.33 3.22,1.29 4.05,1.62l4.05 1.63c30.28,12.15 59.19,28.58 85.19,48.29 40.56,30.76 51.33,12.78 80.98,-28.13 47.32,-65.29 55.72,-56.3 -28.93,-111.95 -91.83,-60.4 -248.37,-98.11 -342.34,-32.13 -0.69,0.48 -2.57,1.94 -3.27,2.41 -0.49,0.35 -1.18,0.81 -1.69,1.15 -16.49,11.16 -29.93,27.25 -42.27,42.93 -0.52,0.65 -2.04,2.47 -2.54,3.14 -9.23,12.44 -27.11,55.46 -27.11,72.29z"/>
   <path class="fil0" d="M959.87 3612.33l-113.59 -5.68 0 -130.63c263.22,0 174.58,136.31 113.59,136.31zm-261.27 372.02l127.8 0c5.7,0 15.74,-7.57 18.09,-13.14 4.19,-9.95 2.12,-168.05 1.69,-194.27 -0.54,-32.98 -11.48,-25.46 96.65,-25.46 11.99,0 15.8,2.07 22.99,2.28l50.94 -5.03c5.77,-1.74 3.37,-1.1 11.27,-2.93 9.29,-2.15 4.26,-0.73 11.03,-3.17l56.13 -26.23 47.59 -40.45c19.72,-19.43 30.96,-42.32 40.33,-67.58 17.69,-47.69 1.8,-111.41 -27.28,-152.23 -90.93,-127.66 -327,-136.31 -474.26,-136.31 -4.6,17.24 -8.98,1.83 -8.61,33.99l0.06 85.32c-0.11,19.12 2.78,25.78 2.99,42.45l-0.11 437.46c-0,18.71 -4.26,47.65 7.41,57.91 1.68,1.47 12.71,7.41 15.31,7.41z"/>
   <path class="fil0" d="M1513.65 3646.41l57.17 101.87c0.33,0.51 0.83,1.17 1.17,1.67 0.34,0.5 0.84,1.16 1.18,1.66 7.06,10.33 8.41,12.21 8.64,22.6l-141.99 -2.84 53.09 -94.58c6.82,-11.62 10.31,-23.39 20.74,-30.37zm-337.94 337.94l127.8 0c12.42,0 -0.43,0.31 6.09,-2.43 10.06,-4.24 14.15,-4.71 20.04,-11.2l21.83 -37.81c0.3,-0.55 0.73,-1.25 1.04,-1.8l8.89 -16.67c5.44,-9.66 7.94,-10.89 10.28,-20.95 26.63,0 44.29,3.01 68.12,2.88l215.87 2.8 4.97 9.23c52.31,94.02 25.43,75.97 190.98,75.97 4.89,0 19.87,-8.19 19.87,-19.88l-13.15 -23.77c-0.45,-0.77 -1.65,-2.81 -2.1,-3.58l-267.34 -459.67c-4.18,-7.67 -6.3,-10.22 -10.42,-17.98l-30.05 -52.31c-14.85,-25.74 -11.87,-33.39 -43.29,-33.39 -19.42,0 -24.42,17.38 -36.27,37.56l-51.65 87.5c-4.09,7.11 -7.29,13.23 -11.33,19.91l-121.85 213.25c-1.41,2.48 -3.83,6.01 -5.44,8.76l-71.64 127.15c-4.12,6.72 -7.24,13.15 -11.36,19.88 -7.96,13 -42.98,68.15 -37.61,82.93 2.3,6.34 11.52,13.63 17.73,13.63z"/>
   <path class="fil0" d="M1837.4 4475.65c7.67,0 7.83,-1.35 14.2,-2.84 4,-17.2 8.52,-130.51 8.52,-156.2l2.83 0c0,15.17 0.41,9.83 4.25,21.32l17.28 50.88c0.24,0.65 0.56,1.38 0.8,2.04l9.17 27.75c14.96,52.13 17.44,57.17 42.35,51.37l25.16 -68.55c0.24,-0.66 0.55,-1.39 0.79,-2.06l25.47 -73.92c2.45,-5.65 1.62,-4.51 5.37,-8.83 0,50.16 6.13,100.45 5.65,127.83 -0.3,16.74 -2.35,31.2 14.23,31.2 24.95,0 17.37,-22.7 14.98,-40.54l-9.14 -141.38c0.43,-25.56 3.22,-22.55 -31.4,-22.55 -7.09,0 -10.41,6.7 -12.71,12.85l-41.9 117.13c-4.14,14.61 2.05,14.29 -10.7,17.69 0,-13.84 -0.04,-9.2 -3.46,-19.26l-44.81 -128.41 -36.92 0 -11.37 133.46c-0.49,9.19 0.52,19.25 0.03,28.43 -0.85,15.67 -10.83,42.58 11.35,42.58z"/>
   <path class="fil0" d="M2854.07 4285.38c0,37.66 -3.7,159.34 2.84,187.43 35.44,8.48 28.4,-2.84 28.4,-65.31 0,-29.35 0,-58.69 0,-88.04l2.04 3.64c0.89,1.74 2.19,4.48 2.8,5.73 2.57,5.27 3.22,6.57 5.94,11.1l38.05 61.34c6.53,9.76 37.95,63.34 44.71,68.89 10.85,8.9 31.42,8.24 31.42,-5.86l0 -184.59c0,-12.6 -15.24,-8.52 -28.4,-8.52 -8.24,35.37 0,112.55 0,144.83 -8.72,-3.52 -13.91,-18.23 -18.83,-26.61 -20.83,-35.49 -60.7,-91.42 -74.89,-118.22l-31.24 0c-1.48,6.37 -2.84,6.53 -2.84,14.2z"/>
   <path class="fil0" d="M4140.54 4447.25l-51.12 0 0 -141.99c0,-18.16 42.99,-10.11 51.41,-8.82 11.94,1.84 4.85,-0.09 13.6,3.44 0.63,0.26 1.33,0.63 1.94,0.89 18.84,8.21 26.1,16.38 33.31,34.85l1.57 4.1c3.63,9.28 3.23,-4.44 3.23,8.13 0,27.85 2.91,35.89 -6.38,58.93 -2.44,6.06 -6.56,12.26 -10.56,17.84 -7.33,10.23 -29.24,22.62 -37.02,22.62zm-79.48 -175.46c-0.78,8.27 -2.88,9.48 -2.88,19.26l0 167.56c0,23.64 15.26,17.04 65.32,17.04l41.93 -9.19c98.67,-36.38 83.23,-206.78 -47.61,-198.12l-56.76 3.45z"/>
   <path class="fil0" d="M3635.04 4447.25l-39.76 0c0,-76.83 -5.44,-71 17.04,-71 11.79,0 48.28,8.63 48.28,25.56 0,16.14 2.74,27.69 -8.31,37.13 -1.81,1.54 -14.43,8.31 -17.25,8.31zm-36.92 -93.72c-2.65,-11.39 -10.73,-59.64 8.52,-59.64 50.5,0 48.28,11.69 48.28,36.92 0,9.51 -13.32,17.28 -20.46,19.31 -11.87,3.37 -21.78,3.41 -36.34,3.41zm-34.08 -71l0 181.76c0,16.75 38.01,11.36 62.48,11.36l43.17 -13.63c9.91,-7.11 14.81,-12.65 19.93,-22.67 7.1,-13.95 5.07,1.82 5.07,-37.53 0,-11.04 0.59,-0.22 -4.11,-10.09 -4.69,-9.83 -0.19,-2.81 -6.48,-10.56 -5.74,-7.09 -9.51,-12.5 -20.65,-13.43l0 -8.52c17.33,-4.62 46.37,-48.09 2.36,-79.03 -21.35,-15.02 -55.03,-12.26 -79.66,-9.63 -12.02,1.28 -22.09,-0.32 -22.09,11.98z"/>
   <path class="fil0" d="M1689.72 4447.25l-34.08 0c-10.27,0 -1,0.61 -10.04,-4.16l-11.4 -8.48c-0.43,-0.4 -1.02,-0.99 -1.43,-1.41l-8.89 -10.99c-16.43,-27.94 -17.75,-98.81 19.05,-121.16 15.48,-9.39 44.35,-8.78 57.03,-0.35 30.99,20.59 35.52,60.74 29.5,95.4l-5.87 16.85c-1.09,2.4 -1.34,3.29 -2.59,5.92 -4.04,8.5 -5.07,9.92 -11.97,16.43 -3.69,3.48 -13.78,11.94 -19.3,11.94zm-34.08 28.4c27.84,0 27.96,2.56 49.06,-4.89 13.07,-4.62 16.7,-7.86 27.6,-17.83 1.66,-1.52 4.08,-3.85 5.79,-5.57 46.89,-47.54 37.82,-175.69 -63.18,-180.98 -14.4,-0.76 -40.11,6.92 -51.61,15.07 -15.2,10.78 -25.1,23.02 -33.5,40.33 -12.98,26.72 -14.36,68.3 -1.59,99.19 7.57,18.32 16.17,28.67 32.83,41 8.09,5.98 24.39,13.68 34.6,13.68z"/>
   <path class="fil0" d="M2124.22 4396.13c0,-34.07 -4.89,-57.9 17.77,-84.47 28.25,-33.13 83.46,-16.74 94.93,22.89 6.65,23 6.57,21.33 6.57,47.39 0,11.85 -1.36,3.65 -5.61,22.78 -2.82,12.66 -11.85,26.67 -22.34,34.46 -0.48,0.36 -1.19,0.81 -1.69,1.16 -13.86,9.56 -39.29,10.83 -55.35,3.87l-3.78 -1.9c-14.43,-7.65 -19.3,-17.82 -25.69,-33.95l-2.4 -6.12c-2.68,-6.79 -2.42,6.46 -2.42,-6.1zm-34.08 -42.6c0,42.03 -1.34,70.82 34.98,104.18 25.97,23.85 77.31,24.22 105.46,5.02 9.5,-6.48 16.28,-13.59 23.67,-21.77 5.35,-5.91 12.94,-20.93 15.67,-29.76 28.41,-91.65 -40.94,-170.55 -122.26,-136.46 -35.37,14.83 -57.52,55.86 -57.52,78.79z"/>
   <path class="fil0" d="M2638.24 4370.57c0,-16.38 8.62,-43.45 16.92,-54.07l6.54 -7.66c4.09,-4.28 3.81,-4.48 9.25,-7.8 61,-37.18 117.33,55.03 75.3,120.74 -3.07,4.81 -7.71,12.51 -12.22,16.17 -16.64,13.51 -52.82,13.51 -69.46,0 -4.37,-3.55 -9.92,-12.32 -13.35,-17.89 -6.8,-11.04 -12.97,-33.22 -12.97,-49.5zm-31.24 -11.36c0,29.09 -2.26,36.46 9.67,64.17l5.75 11.29c13.81,22.6 24.67,28.79 47.45,37.75 9.26,3.64 -4.44,3.23 8.13,3.23 38.9,0 70.03,1.49 97.79,-41.37 18.61,-28.74 20.12,-69.9 11.03,-101.53 -20.31,-70.72 -105.28,-86.8 -153.15,-37.75 -9,9.22 -12.36,16.74 -16.98,28.45 -4.26,10.78 -9.68,22.57 -9.68,35.76z"/>
   <path class="fil0" d="M3930.39 4362.06l-34.08 0 0 -65.31c15.26,-3.65 33.27,-4.1 46.8,1.48 12.26,5.06 18.52,19.24 18.52,32.59 0,11.16 0.57,0.09 -4.09,10.1 -6.75,14.5 -20.79,21.13 -27.15,21.13zm-68.16 -73.83c0,37.35 -3.68,156.58 2.84,184.59 28.17,2.34 31.41,13.7 31.24,-36.91 -0.14,-43.94 -5.37,-48.28 14.2,-48.28 31.08,0 36.59,11.37 43.42,36.1 1.92,6.96 1.37,9.79 3.07,16.8l3.49 10.7c7,26 9.31,27.62 35.22,21.59 0,-18.52 -1.84,-14.51 -4.76,-26.48 -3.83,-15.7 -7.54,-35.89 -14.98,-50.33 -5.63,-10.92 -8.5,-11.04 -14.33,-19.75 8.38,-11.44 41.15,-25.41 27.18,-69.74 -13.2,-41.89 -72.16,-41.06 -109.98,-35.78 -13.17,1.83 -16.6,3.54 -16.6,17.48z"/>
   <path class="fil0" d="M1462.53 4362.06l-34.08 0 0 -65.31c71.9,-17.22 77.05,43.51 48,59.35 -0.02,0.01 -5.61,2.66 -5.78,2.74 -8.88,3.91 4.17,3.22 -8.14,3.22zm-65.31 -82.35l0 184.59c0,17.7 22.89,9.8 28.4,8.52 3.58,-15.4 2.88,-26.48 2.83,-45.44 -0.06,-27.47 -6.25,-39.76 14.2,-39.76 14.32,0 26.78,2.19 33.59,11.85l8.73 22.51c3.08,10.56 4.68,20.78 7.94,31.81 9.37,31.65 34.93,24.55 34.93,13.35l-15.29 -61.38c-8.68,-22.67 -9,-14.88 -18.79,-29.49 4.76,-6.49 42.69,-26.25 26.94,-72.35 -1.54,-4.49 -7.5,-12.01 -10.53,-15.05l-10.74 -9.13c-19.96,-13.83 -56.34,-12.3 -80.44,-9.48 -11.35,1.33 -21.78,-2.33 -21.78,9.46z"/>
   <path class="fil0" d="M965.56 4310.94c9.82,6.57 9.48,16.53 19.07,43.41 1.45,4.07 2.46,8.01 3.34,10.85 2.34,7.55 4.18,11.86 5.98,19.58l-51.12 0c6.19,-12.89 22.72,-60.29 22.72,-73.84zm-68.16 164.71c23.02,0 21.38,-13.72 31.97,-44.7 2.29,-6.68 4.71,-10.15 4.94,-20.61 26.37,0 49.04,-2.28 71,2.84 0,15.12 4.43,19.22 9.65,35.79 7.81,24.8 6.68,26.69 27.27,26.69 10.44,0 8.52,-6.06 8.52,-19.88l-32.96 -94.83c-0.6,-1.79 -1.64,-4.49 -2.24,-6.28l-27.28 -83.48 -36.92 0 -57.13 170.06c-0.24,0.7 -0.45,1.46 -0.69,2.16 -3.25,9.57 -14.66,32.25 3.86,32.25z"/>
   <path class="fil0" d="M3157.94 4310.94c0,15.11 -0.07,10.48 3.87,21.69l11.23 31.37c3.21,8.35 4.54,10.26 4.78,20.78l-48.28 0c0.85,-10.22 2.77,-10.59 5.63,-19.93l9.44 -27.48c8.18,-22.24 2.42,-19.11 13.34,-26.42zm-85.2 153.35c0,12.56 1.95,11.36 17.04,11.36 16.19,0 28.4,-53.44 28.4,-62.48 21.53,-5.02 36.76,-2.84 62.48,-2.84 2.81,0 5.38,-4.08 11.95,13.61 10.37,27.93 8.02,51.7 30.65,51.7 6.13,0 9.04,-0.44 13.04,-4.27 6.36,-6.09 -5.48,-29.93 -8.04,-37.64l-27.26 -80.65c-0.24,-0.67 -0.55,-1.39 -0.8,-2.04l-28.05 -79.86 -34.08 0 -29.38 84.21c-0.23,0.69 -0.48,1.44 -0.71,2.13 -0.24,0.68 -0.52,1.41 -0.76,2.08l-34.46 104.7z"/>
   <path class="fil0" d="M1235.34 4367.74l0 -71c79.45,-18.51 75.24,52.32 47.57,67.44 -11.63,6.35 -27.97,3.55 -47.57,3.55zm-28.4 -96.56c-5.43,23.3 -5.43,178.32 0,201.63 36.04,8.39 28.4,1.72 28.4,-79.52 20.5,9.83 73.72,3.41 93.29,-40.19 3.95,-8.81 3.27,4.21 3.27,-8.09 0,-20.81 2.3,-29.31 -6.99,-46.97l-15.24 -16c-36.13,-22.27 -63.3,-10.87 -102.73,-10.87z"/>
   <path class="fil0" d="M2308.81 4279.7c0,36.61 35.04,5.84 55.49,18.35 9.66,5.9 4.15,47.77 4.15,61.17l-0.29 96.85c0.4,29.22 19.21,17.78 31.53,16.75l0 -176.07c69.88,0 62.16,4.76 59.64,-25.56l-119.3 -0.02c-13.55,-0.13 -31.22,-4.15 -31.22,8.54z"/>
   <path class="fil0" d="M3299.93 4467.13c0,6.55 1.98,8.52 8.52,8.52l93.72 0c14,0 16.99,-28.4 2.84,-28.4l-76.68 0 0 -176.07 -28.4 0 0 195.95z"/>
   <path class="fil0" d="M2510.45 4285.38c0,37.66 -3.7,159.34 2.84,187.43 17.98,4.19 10.42,4.19 28.4,0l0 -201.63 -28.4 0c-1.48,6.37 -2.84,6.53 -2.84,14.2z"/>
   <path class="fil0" d="M3759.99 4472.81c11.67,0.97 6.35,2.84 17.04,2.84 6.64,0 14.2,-3.69 14.2,-11.36l0 -193.11 -31.24 0 0 201.63z"/>
  </g>
 </g>
</svg>
