<?xml version="1.0" encoding="UTF-8"?>
<svg xmlns="http://www.w3.org/2000/svg" viewBox="0 0 96 96" width="512" height="512"><g id="Influencer"><path d="M38.28,50.88a1,1,0,0,0-1.39.28,2.63,2.63,0,0,1-4.38,0,1,1,0,0,0-1.66,1.12,4.64,4.64,0,0,0,7.71,0A1,1,0,0,0,38.28,50.88Z"/><path d="M38.36,79.09H31.29a1,1,0,1,0,0,2h7.07a1,1,0,0,0,0-2Z"/><path d="M68.74,70.69A2.9,2.9,0,0,0,71.4,71a4.43,4.43,0,0,0,2.21-1.28c6.2-.62,8.18-.23,14,.5a2.68,2.68,0,0,0,2.82-3.62l-2.29-5.88,1.81-1.29a2.82,2.82,0,0,0,1-3.31L89.3,52a2.79,2.79,0,0,0-3-1.77l-2.21.26-2.29-5.88a2.66,2.66,0,0,0-4.51-.76c-3.82,4.5-4.86,5.94-10,9.82a4.38,4.38,0,0,0-2.5.54c-.18.07-.12,3.42-.12-43.84A10.35,10.35,0,0,0,54.41,0H15.23A10.35,10.35,0,0,0,4.89,10.34V85.67A10.35,10.35,0,0,0,15.23,96H54.41A10.34,10.34,0,0,0,64.74,85.67V78a16.7,16.7,0,0,0,5,3.76,3.12,3.12,0,0,0,4.37-1.85s0,0,0,0a3.11,3.11,0,0,0-1.55-3.76,10.86,10.86,0,0,1-4.91-5C67.78,71,68.46,70.78,68.74,70.69ZM86.58,52.18a.82.82,0,0,1,.86.51l1.61,4.16a.8.8,0,0,1-.28.95l-1.4,1-2.49-6.41ZM75.9,48.56,76.46,50a1,1,0,0,0,1.87-.72l-1-2.43,1.47-1.73a.66.66,0,0,1,1.13.19l8.56,22a.66.66,0,0,1-.7.9l-2.26-.29-1-2.5a1,1,0,0,0-1.86.72l.59,1.52a42.81,42.81,0,0,0-9.12,0A2.76,2.76,0,0,0,74,66.9c-4.84-12.45-4.5-11.69-4.83-12.15A41.79,41.79,0,0,0,75.9,48.56ZM62.74,85.67A8.34,8.34,0,0,1,54.41,94H15.23a8.35,8.35,0,0,1-8.34-8.33V10.34A8.35,8.35,0,0,1,15.23,2H54.41a8.35,8.35,0,0,1,8.33,8.34v46c-.88.36-.31.14-2.52,1,0-50.7.06-47.8-.11-48.59a5.33,5.33,0,0,0-5.23-4.26H14.74A5.33,5.33,0,0,0,9.41,9.85c0,81.4-.05,76.43.1,77.26a5.34,5.34,0,0,0,5.24,4.37c43.75,0,40.88.19,42.3-.46a5.39,5.39,0,0,0,2.81-3c.5-1.3.36-1.16.36-14.46a3.7,3.7,0,0,0,1.51-.21,16.55,16.55,0,0,0,1,1.91ZM54.07,63.85l2.85,7.31a3.66,3.66,0,0,0,1.3,1.69c0,14,.1,13.63-.22,14.48a3,3,0,0,1-.68,1.08C54,71.89,54.22,71.75,52.93,69.68V47.22a4.2,4.2,0,0,0,0-6.45V33.28A15.76,15.76,0,0,0,37.19,17.54h-5A16.18,16.18,0,0,0,26,18.79l-1.71-.25c-.38-.06-.38-.22-1.2-1.87a2.58,2.58,0,0,0-4.62,0c-.8,1.63-.8,1.81-1.19,1.87l-1.71.25a2.57,2.57,0,0,0-1.43,4.39l1.24,1.2c.28.3.17.44-.13,2.21a2.58,2.58,0,0,0,1.68,2.86c-.64,2.45-.48,3.79-.48,11.33a4.18,4.18,0,0,0,0,6.43V69.66c-1.29,2.1-1.06,2-4.35,18.5-1-1.31-.7,2.89-.7-78.31a3.34,3.34,0,0,1,3.34-3.33h8.3l1.11,3a4.7,4.7,0,0,0,4.39,3.07H41.08a4.68,4.68,0,0,0,4.39-3.07l1.12-3h8.29a3.36,3.36,0,0,1,3.34,3.33v48.3l-2,.77A3.82,3.82,0,0,0,54.07,63.85ZM28,20.21c2.6-.86,4.34-.67,9.23-.67A13.75,13.75,0,0,1,50.93,33.28v6.58a8.6,8.6,0,0,0-1.81-.07V36.42a9.54,9.54,0,0,0-9.53-9.54H36.12a1,1,0,0,0-1,1,5.69,5.69,0,0,1-5.2,5.66c1.75-1.95,1.56-3.85,1.56-5.66a1,1,0,0,0-2,0v1.61a4.1,4.1,0,0,1-4.11,4.1H21.23a1,1,0,0,0-.86,1.5,32.17,32.17,0,0,0-.1,4.7,8.75,8.75,0,0,0-1.81.07c0-7.07-.16-8.13.6-10.58l1.46-.77c.36-.19.48,0,2.07.8a2.57,2.57,0,0,0,3.73-2.72c-.3-1.76-.41-1.92-.12-2.21l1.23-1.2A2.57,2.57,0,0,0,28,20.21ZM52.44,44a2.2,2.2,0,0,1-2.21,2.2H49.12V41.79a5,5,0,0,1,1.81.12A2.19,2.19,0,0,1,52.44,44ZM39.91,63.93l2.64,1.22v7a.83.83,0,0,1-.83.82h-14a.82.82,0,0,1-.82-.82v-7l2.63-1.22a1,1,0,0,0,.58-.91V60.79a14.29,14.29,0,0,0,9.27,0V63A1,1,0,0,0,39.91,63.93Zm-.58-5.27a12.43,12.43,0,0,1-17-10.46c-.06-.75-.05-.39-.05-6.77l1.12-.29a3,3,0,0,0,.87,2.21l2.32,2.32a2.7,2.7,0,0,0,3.82,0C32.84,43.23,33.2,43,33.48,42h2.68c.29,1.08.78,1.37,3.08,3.66a2.71,2.71,0,0,0,3.82,0l2.31-2.32a3,3,0,0,0,.86-2c1,.38.89.29.89.42v5.34A12.43,12.43,0,0,1,39.33,58.66Zm-8-16.72L29,44.26a.72.72,0,0,1-1,0l-2.31-2.32a1,1,0,0,1,.08-1.51,1.09,1.09,0,0,1,1.43.15l.59.59a1,1,0,0,0,1.42,0l.58-.59a1.11,1.11,0,0,1,1.44-.15h0A1,1,0,0,1,31.3,41.94ZM38,41.17a1,1,0,0,1,1.81-.59l.59.59a1,1,0,0,0,1.41,0l.59-.59a1,1,0,0,1,1.81.59,1,1,0,0,1-.29.77l-2.32,2.32a.71.71,0,0,1-1,0l-2.32-2.32A1,1,0,0,1,38,41.17ZM45,38.75a3.1,3.1,0,0,0-3.8.31,3,3,0,0,0-4.84.95h-3a3,3,0,0,0-4.84-.95,3.11,3.11,0,0,0-3.77-.33l-2.45.64a33.37,33.37,0,0,1,.05-3.78h7.09a7.72,7.72,0,0,0,7.64-6.71h2.54a7.54,7.54,0,0,1,7.53,7.54v3.14ZM26,21.75,24.8,23a2.58,2.58,0,0,0-.74,2.28l.29,1.7a.57.57,0,0,1-.83.61L22,26.74c-2.07-1.11-3.66,1.24-4.44.81a.58.58,0,0,1-.32-.62l.29-1.7A2.55,2.55,0,0,0,16.78,23l-1.23-1.2a.58.58,0,0,1,.32-1l1.7-.24a2.59,2.59,0,0,0,1.94-1.41l.77-1.55a.58.58,0,0,1,1,0l.76,1.55c.73,1.46,2.1,1.43,3.65,1.65A.58.58,0,0,1,26,21.75ZM18.46,41.91a5,5,0,0,1,1.81-.12V46.2H19.16a2.2,2.2,0,0,1-.7-4.29ZM17.09,73.45a8.35,8.35,0,0,1,3.26-5.09V89.48c-7.43,0-5.18,0-5.65,0a4.41,4.41,0,0,1-.7-.08C13.87,89.36,13.67,90.56,17.09,73.45Zm1.37-6.15V48.14a10.49,10.49,0,0,0,1.85.06,14.46,14.46,0,0,0,7.75,11.74v2.44C20.8,65.75,20,66,18.46,67.3Zm3.89-.06,2.5-1.16v6a2.82,2.82,0,0,0,2.82,2.82h14a2.83,2.83,0,0,0,2.83-2.82v-6l2.5,1.16V89.48H22.35Zm19-4.86V59.94A14.47,14.47,0,0,0,49.08,48.2a10.38,10.38,0,0,0,1.85-.06V67.31C49.46,66,48.9,65.89,41.33,62.38Zm7.72,6a8.13,8.13,0,0,1,2.47,2.88c.75,1.44.48.72,4,18.18-.49.09-.06.06-6.44.06ZM25.18,6.52H44.46l-.87,2.35a2.68,2.68,0,0,1-2.51,1.76H28.55A2.69,2.69,0,0,1,26,8.87Zm35.94,65a1.82,1.82,0,0,1-2.34-1c-.71-1.84-.14-.35-2.84-7.32a1.81,1.81,0,0,1,1-2.34c4.2-1.65,5.75-2.23,6.41-2.51L67.54,69C67.24,69.08,66.67,69.31,61.12,71.47Zm10.51,6.41a1.14,1.14,0,0,1,.55,1.35c1.26.41,1.29.4,0,0a1.13,1.13,0,0,1-1.56.67,15.32,15.32,0,0,1-6.94-7.14L65.81,72A12.93,12.93,0,0,0,71.63,77.88ZM65.09,57.17a.86.86,0,0,1,.5-1.12c1.1-.43,1.11-.45,1.31-.45a.81.81,0,0,1,.69.35c.12.14-.21-.65,4.58,11.67a.87.87,0,0,1,0,.67c-.17.39-.37.41-1.48.84a.86.86,0,0,1-1.12-.49C69.3,68,65.34,57.82,65.09,57.17Z"/><path d="M81.35,62.57a1,1,0,1,0,1.86-.73l-3.75-9.65a1,1,0,0,0-1.87.72Z"/><path d="M70.23,37.43v1.83a2.37,2.37,0,0,0,4,1.68l3.48-3.48h5.19a3.54,3.54,0,0,0,3.53-3.53V24.37a3.53,3.53,0,0,0-3.53-3.53H70.68a3.53,3.53,0,0,0-3.52,3.53v9.56A3.54,3.54,0,0,0,70.23,37.43ZM69.16,24.37a1.53,1.53,0,0,1,1.52-1.53H82.94a1.53,1.53,0,0,1,1.53,1.53v9.56a1.53,1.53,0,0,1-1.53,1.53h-5.6a1,1,0,0,0-.71.29l-3.77,3.77a.37.37,0,0,1-.63-.26v-2.8a1,1,0,0,0-1-1h-.55a1.53,1.53,0,0,1-1.52-1.53Z"/><path d="M72.62,27H81a1,1,0,0,0,0-2H72.62a1,1,0,0,0,0,2Z"/><path d="M72.62,30.29H81a1,1,0,0,0,0-2H72.62a1,1,0,0,0,0,2Z"/><path d="M72.62,33.59H81a1,1,0,0,0,0-2H72.62a1,1,0,1,0,0,2Z"/><path d="M88.69,79.19,87,78.94c-.4-.06-.41-.26-1.2-1.86a2.58,2.58,0,0,0-4.62,0c-.79,1.61-.8,1.8-1.2,1.86l-1.7.25a2.57,2.57,0,0,0-1.43,4.39c1.28,1.25,1.47,1.32,1.4,1.71L78,87a2.57,2.57,0,0,0,3.74,2.71l1.52-.8a.57.57,0,0,1,.54,0c1.37.72,1.89,1.1,2.73,1.1A2.58,2.58,0,0,0,89,87l-.29-1.71c-.07-.39.13-.47,1.4-1.71A2.57,2.57,0,0,0,88.69,79.19Zm0,3-1.24,1.2a2.58,2.58,0,0,0-.74,2.28l.29,1.7a.57.57,0,0,1-.83.61l-1.53-.8a2.55,2.55,0,0,0-2.4,0l-1.53.8a.57.57,0,0,1-.83-.61l.29-1.7a2.59,2.59,0,0,0-.74-2.28l-1.24-1.2a.58.58,0,0,1,.32-1l1.71-.25a2.56,2.56,0,0,0,1.94-1.41L83,78a.58.58,0,0,1,1,0h0l.76,1.55a2.58,2.58,0,0,0,1.94,1.41l1.71.25A.58.58,0,0,1,88.73,82.15Z"/><path d="M78.24,13.35,78,15.05a2.58,2.58,0,0,0,3.74,2.72L83.21,17a.64.64,0,0,1,.54,0c1.37.73,1.89,1.11,2.73,1.11a2.58,2.58,0,0,0,2.53-3l-.29-1.7c-.07-.39.13-.47,1.4-1.71a2.57,2.57,0,0,0-1.43-4.39L87,7c-.4-.06-.41-.26-1.2-1.86a2.58,2.58,0,0,0-4.62,0c-.79,1.6-.8,1.8-1.2,1.86l-1.7.25a2.57,2.57,0,0,0-1.43,4.39C78.12,12.89,78.31,13,78.24,13.35Zm.31-4.13L80.26,9A2.56,2.56,0,0,0,82.2,7.57L83,6a.58.58,0,0,1,1,0h0l.76,1.55A2.58,2.58,0,0,0,86.7,9l1.71.24a.58.58,0,0,1,.32,1l-1.24,1.2a2.57,2.57,0,0,0-.74,2.28l.29,1.7a.57.57,0,0,1-.83.61l-1.53-.8a2.55,2.55,0,0,0-2.4,0l-1.53.8a.57.57,0,0,1-.83-.61l.29-1.7a2.58,2.58,0,0,0-.74-2.28l-1.24-1.2A.58.58,0,0,1,78.55,9.22Z"/></g></svg>
